<?xml version="1.0" encoding="utf-8"?>
<!-- Generator: Adobe Illustrator 23.0.0, SVG Export Plug-In . SVG Version: 6.00 Build 0)  -->
<svg version="1.1" id="图层_1" xmlns="http://www.w3.org/2000/svg" xmlns:xlink="http://www.w3.org/1999/xlink" x="0px" y="0px"
	 viewBox="0 0 64 64" style="enable-background:new 0 0 64 64;" xml:space="preserve">
<style type="text/css">
	.st0{fill:none;stroke:#E60012;stroke-width:2;stroke-miterlimit:10;}
	.st1{fill:none;stroke:#FF33FF;stroke-width:2;stroke-miterlimit:10;}
	.st2{fill:none;stroke:#FF0000;stroke-width:2;stroke-miterlimit:10;}
	.st3{fill:#FFFFFF;stroke:#E60012;stroke-width:2;stroke-miterlimit:10;}
	.st4{fill:none;stroke:#231815;stroke-width:2;stroke-miterlimit:10;}
	.st5{fill:none;stroke:#E60012;stroke-miterlimit:10;}
	.st6{fill:none;stroke:#FF00FF;stroke-width:2;stroke-miterlimit:10;}
	.st7{fill:#E60012;}
	.st8{font-family:'AdobeSongStd-Light-GBpc-EUC-H';}
	.st9{font-size:6.7667px;}
</style>
<path class="st0" d="M40.3,45.7"/>
<path class="st0" d="M40.3,19.9"/>
<g>
	<path class="st0" d="M37.3,45.7"/>
</g>
<path class="st0" d="M24.2,34.4"/>
<path class="st0" d="M25.3,34.4"/>
<path class="st0" d="M24.2,34.4"/>
<path class="st0" d="M30.2,29.6"/>
<path class="st0" d="M25.3,29.6"/>
<path class="st0" d="M30.2,31.4"/>
<path class="st0" d="M25.3,31.4"/>
<path class="st0" d="M30.2,29.6"/>
<path class="st1" d="M16.3,39.6"/>
<path class="st1" d="M16.3,26.4"/>
<path class="st1" d="M11.1,30"/>
<path class="st1" d="M12.6,38.5"/>
<path class="st1" d="M20.7,28"/>
<path class="st1" d="M25.3,37.4"/>
<path class="st1" d="M25.4,35.4"/>
<path class="st1" d="M29.2,37.4"/>
<path class="st1" d="M29.2,29.6"/>
<path class="st1" d="M32.5,37.4"/>
<path class="st1" d="M32.5,29.6"/>
<path class="st2" d="M25.6,28"/>
<path class="st2" d="M23,30.6"/>
<path class="st0" d="M18.6,27.3"/>
<path class="st0" d="M17.8,35.1"/>
<path class="st0" d="M24.8,27.3"/>
<path class="st0" d="M24.6,27.3"/>
<path class="st0" d="M24.6,27.3"/>
<path class="st0" d="M17.7,34.1"/>
<path class="st0" d="M25.5,34.8"/>
<path class="st0" d="M25.5,27.4"/>
<path class="st0" d="M17.7,27.7"/>
<path class="st3" d="M15.6,40.5"/>
<path class="st3" d="M28,30"/>
<path class="st3" d="M16.5,31.4"/>
<path class="st3" d="M14.9,28.8"/>
<path class="st4" d="M31.6,40.8"/>
<path class="st4" d="M31.7,27.3"/>
<path class="st4" d="M24.8,38.5"/>
<path class="st4" d="M27.9,40.4"/>
<path class="st4" d="M29.6,40.6"/>
<path class="st0" d="M14.9,37.4"/>
<path class="st0" d="M11.4,25"/>
<path class="st0" d="M11.4,37.4"/>
<path class="st0" d="M26.9,37.8"/>
<path class="st0" d="M23.4,37.8"/>
<path class="st0" d="M24.2,37.8"/>
<path class="st0" d="M13.5,40.8"/>
<path class="st0" d="M13.2,40.4"/>
<path class="st0" d="M15.6,37.4"/>
<path class="st0" d="M25.5,41.2"/>
<path class="st0" d="M23.4,37.8"/>
<path class="st0" d="M25.6,40.6"/>
<path class="st0" d="M27.6,37.8"/>
<line class="st0" x1="24.8" y1="40.2" x2="24.8" y2="40.2"/>
<path class="st0" d="M25,40.6"/>
<path class="st0" d="M16.5,32.8"/>
<path class="st0" d="M16.5,27.3"/>
<path class="st0" d="M28.6,33.1"/>
<path class="st0" d="M28.6,27.6"/>
<path class="st0" d="M15.9,24.2"/>
<path class="st0" d="M11,24.2"/>
<path class="st0" d="M24.4,37.9"/>
<path class="st0" d="M26.1,32.7"/>
<path class="st0" d="M33.2,37.4"/>
<path class="st0" d="M26.3,32.1"/>
<path class="st3" d="M28.9,41.2"/>
<path class="st3" d="M19.6,41.2"/>
<path class="st3" d="M38,28.9"/>
<line class="st0" x1="41.8" y1="29" x2="41.8" y2="29"/>
<path class="st0" d="M28,25"/>
<path class="st5" d="M0.8,25"/>
<path class="st0" d="M28,39.2"/>
<path class="st5" d="M1.2,39.2"/>
<path class="st0" d="M3.4,39.6"/>
<path class="st0" d="M3.4,25"/>
<path class="st0" d="M6.4,39.3"/>
<path class="st0" d="M6.4,24.9"/>
<path class="st0" d="M9,39.2"/>
<path class="st0" d="M9,25.1"/>
<path class="st0" d="M11.8,39.2"/>
<path class="st0" d="M11.8,25.1"/>
<path class="st0" d="M14.9,39.1"/>
<path class="st0" d="M14.9,25"/>
<path class="st0" d="M17.8,39.2"/>
<path class="st0" d="M17.8,25.1"/>
<path class="st0" d="M20,39.3"/>
<path class="st0" d="M20,24.8"/>
<path class="st0" d="M23,39.3"/>
<path class="st0" d="M23,25.3"/>
<path class="st0" d="M29.6,39"/>
<path class="st0" d="M29.6,24.9"/>
<path class="st0" d="M26.3,39"/>
<path class="st0" d="M26.3,24.9"/>
<path class="st0" d="M46.7,26.1"/>
<path class="st0" d="M17.8,27.4"/>
<path class="st0" d="M32.6,39"/>
<path class="st0" d="M32.6,24.9"/>
<path class="st0" d="M32.6,39"/>
<path class="st0" d="M32.6,24.9"/>
<path class="st0" d="M35.6,39.5"/>
<path class="st0" d="M35.6,25.4"/>
<path class="st0" d="M47.4,38.5"/>
<path class="st0" d="M17.7,38.2"/>
<path class="st0" d="M29.2,38.3"/>
<path class="st0" d="M29.2,26.2"/>
<path class="st0" d="M32,38"/>
<path class="st0" d="M31.9,25.9"/>
<path class="st0" d="M34.7,38.2"/>
<path class="st0" d="M34.6,26.1"/>
<path class="st0" d="M37.7,38.1"/>
<path class="st0" d="M37.6,26"/>
<path class="st0" d="M40.3,38.3"/>
<path class="st0" d="M40.3,26.2"/>
<path class="st0" d="M43.2,38.3"/>
<path class="st0" d="M43.1,26.2"/>
<path class="st0" d="M45.8,38.6"/>
<path class="st0" d="M45.7,26.5"/>
<path class="st0" d="M48.7,38.2"/>
<path class="st0" d="M48.6,26.1"/>
<path class="st0" d="M61.7,27.2"/>
<path class="st0" d="M39.9,26.9"/>
<path class="st0" d="M39.7,40.2"/>
<path class="st0" d="M39.6,28.1"/>
<path class="st0" d="M62,38.1"/>
<path class="st0" d="M40.2,37.8"/>
<path class="st0" d="M48.7,37.8"/>
<path class="st0" d="M48.7,27.3"/>
<path class="st0" d="M51.9,37.8"/>
<path class="st0" d="M51.9,27.3"/>
<path class="st0" d="M54.8,37.9"/>
<path class="st0" d="M55,27.1"/>
<path class="st0" d="M57.8,37.9"/>
<path class="st0" d="M57.8,27.5"/>
<path class="st0" d="M45.1,28.5"/>
<path class="st0" d="M37.7,35.9"/>
<line class="st0" x1="46.1" y1="30.6" x2="46.1" y2="30.6"/>
<path class="st0" d="M21.3,48.8"/>
<path class="st0" d="M32.9,29"/>
<path class="st0" d="M45.1,49.8"/>
<path class="st0" d="M32.9,29.1"/>
<path class="st0" d="M32.9,43.6"/>
<path class="st0" d="M32.9,29"/>
<line class="st0" x1="23.4" y1="31.1" x2="23.4" y2="31.1"/>
<line class="st0" x1="38" y1="24.4" x2="38" y2="24.4"/>
<line class="st0" x1="21.5" y1="32.7" x2="21.5" y2="32.7"/>
<path class="st6" d="M32.1,37.6"/>
<path class="st6" d="M32.1,26.5"/>
<path class="st6" d="M36.6,37.7"/>
<path class="st6" d="M36.6,26.6"/>
<path class="st6" d="M38.8,37.7"/>
<path class="st6" d="M38.8,26.6"/>
<path class="st6" d="M41.3,37.6"/>
<path class="st6" d="M41.3,26.5"/>
<path class="st6" d="M43.5,37.7"/>
<path class="st6" d="M43.5,26.6"/>
<path class="st6" d="M45.8,37.6"/>
<path class="st6" d="M45.8,26.5"/>
<path class="st0" d="M27.4,32"/>
<path class="st0" d="M32.9,25.2"/>
<path class="st0" d="M24.2,28.5"/>
<path class="st0" d="M29.2,28.5"/>
<path class="st0" d="M51.4,24.9"/>
<path class="st0" d="M46.4,29.9"/>
<line class="st0" x1="45.2" y1="27.6" x2="45.2" y2="27.6"/>
<line class="st0" x1="22.6" y1="37.4" x2="39.7" y2="37.4"/>
<path class="st0" d="M20.9,42.9"/>
<path class="st0" d="M22.6,37.1c0,1.7-1.3,3-3,3s-3-1.3-3-3"/>
<path class="st0" d="M20.9,43.2"/>
<path class="st0" d="M45.7,37.4c0,1.7-1.3,3-3,3s-3-1.3-3-3"/>
<line class="st0" x1="11.1" y1="37.1" x2="16.7" y2="37.1"/>
<line class="st0" x1="11.4" y1="34.4" x2="11.4" y2="37.1"/>
<line class="st0" x1="11.4" y1="34.4" x2="13.2" y2="34.4"/>
<line class="st0" x1="16.1" y1="28.1" x2="22.1" y2="28.1"/>
<line class="st0" x1="33.7" y1="23" x2="33.8" y2="37.5"/>
<line class="st0" x1="27.4" y1="23.1" x2="33.7" y2="23"/>
<path class="st0" d="M13.2,34.1c-0.3,1.1-0.3-5.8,2.9-6"/>
<line class="st0" x1="20.4" y1="44" x2="20.4" y2="44"/>
<line class="st0" x1="22.1" y1="28.1" x2="27.4" y2="23.1"/>
<line class="st0" x1="45.7" y1="37.4" x2="54.8" y2="37.4"/>
<line class="st0" x1="54.8" y1="37.4" x2="54.8" y2="22.7"/>
<line class="st0" x1="33.7" y1="23" x2="41.3" y2="23"/>
<line class="st0" x1="43.5" y1="25.9" x2="48.1" y2="25.9"/>
<line class="st0" x1="50.2" y1="23" x2="54.8" y2="23"/>
<line class="st0" x1="41.3" y1="23" x2="43.5" y2="25.9"/>
<line class="st0" x1="50.2" y1="23" x2="47.8" y2="25.9"/>
<line class="st0" x1="33.7" y1="23" x2="33.8" y2="19.9"/>
<line class="st0" x1="31.1" y1="23" x2="31.2" y2="19.9"/>
<line class="st0" x1="30.9" y1="19.9" x2="34.1" y2="19.9"/>
<g>
	<polygon class="st0" points="28.6,24.8 27,24.8 23.9,28.3 28.6,28.3 	"/>
</g>
<rect x="29.9" y="24.8" class="st0" width="2.2" height="3.6"/>
<line class="st0" x1="27.4" y1="18.4" x2="61.7" y2="23.8"/>
<line class="st0" x1="27.4" y1="16.8" x2="61.7" y2="22.2"/>
<line class="st0" x1="27.4" y1="14.8" x2="61.7" y2="20.2"/>
<line class="st0" x1="29.2" y1="17.1" x2="29.2" y2="18.7"/>
<line class="st0" x1="31.6" y1="17.5" x2="31.6" y2="19.1"/>
<line class="st0" x1="34.6" y1="17.8" x2="34.6" y2="19.4"/>
<line class="st0" x1="38" y1="18.4" x2="38" y2="20"/>
<line class="st0" x1="40.9" y1="18.7" x2="40.9" y2="20.3"/>
<line class="st0" x1="44" y1="19.5" x2="44" y2="21.1"/>
<line class="st0" x1="47.2" y1="20" x2="47.2" y2="21.6"/>
<line class="st0" x1="50.5" y1="20.6" x2="50.5" y2="22.2"/>
<line class="st0" x1="53.3" y1="20.8" x2="53.3" y2="22.4"/>
<line class="st0" x1="56.2" y1="21.2" x2="56.2" y2="22.9"/>
<line class="st0" x1="58.9" y1="21.6" x2="58.9" y2="23.2"/>
<line class="st0" x1="30.4" y1="15.2" x2="30.4" y2="17.2"/>
<line class="st0" x1="33.2" y1="15.5" x2="33.2" y2="17.4"/>
<line class="st0" x1="36.1" y1="16.2" x2="36.1" y2="18.1"/>
<line class="st0" x1="39.6" y1="16.8" x2="39.6" y2="18.7"/>
<line class="st0" x1="42.4" y1="16.9" x2="42.4" y2="18.8"/>
<line class="st0" x1="45.7" y1="17.8" x2="45.7" y2="19.7"/>
<line class="st0" x1="52.5" y1="18.7" x2="52.5" y2="20.7"/>
<line class="st0" x1="49.1" y1="18.4" x2="49.1" y2="20.3"/>
<line class="st0" x1="55" y1="19.4" x2="55" y2="21.3"/>
<line class="st0" x1="57.8" y1="19.7" x2="57.8" y2="21.6"/>
<line class="st0" x1="60.6" y1="20.1" x2="60.6" y2="22.1"/>
<text transform="matrix(1 0 0 1 24.4 33.6672)" class="st7 st8 st9">XF</text>
</svg>
