<?xml version="1.0" encoding="utf-8"?>
<!-- Generator: Adobe Illustrator 23.0.0, SVG Export Plug-In . SVG Version: 6.00 Build 0)  -->
<svg version="1.1" id="图层_1" xmlns="http://www.w3.org/2000/svg" xmlns:xlink="http://www.w3.org/1999/xlink" x="0px" y="0px"
	 viewBox="0 0 64 64" style="enable-background:new 0 0 64 64;" xml:space="preserve">
<style type="text/css">
	.st0{fill:none;stroke:#E60012;stroke-width:2;stroke-miterlimit:10;}
	.st1{fill:none;stroke:#FF33FF;stroke-width:2;stroke-miterlimit:10;}
	.st2{fill:none;stroke:#FF0000;stroke-width:2;stroke-miterlimit:10;}
	.st3{fill:#FFFFFF;stroke:#E60012;stroke-width:2;stroke-miterlimit:10;}
	.st4{fill:none;stroke:#231815;stroke-width:2;stroke-miterlimit:10;}
	.st5{fill:#E60012;stroke:#E60012;stroke-width:2;stroke-miterlimit:10;}
</style>
<path class="st0" d="M41.2,46.2"/>
<path class="st0" d="M41.2,21.4"/>
<g>
	<path class="st0" d="M38.3,46.2"/>
</g>
<path class="st0" d="M25.8,35.3"/>
<path class="st0" d="M26.9,35.3"/>
<path class="st0" d="M25.8,35.3"/>
<path class="st0" d="M31.6,30.7"/>
<path class="st0" d="M26.9,30.7"/>
<path class="st0" d="M31.6,32.5"/>
<path class="st0" d="M26.9,32.5"/>
<path class="st0" d="M31.6,32.5"/>
<path class="st0" d="M31.6,30.7"/>
<path class="st1" d="M18.2,40.3"/>
<path class="st1" d="M18.2,27.7"/>
<path class="st1" d="M23,38.2"/>
<path class="st1" d="M13.3,31.1"/>
<path class="st1" d="M14.7,39.3"/>
<path class="st1" d="M22.5,29.2"/>
<path class="st1" d="M26.9,38.2"/>
<path class="st1" d="M27,36.3"/>
<path class="st1" d="M30.6,38.2"/>
<path class="st1" d="M30.6,30.7"/>
<path class="st1" d="M33.8,38.2"/>
<path class="st1" d="M33.8,30.7"/>
<path class="st2" d="M27.1,29.2"/>
<path class="st2" d="M24.7,31.7"/>
<path class="st0" d="M20.4,28.5"/>
<path class="st0" d="M19.7,36"/>
<path class="st0" d="M26.4,28.5"/>
<path class="st0" d="M26.2,28.5"/>
<path class="st0" d="M26.2,28.5"/>
<path class="st0" d="M19.6,35"/>
<path class="st0" d="M27.1,35.7"/>
<path class="st0" d="M27.1,28.6"/>
<path class="st0" d="M19.6,28.9"/>
<path class="st3" d="M17.6,41.2"/>
<path class="st3" d="M29.4,31.1"/>
<path class="st3" d="M18.4,32.5"/>
<path class="st3" d="M16.9,30"/>
<path class="st4" d="M32.9,41.5"/>
<path class="st4" d="M33,28.5"/>
<path class="st4" d="M26.4,39.3"/>
<path class="st4" d="M29.3,41.1"/>
<path class="st4" d="M31,41.3"/>
<path class="st0" d="M16.9,38.2"/>
<path class="st0" d="M13.5,26.3"/>
<path class="st0" d="M13.5,38.2"/>
<path class="st0" d="M28.4,38.6"/>
<path class="st0" d="M25,38.6"/>
<path class="st0" d="M25.8,38.6"/>
<path class="st0" d="M15.6,41.5"/>
<path class="st0" d="M15.3,41.1"/>
<path class="st0" d="M17.6,38.2"/>
<path class="st0" d="M27.1,41.8"/>
<path class="st0" d="M25,38.6"/>
<path class="st0" d="M27.1,41.3"/>
<path class="st0" d="M29.1,38.6"/>
<line class="st0" x1="26.4" y1="40.9" x2="26.4" y2="40.9"/>
<path class="st0" d="M26.6,41.3"/>
<path class="st0" d="M18.4,33.8"/>
<path class="st0" d="M18.4,28.5"/>
<path class="st0" d="M30,34.1"/>
<path class="st0" d="M30,28.8"/>
<path class="st0" d="M17.9,25.6"/>
<path class="st0" d="M13.2,25.6"/>
<path class="st0" d="M26,38.7"/>
<path class="st0" d="M27.6,33.7"/>
<path class="st0" d="M34.4,38.2"/>
<path class="st0" d="M27.8,33.1"/>
<path class="st3" d="M30.3,41.8"/>
<path class="st3" d="M21.4,41.8"/>
<path class="st3" d="M39,30.1"/>
<line class="st0" x1="42.7" y1="30.2" x2="42.7" y2="30.2"/>
<line class="st0" x1="3.4" y1="26.3" x2="29.4" y2="26.3"/>
<line class="st0" x1="3.8" y1="39.9" x2="29.4" y2="39.9"/>
<line class="st0" x1="5.9" y1="26.3" x2="5.9" y2="40.3"/>
<line class="st0" x1="8.8" y1="26.2" x2="8.8" y2="40"/>
<line class="st0" x1="11.3" y1="26.4" x2="11.3" y2="39.9"/>
<line class="st0" x1="13.9" y1="26.4" x2="13.9" y2="39.9"/>
<line class="st0" x1="16.9" y1="26.3" x2="16.9" y2="39.8"/>
<line class="st0" x1="19.7" y1="26.4" x2="19.7" y2="39.9"/>
<line class="st0" x1="21.8" y1="26.1" x2="21.8" y2="40"/>
<line class="st0" x1="24.7" y1="26.6" x2="24.7" y2="40"/>
<path class="st0" d="M31,39.7"/>
<path class="st0" d="M31,26.2"/>
<line class="st0" x1="27.8" y1="26.2" x2="27.8" y2="39.7"/>
<line class="st0" x1="20.3" y1="27.2" x2="47.4" y2="27.4"/>
<path class="st0" d="M33.8,39.7"/>
<path class="st0" d="M33.8,26.2"/>
<path class="st0" d="M33.8,39.7"/>
<path class="st0" d="M33.8,26.2"/>
<path class="st0" d="M36.7,40.2"/>
<path class="st0" d="M36.7,26.7"/>
<line class="st0" x1="19.6" y1="39" x2="48" y2="39.3"/>
<line class="st0" x1="30.6" y1="27.5" x2="30.6" y2="39.1"/>
<line class="st0" x1="33.2" y1="27.2" x2="33.3" y2="38.8"/>
<line class="st0" x1="35.8" y1="27.4" x2="35.9" y2="39"/>
<line class="st0" x1="38.6" y1="27.3" x2="38.7" y2="38.9"/>
<line class="st0" x1="41.2" y1="27.5" x2="41.2" y2="39.1"/>
<line class="st0" x1="43.9" y1="27.5" x2="44" y2="39.1"/>
<line class="st0" x1="46.4" y1="27.8" x2="46.5" y2="39.4"/>
<path class="st0" d="M49.3,39"/>
<path class="st0" d="M49.2,27.4"/>
<line class="st0" x1="40.8" y1="28.1" x2="61.7" y2="28.4"/>
<path class="st0" d="M40.6,40.9"/>
<path class="st0" d="M40.6,29.3"/>
<line class="st0" x1="41.1" y1="38.6" x2="62" y2="38.9"/>
<line class="st0" x1="49.3" y1="28.5" x2="49.3" y2="38.6"/>
<line class="st0" x1="52.3" y1="28.5" x2="52.3" y2="38.6"/>
<line class="st0" x1="55.3" y1="28.3" x2="55.1" y2="38.7"/>
<line class="st0" x1="58" y1="28.7" x2="58" y2="38.7"/>
<line class="st0" x1="36.7" y1="27.4" x2="11.3" y2="12.1"/>
<line class="st0" x1="37.4" y1="39.2" x2="11.3" y2="54.9"/>
<circle class="st5" cx="11.3" cy="12.1" r="1.4"/>
<circle class="st5" cx="11.3" cy="54.9" r="1.4"/>
</svg>
