<?xml version="1.0" encoding="utf-8"?>
<!-- Generator: Adobe Illustrator 23.0.0, SVG Export Plug-In . SVG Version: 6.00 Build 0)  -->
<svg version="1.1" id="图层_1" xmlns="http://www.w3.org/2000/svg" xmlns:xlink="http://www.w3.org/1999/xlink" x="0px" y="0px"
	 viewBox="0 0 64 64" style="enable-background:new 0 0 64 64;" xml:space="preserve">
<style type="text/css">
	.st0{fill:none;stroke:#E60012;stroke-miterlimit:10;}
	.st1{fill:none;stroke:#E60012;stroke-width:2;stroke-miterlimit:10;}
	.st2{fill:none;stroke:#FF33FF;stroke-width:2;stroke-miterlimit:10;}
	.st3{fill:none;stroke:#FF0000;stroke-width:2;stroke-miterlimit:10;}
	.st4{fill:#FFFFFF;stroke:#E60012;stroke-width:2;stroke-miterlimit:10;}
	.st5{fill:none;stroke:#231815;stroke-width:2;stroke-miterlimit:10;}
</style>
<path class="st0" d="M40.3,45.7"/>
<path class="st0" d="M40.3,19.9"/>
<g>
	<path class="st0" d="M37.3,45.7"/>
</g>
<path class="st1" d="M24.2,34.4"/>
<path class="st1" d="M25.3,34.4"/>
<path class="st1" d="M24.2,34.4"/>
<path class="st1" d="M30.2,29.6"/>
<path class="st1" d="M25.3,29.6"/>
<path class="st1" d="M30.2,31.4"/>
<path class="st1" d="M25.3,31.4"/>
<path class="st1" d="M30.2,31.4"/>
<path class="st1" d="M30.2,29.6"/>
<path class="st2" d="M16.3,39.6"/>
<path class="st2" d="M16.3,26.4"/>
<path class="st2" d="M21.3,37.4"/>
<path class="st2" d="M11.1,30"/>
<path class="st2" d="M12.6,38.5"/>
<path class="st2" d="M20.7,28"/>
<path class="st2" d="M25.3,37.4"/>
<path class="st2" d="M25.4,35.4"/>
<path class="st2" d="M29.2,37.4"/>
<path class="st2" d="M29.2,29.6"/>
<path class="st2" d="M32.5,37.4"/>
<path class="st2" d="M32.5,29.6"/>
<path class="st3" d="M25.6,28"/>
<path class="st3" d="M23,30.6"/>
<path class="st1" d="M18.6,27.3"/>
<path class="st1" d="M17.8,35.1"/>
<path class="st1" d="M24.8,27.3"/>
<path class="st1" d="M24.6,27.3"/>
<path class="st1" d="M24.6,27.3"/>
<path class="st1" d="M17.7,34.1"/>
<path class="st1" d="M25.5,34.8"/>
<path class="st1" d="M25.5,27.4"/>
<path class="st1" d="M17.7,27.7"/>
<path class="st4" d="M15.6,40.5"/>
<path class="st4" d="M28,30"/>
<path class="st4" d="M16.5,31.4"/>
<path class="st4" d="M14.9,28.8"/>
<path class="st5" d="M31.6,40.8"/>
<path class="st5" d="M31.7,27.3"/>
<path class="st5" d="M24.8,38.5"/>
<path class="st5" d="M27.9,40.4"/>
<path class="st5" d="M29.6,40.6"/>
<path class="st1" d="M14.9,37.4"/>
<path class="st1" d="M11.4,25"/>
<path class="st1" d="M11.4,37.4"/>
<path class="st1" d="M26.9,37.8"/>
<path class="st1" d="M23.4,37.8"/>
<path class="st1" d="M24.2,37.8"/>
<path class="st1" d="M13.5,40.8"/>
<path class="st1" d="M13.2,40.4"/>
<path class="st1" d="M15.6,37.4"/>
<path class="st1" d="M25.5,41.2"/>
<path class="st1" d="M23.4,37.8"/>
<path class="st1" d="M25.6,40.6"/>
<path class="st1" d="M27.6,37.8"/>
<line class="st1" x1="24.8" y1="40.2" x2="24.8" y2="40.2"/>
<path class="st1" d="M25,40.6"/>
<path class="st1" d="M16.5,32.8"/>
<path class="st1" d="M16.5,27.3"/>
<path class="st1" d="M28.6,33.1"/>
<path class="st1" d="M28.6,27.6"/>
<path class="st1" d="M15.9,24.2"/>
<path class="st1" d="M11,24.2"/>
<path class="st1" d="M24.4,37.9"/>
<path class="st1" d="M26.1,32.7"/>
<path class="st1" d="M33.2,37.4"/>
<path class="st1" d="M26.3,32.1"/>
<path class="st4" d="M28.9,41.2"/>
<path class="st4" d="M19.6,41.2"/>
<path class="st4" d="M38,28.9"/>
<line class="st1" x1="41.8" y1="29" x2="41.8" y2="29"/>
<line class="st1" x1="0.8" y1="25" x2="36.9" y2="25"/>
<line class="st1" x1="1.2" y1="39.2" x2="36.9" y2="39.2"/>
<line class="st1" x1="3.4" y1="25" x2="3.4" y2="39.6"/>
<line class="st1" x1="6.4" y1="24.9" x2="6.4" y2="39.3"/>
<line class="st1" x1="9" y1="25.1" x2="9" y2="39.2"/>
<line class="st1" x1="11.8" y1="25.1" x2="11.8" y2="39.2"/>
<line class="st1" x1="14.9" y1="25" x2="14.9" y2="39.1"/>
<line class="st1" x1="17.8" y1="25.1" x2="17.8" y2="39.2"/>
<line class="st1" x1="20" y1="24.8" x2="20" y2="39.3"/>
<line class="st1" x1="23" y1="25.3" x2="23" y2="39.3"/>
<line class="st1" x1="29.6" y1="24.9" x2="29.6" y2="39"/>
<line class="st1" x1="26.3" y1="24.9" x2="26.3" y2="39"/>
<line class="st1" x1="25.1" y1="25.9" x2="59.8" y2="25.9"/>
<line class="st1" x1="32.6" y1="24.9" x2="32.6" y2="39"/>
<line class="st1" x1="32.6" y1="24.9" x2="32.6" y2="39"/>
<line class="st1" x1="35.6" y1="25.4" x2="35.6" y2="39.5"/>
<line class="st1" x1="24.9" y1="38.5" x2="59.6" y2="38.5"/>
<line class="st1" x1="38.5" y1="26.4" x2="38.6" y2="38.5"/>
<line class="st1" x1="41" y1="26.1" x2="41.1" y2="38.2"/>
<line class="st1" x1="43.9" y1="26.1" x2="44" y2="38.2"/>
<line class="st1" x1="47" y1="26" x2="47.1" y2="38.1"/>
<line class="st1" x1="50.1" y1="26.2" x2="50.2" y2="38.3"/>
<line class="st1" x1="53.1" y1="26" x2="53.2" y2="38.1"/>
<line class="st1" x1="56" y1="25.9" x2="56.1" y2="38"/>
</svg>
