<?xml version="1.0" encoding="utf-8"?>
<!-- Generator: Adobe Illustrator 23.0.0, SVG Export Plug-In . SVG Version: 6.00 Build 0)  -->
<svg version="1.1" id="图层_1" xmlns="http://www.w3.org/2000/svg" xmlns:xlink="http://www.w3.org/1999/xlink" x="0px" y="0px"
	 viewBox="0 0 64 64" style="enable-background:new 0 0 64 64;" xml:space="preserve">
<style type="text/css">
	.st0{fill:none;stroke:#E60012;stroke-miterlimit:10;}
	.st1{fill:none;stroke:#E60012;stroke-width:3;stroke-miterlimit:10;}
	.st2{fill:none;stroke:#FF33FF;stroke-width:3;stroke-miterlimit:10;}
	.st3{fill:none;stroke:#FF0000;stroke-width:3;stroke-miterlimit:10;}
	.st4{fill:#FFFFFF;stroke:#E60012;stroke-width:3;stroke-miterlimit:10;}
	.st5{fill:none;stroke:#231815;stroke-width:3;stroke-miterlimit:10;}
	.st6{fill:#E60012;}
	.st7{font-family:'AdobeSongStd-Light-GBpc-EUC-H';}
	.st8{font-size:6px;}
	.st9{fill:none;stroke:#FF0000;stroke-width:3;stroke-miterlimit:10;stroke-dasharray:1;}
</style>
<path class="st0" d="M40.3,45.7"/>
<path class="st0" d="M40.3,19.9"/>
<g>
	<path class="st0" d="M37.3,45.7"/>
</g>
<path class="st1" d="M24.2,34.4"/>
<path class="st1" d="M25.3,34.4"/>
<path class="st1" d="M24.2,34.4"/>
<path class="st1" d="M30.2,29.6"/>
<path class="st1" d="M25.3,29.6"/>
<path class="st1" d="M30.2,31.4"/>
<path class="st1" d="M25.3,31.4"/>
<path class="st1" d="M30.2,31.4"/>
<path class="st1" d="M30.2,29.6"/>
<path class="st2" d="M16.3,39.6"/>
<path class="st2" d="M16.3,26.4"/>
<path class="st2" d="M21.3,37.4"/>
<path class="st2" d="M11.1,30"/>
<path class="st2" d="M12.6,38.5"/>
<path class="st2" d="M20.7,28"/>
<path class="st2" d="M25.3,37.4"/>
<path class="st2" d="M25.4,35.4"/>
<path class="st2" d="M29.2,37.4"/>
<path class="st2" d="M29.2,29.6"/>
<path class="st2" d="M32.5,37.4"/>
<path class="st2" d="M32.5,29.6"/>
<path class="st3" d="M25.6,28"/>
<path class="st3" d="M23,30.6"/>
<path class="st1" d="M18.6,27.3"/>
<path class="st1" d="M17.8,35.1"/>
<path class="st1" d="M24.8,27.3"/>
<path class="st1" d="M24.6,27.3"/>
<path class="st1" d="M24.6,27.3"/>
<path class="st1" d="M17.7,34.1"/>
<path class="st1" d="M25.5,34.8"/>
<path class="st1" d="M25.5,27.4"/>
<path class="st1" d="M17.7,27.7"/>
<path class="st4" d="M15.6,40.5"/>
<path class="st4" d="M28,30"/>
<path class="st4" d="M16.5,31.4"/>
<path class="st4" d="M14.9,28.8"/>
<path class="st5" d="M31.6,40.8"/>
<path class="st5" d="M31.7,27.3"/>
<path class="st5" d="M31.3,40.3"/>
<path class="st5" d="M27.9,40.4"/>
<path class="st5" d="M29.6,40.6"/>
<path class="st1" d="M14.9,37.4"/>
<path class="st1" d="M11.4,25"/>
<path class="st1" d="M11.4,37.4"/>
<path class="st1" d="M26.9,37.8"/>
<path class="st1" d="M23.4,37.8"/>
<path class="st1" d="M24.2,37.8"/>
<path class="st1" d="M13.5,40.8"/>
<path class="st1" d="M13.2,40.4"/>
<path class="st1" d="M15.6,37.4"/>
<path class="st1" d="M25.5,41.2"/>
<path class="st1" d="M23.4,37.8"/>
<path class="st1" d="M25.6,40.6"/>
<path class="st1" d="M27.6,37.8"/>
<line class="st1" x1="24.8" y1="40.2" x2="24.8" y2="40.2"/>
<path class="st1" d="M25,40.6"/>
<path class="st1" d="M16.5,32.8"/>
<path class="st1" d="M16.5,27.3"/>
<path class="st1" d="M28.6,33.1"/>
<path class="st1" d="M28.6,27.6"/>
<path class="st1" d="M15.9,24.2"/>
<path class="st1" d="M11,24.2"/>
<g>
	<g>
		<line class="st1" x1="10.5" y1="31.9" x2="39.5" y2="32.1"/>
		<g>
			<polygon class="st6" points="38,37.1 46.7,32.2 38.1,27.1 			"/>
		</g>
	</g>
</g>
<line class="st1" x1="47.2" y1="26.9" x2="47.1" y2="37.9"/>
<path class="st1" d="M24.4,37.9"/>
<path class="st1" d="M26.1,32.7"/>
<path class="st1" d="M33.2,37.4"/>
<path class="st1" d="M26.3,32.1"/>
<text transform="matrix(1 0 0 1 22.5835 29.9964)" class="st7 st8">2</text>
<line class="st9" x1="60" y1="23.4" x2="49" y2="28.4"/>
<line class="st9" x1="60.7" y1="27.3" x2="49" y2="30.2"/>
<line class="st9" x1="61.3" y1="30.6" x2="49.4" y2="31.7"/>
<line class="st9" x1="61.8" y1="34.4" x2="50.2" y2="33.1"/>
<line class="st9" x1="60.7" y1="37.3" x2="49.8" y2="34.6"/>
<line class="st9" x1="58.8" y1="40.7" x2="49.7" y2="36.3"/>
</svg>
