<?xml version="1.0" encoding="utf-8"?>
<!-- Generator: Adobe Illustrator 23.0.0, SVG Export Plug-In . SVG Version: 6.00 Build 0)  -->
<svg version="1.1" id="图层_1" xmlns="http://www.w3.org/2000/svg" xmlns:xlink="http://www.w3.org/1999/xlink" x="0px" y="0px"
	 viewBox="0 0 64 64" style="enable-background:new 0 0 64 64;" xml:space="preserve">
<style type="text/css">
	.st0{fill:none;stroke:#E60012;stroke-miterlimit:10;}
	.st1{fill:none;stroke:#E60012;stroke-width:3;stroke-miterlimit:10;}
	.st2{fill:none;stroke:#FF33FF;stroke-width:3;stroke-miterlimit:10;}
	.st3{fill:none;stroke:#FF0000;stroke-width:3;stroke-miterlimit:10;}
	.st4{fill:#FFFFFF;stroke:#E60012;stroke-width:3;stroke-miterlimit:10;}
	.st5{fill:none;stroke:#231815;stroke-width:3;stroke-miterlimit:10;}
</style>
<path class="st0" d="M40.3,45.7"/>
<path class="st0" d="M40.3,19.9"/>
<g>
	<path class="st0" d="M37.3,45.7"/>
</g>
<path class="st1" d="M28.7,35"/>
<path class="st1" d="M29.8,35"/>
<path class="st1" d="M28.7,35"/>
<path class="st1" d="M34.7,30.2"/>
<path class="st1" d="M29.8,30.2"/>
<path class="st1" d="M34.7,32"/>
<path class="st1" d="M29.8,32"/>
<path class="st1" d="M34.7,32"/>
<path class="st1" d="M34.7,30.2"/>
<path class="st2" d="M20.8,40.2"/>
<path class="st2" d="M20.8,27"/>
<path class="st2" d="M25.8,38"/>
<path class="st2" d="M15.6,30.6"/>
<path class="st2" d="M17.1,39.1"/>
<path class="st2" d="M25.2,28.6"/>
<path class="st2" d="M29.8,38"/>
<path class="st2" d="M29.9,36"/>
<path class="st2" d="M33.7,38"/>
<path class="st2" d="M33.7,30.2"/>
<path class="st2" d="M37,38"/>
<path class="st2" d="M37,30.2"/>
<path class="st3" d="M30.1,28.6"/>
<path class="st3" d="M27.5,31.2"/>
<path class="st1" d="M23.1,27.9"/>
<path class="st1" d="M22.3,35.7"/>
<path class="st1" d="M29.3,27.9"/>
<path class="st1" d="M29.1,27.9"/>
<path class="st1" d="M29.1,27.9"/>
<path class="st1" d="M22.2,34.7"/>
<path class="st1" d="M30,35.4"/>
<path class="st1" d="M30,28"/>
<path class="st1" d="M22.2,28.3"/>
<path class="st4" d="M20.1,41.1"/>
<path class="st4" d="M32.5,30.6"/>
<path class="st4" d="M21,32"/>
<path class="st4" d="M19.4,29.4"/>
<path class="st5" d="M36.1,41.4"/>
<path class="st5" d="M36.2,27.9"/>
<path class="st5" d="M29.3,39.1"/>
<path class="st5" d="M32.4,41"/>
<path class="st5" d="M34.1,41.2"/>
<path class="st1" d="M19.4,38"/>
<path class="st1" d="M15.9,25.6"/>
<path class="st1" d="M15.9,38"/>
<path class="st1" d="M31.4,38.4"/>
<path class="st1" d="M27.9,38.4"/>
<path class="st1" d="M28.7,38.4"/>
<path class="st1" d="M18,41.4"/>
<path class="st1" d="M17.7,41"/>
<path class="st1" d="M20.1,38"/>
<path class="st1" d="M30,41.8"/>
<path class="st1" d="M27.9,38.4"/>
<path class="st1" d="M30.1,41.2"/>
<path class="st1" d="M32.1,38.4"/>
<line class="st1" x1="29.3" y1="40.8" x2="29.3" y2="40.8"/>
<path class="st1" d="M29.5,41.2"/>
<path class="st1" d="M21,33.4"/>
<path class="st1" d="M21,27.9"/>
<path class="st1" d="M33.1,33.7"/>
<path class="st1" d="M33.1,28.2"/>
<path class="st1" d="M20.4,24.8"/>
<path class="st1" d="M15.5,24.8"/>
<path class="st1" d="M28.9,38.5"/>
<path class="st1" d="M30.6,33.3"/>
<path class="st1" d="M37.7,38"/>
<path class="st1" d="M30.8,32.7"/>
<path class="st4" d="M33.4,41.8"/>
<path class="st4" d="M24.1,41.8"/>
<path class="st4" d="M42.5,29.5"/>
<line class="st1" x1="46.3" y1="29.6" x2="46.3" y2="29.6"/>
<line class="st1" x1="5.3" y1="25.6" x2="45.2" y2="25.4"/>
<line class="st1" x1="5.7" y1="39.8" x2="44.8" y2="39.5"/>
<line class="st1" x1="7.9" y1="25.6" x2="7.9" y2="40.2"/>
<line class="st1" x1="10.9" y1="25.5" x2="10.9" y2="39.9"/>
<line class="st1" x1="13.5" y1="25.7" x2="13.5" y2="39.8"/>
<line class="st1" x1="16.3" y1="25.7" x2="16.3" y2="39.8"/>
<line class="st1" x1="19.4" y1="25.6" x2="19.4" y2="39.7"/>
<line class="st1" x1="22.3" y1="25.7" x2="22.3" y2="39.8"/>
<line class="st1" x1="24.5" y1="25.4" x2="24.5" y2="39.9"/>
<line class="st1" x1="27.5" y1="25.9" x2="27.5" y2="39.9"/>
<path class="st1" d="M34.1,39.6"/>
<path class="st1" d="M34.1,25.5"/>
<line class="st1" x1="30.8" y1="25.5" x2="30.8" y2="39.6"/>
<path class="st1" d="M51.2,26.7"/>
<path class="st1" d="M22.9,26.5"/>
<path class="st1" d="M37.1,39.6"/>
<path class="st1" d="M37.1,25.5"/>
<path class="st1" d="M37.1,39.6"/>
<path class="st1" d="M37.1,25.5"/>
<path class="st1" d="M40.1,40.1"/>
<path class="st1" d="M40.1,26"/>
<path class="st1" d="M51.9,39.1"/>
<path class="st1" d="M22.2,38.8"/>
<path class="st1" d="M33.7,38.9"/>
<path class="st1" d="M33.7,26.8"/>
<path class="st1" d="M36.5,38.6"/>
<path class="st1" d="M36.4,26.5"/>
<path class="st1" d="M39.2,38.8"/>
<path class="st1" d="M39.1,26.7"/>
<path class="st1" d="M42.2,38.7"/>
<path class="st1" d="M42.1,26.6"/>
<path class="st1" d="M44.8,38.9"/>
<path class="st1" d="M44.8,26.8"/>
<path class="st1" d="M47.7,38.9"/>
<path class="st1" d="M47.6,26.8"/>
<path class="st1" d="M50.3,39.2"/>
<path class="st1" d="M50.2,27.1"/>
<path class="st1" d="M53.2,38.8"/>
<path class="st1" d="M53.1,26.7"/>
<path class="st0" d="M61.7,27.2"/>
<path class="st1" d="M44.4,27.5"/>
<path class="st1" d="M44.2,40.8"/>
<path class="st1" d="M44.1,28.7"/>
<path class="st0" d="M62,38.1"/>
<path class="st1" d="M44.7,38.4"/>
<path class="st1" d="M53.2,38.4"/>
<path class="st1" d="M53.2,27.9"/>
<path class="st1" d="M56.4,27.9"/>
<path class="st0" d="M54.8,37.9"/>
<path class="st0" d="M55,27.1"/>
<path class="st0" d="M57.8,37.9"/>
<path class="st0" d="M57.8,27.5"/>
<line class="st1" x1="34.4" y1="25.6" x2="34.4" y2="39.6"/>
<line class="st1" x1="37.7" y1="25.3" x2="37.7" y2="39.3"/>
<line class="st1" x1="34.6" y1="32.5" x2="51.1" y2="32.5"/>
<line class="st1" x1="40.8" y1="25.7" x2="40.8" y2="39.6"/>
<line class="st1" x1="51.9" y1="23.8" x2="51.9" y2="41"/>
</svg>
