<?xml version="1.0" encoding="utf-8"?>
<!-- Generator: Adobe Illustrator 23.0.0, SVG Export Plug-In . SVG Version: 6.00 Build 0)  -->
<svg version="1.1" id="图层_1" xmlns="http://www.w3.org/2000/svg" xmlns:xlink="http://www.w3.org/1999/xlink" x="0px" y="0px"
	 viewBox="0 0 64 64" style="enable-background:new 0 0 64 64;" xml:space="preserve">
<style type="text/css">
	.st0{fill:none;stroke:#E60012;stroke-width:3;stroke-miterlimit:10;}
	.st1{fill:none;stroke:#FF33FF;stroke-width:3;stroke-miterlimit:10;}
	.st2{fill:none;stroke:#FF0000;stroke-width:3;stroke-miterlimit:10;}
	.st3{fill:#FFFFFF;stroke:#E60012;stroke-width:3;stroke-miterlimit:10;}
	.st4{fill:none;stroke:#231815;stroke-width:3;stroke-miterlimit:10;}
	.st5{fill:none;stroke:#E60012;stroke-miterlimit:10;}
	.st6{fill:#FFFFFF;stroke:#FF00FF;stroke-width:3;stroke-miterlimit:10;}
	.st7{fill:none;stroke:#FF00FF;stroke-width:4;stroke-miterlimit:10;}
	.st8{fill:none;stroke:#FF00FF;stroke-width:3;stroke-miterlimit:10;}
</style>
<path class="st0" d="M44.3,45.8"/>
<path class="st0" d="M44.3,13.9"/>
<g>
	<path class="st0" d="M40.6,45.8"/>
</g>
<path class="st0" d="M24.4,31.9"/>
<path class="st0" d="M25.8,31.9"/>
<path class="st0" d="M24.4,31.9"/>
<path class="st0" d="M31.8,25.9"/>
<path class="st0" d="M25.8,25.9"/>
<path class="st0" d="M31.8,28.2"/>
<path class="st0" d="M25.8,28.2"/>
<path class="st0" d="M31.8,25.9"/>
<path class="st1" d="M14.6,38.3"/>
<path class="st1" d="M14.6,22"/>
<path class="st1" d="M20.8,35.6"/>
<path class="st1" d="M8.2,26.4"/>
<path class="st1" d="M10.1,36.9"/>
<path class="st1" d="M20.1,24"/>
<path class="st1" d="M25.8,35.6"/>
<path class="st1" d="M25.9,33.1"/>
<path class="st1" d="M30.6,35.6"/>
<path class="st1" d="M30.6,25.9"/>
<path class="st1" d="M34.7,35.6"/>
<path class="st1" d="M34.7,25.9"/>
<path class="st2" d="M26.1,24"/>
<path class="st2" d="M22.9,27.2"/>
<path class="st0" d="M17.5,23.1"/>
<path class="st0" d="M16.5,32.7"/>
<path class="st0" d="M25.1,23.1"/>
<path class="st0" d="M24.9,23.1"/>
<path class="st0" d="M24.9,23.1"/>
<path class="st0" d="M16.4,31.5"/>
<path class="st0" d="M26,32.4"/>
<path class="st0" d="M26,23.2"/>
<path class="st0" d="M16.4,23.6"/>
<path class="st3" d="M13.8,39.4"/>
<path class="st3" d="M29.1,26.4"/>
<path class="st3" d="M14.9,28.2"/>
<path class="st3" d="M12.9,24.9"/>
<path class="st4" d="M33.6,39.8"/>
<path class="st4" d="M33.7,23.1"/>
<path class="st4" d="M25.1,36.9"/>
<path class="st4" d="M29,39.3"/>
<path class="st4" d="M31.1,39.5"/>
<path class="st0" d="M12.9,35.6"/>
<path class="st0" d="M8.6,20.2"/>
<path class="st0" d="M8.6,35.6"/>
<path class="st0" d="M27.7,36.1"/>
<path class="st0" d="M23.4,36.1"/>
<path class="st0" d="M24.4,36.1"/>
<path class="st0" d="M11.2,39.8"/>
<path class="st0" d="M10.8,39.3"/>
<path class="st0" d="M13.8,35.6"/>
<path class="st0" d="M26,40.3"/>
<path class="st0" d="M23.4,36.1"/>
<path class="st0" d="M26.1,39.5"/>
<path class="st0" d="M28.6,36.1"/>
<line class="st0" x1="25.1" y1="39" x2="25.1" y2="39"/>
<path class="st0" d="M25.4,39.5"/>
<path class="st0" d="M14.9,29.9"/>
<path class="st0" d="M14.9,23.1"/>
<path class="st0" d="M29.8,30.3"/>
<path class="st0" d="M29.8,23.5"/>
<path class="st0" d="M14.1,19.3"/>
<path class="st0" d="M8.1,19.3"/>
<path class="st0" d="M24.6,36.2"/>
<path class="st0" d="M26.8,29.8"/>
<path class="st0" d="M35.5,35.6"/>
<path class="st0" d="M27,29"/>
<path class="st3" d="M30.2,40.3"/>
<path class="st3" d="M18.7,40.3"/>
<path class="st3" d="M41.5,25.1"/>
<line class="st0" x1="46.2" y1="25.2" x2="46.2" y2="25.2"/>
<path class="st0" d="M29.1,20.2"/>
<path class="st5" d="M0.8,25"/>
<path class="st0" d="M29.1,37.8"/>
<path class="st5" d="M1.2,39.2"/>
<path class="st5" d="M3.4,39.6"/>
<path class="st5" d="M3.4,25"/>
<path class="st5" d="M6.4,39.3"/>
<path class="st5" d="M6.4,24.9"/>
<path class="st0" d="M5.6,37.8"/>
<path class="st0" d="M5.6,20.4"/>
<path class="st0" d="M9.1,37.8"/>
<path class="st0" d="M9.1,20.4"/>
<path class="st0" d="M12.9,37.7"/>
<path class="st0" d="M12.9,20.2"/>
<path class="st0" d="M16.5,37.8"/>
<path class="st0" d="M16.5,20.4"/>
<path class="st0" d="M19.2,37.9"/>
<path class="st0" d="M19.2,20"/>
<path class="st0" d="M22.9,37.9"/>
<path class="st0" d="M22.9,20.6"/>
<path class="st0" d="M31.1,37.6"/>
<path class="st0" d="M31.1,20.1"/>
<path class="st0" d="M27,37.6"/>
<path class="st0" d="M27,20.1"/>
<path class="st0" d="M52.2,21.6"/>
<path class="st0" d="M17.2,21.4"/>
<path class="st0" d="M34.8,37.6"/>
<path class="st0" d="M34.8,20.1"/>
<path class="st0" d="M34.8,37.6"/>
<path class="st0" d="M34.8,20.1"/>
<path class="st0" d="M38.5,38.2"/>
<path class="st0" d="M38.5,20.7"/>
<path class="st0" d="M53.1,36.9"/>
<path class="st0" d="M16.4,36.6"/>
<path class="st0" d="M30.6,36.7"/>
<path class="st0" d="M30.6,21.7"/>
<path class="st0" d="M34,36.3"/>
<path class="st0" d="M33.9,21.4"/>
<path class="st0" d="M37.4,36.6"/>
<path class="st0" d="M37.3,21.6"/>
<path class="st0" d="M41.1,36.4"/>
<path class="st0" d="M41,21.5"/>
<path class="st0" d="M44.3,36.7"/>
<path class="st0" d="M44.3,21.7"/>
<path class="st0" d="M47.9,36.7"/>
<path class="st0" d="M47.8,21.7"/>
<path class="st0" d="M51.1,37.1"/>
<path class="st0" d="M51,22.1"/>
<path class="st0" d="M54.7,36.6"/>
<path class="st0" d="M54.6,21.6"/>
<path class="st5" d="M61.7,27.2"/>
<path class="st0" d="M43.8,22.6"/>
<path class="st0" d="M43.6,39"/>
<path class="st0" d="M43.4,24.1"/>
<path class="st5" d="M62,38.1"/>
<path class="st0" d="M44.2,36.1"/>
<path class="st0" d="M54.7,36.1"/>
<path class="st0" d="M54.7,23.1"/>
<path class="st0" d="M58.7,36.1"/>
<path class="st0" d="M58.7,23.1"/>
<path class="st0" d="M62.2,36.2"/>
<path class="st0" d="M62.5,22.8"/>
<path class="st5" d="M57.8,37.9"/>
<path class="st5" d="M57.8,27.5"/>
<path class="st0" d="M50.2,24.6"/>
<path class="st0" d="M41.1,33.7"/>
<line class="st0" x1="51.5" y1="27.2" x2="51.5" y2="27.2"/>
<path class="st0" d="M20.8,49.7"/>
<path class="st0" d="M35.2,25.2"/>
<path class="st5" d="M45.1,49.8"/>
<path class="st0" d="M35.2,25.3"/>
<path class="st0" d="M35.2,43.2"/>
<path class="st0" d="M35.2,25.2"/>
<line class="st0" x1="23.4" y1="27.8" x2="23.4" y2="27.8"/>
<line class="st0" x1="41.5" y1="19.5" x2="41.5" y2="19.5"/>
<line class="st0" x1="21.1" y1="29.8" x2="21.1" y2="29.8"/>
<circle class="st6" cx="18.1" cy="28.9" r="9.4"/>
<rect x="8" y="18.8" class="st7" width="20.4" height="20.4"/>
<rect x="28.6" y="22.1" class="st8" width="26.7" height="13.7"/>
<line class="st8" x1="31.1" y1="22.2" x2="31.1" y2="36"/>
<line class="st8" x1="34.2" y1="22.1" x2="34.2" y2="35.8"/>
<line class="st8" x1="36.9" y1="22.2" x2="36.9" y2="36"/>
<line class="st8" x1="39.7" y1="22.2" x2="39.7" y2="36"/>
<line class="st8" x1="42.5" y1="22.2" x2="42.5" y2="36"/>
<line class="st8" x1="45.5" y1="22.1" x2="45.5" y2="35.8"/>
<line class="st8" x1="48.3" y1="22.2" x2="48.3" y2="36"/>
<line class="st8" x1="51.1" y1="22.1" x2="51.1" y2="35.8"/>
<circle class="st8" cx="18.1" cy="28.9" r="3.1"/>
</svg>
