<?xml version="1.0" encoding="utf-8"?>
<!-- Generator: Adobe Illustrator 23.0.0, SVG Export Plug-In . SVG Version: 6.00 Build 0)  -->
<svg version="1.1" id="图层_1" xmlns="http://www.w3.org/2000/svg" xmlns:xlink="http://www.w3.org/1999/xlink" x="0px" y="0px"
	 viewBox="0 0 64 64" style="enable-background:new 0 0 64 64;" xml:space="preserve">
<style type="text/css">
	.st0{fill:none;stroke:#E60012;stroke-width:3;stroke-miterlimit:10;}
	.st1{fill:none;stroke:#FF33FF;stroke-width:3;stroke-miterlimit:10;}
	.st2{fill:none;stroke:#FF0000;stroke-width:3;stroke-miterlimit:10;}
	.st3{fill:#FFFFFF;stroke:#E60012;stroke-width:3;stroke-miterlimit:10;}
	.st4{fill:none;stroke:#231815;stroke-width:3;stroke-miterlimit:10;}
	.st5{fill:none;stroke:#E60012;stroke-miterlimit:10;}
	.st6{fill:none;stroke:#FF00FF;stroke-width:3;stroke-miterlimit:10;}
</style>
<path class="st0" d="M40.3,45.7"/>
<path class="st0" d="M39.2,21.7"/>
<g>
	<path class="st0" d="M37.3,45.7"/>
</g>
<path class="st0" d="M25.4,34"/>
<path class="st0" d="M26.4,34"/>
<path class="st0" d="M25.4,34"/>
<path class="st0" d="M30.5,29.9"/>
<path class="st0" d="M26.4,29.9"/>
<path class="st0" d="M30.5,31.5"/>
<path class="st0" d="M26.4,31.5"/>
<path class="st0" d="M30.5,29.9"/>
<path class="st1" d="M18.7,38.5"/>
<path class="st1" d="M18.7,27.2"/>
<path class="st1" d="M11.1,30"/>
<path class="st1" d="M12.6,38.5"/>
<path class="st1" d="M22.4,28.6"/>
<path class="st1" d="M26.4,36.6"/>
<path class="st1" d="M26.5,34.9"/>
<path class="st1" d="M29.7,36.6"/>
<path class="st1" d="M29.7,29.9"/>
<path class="st1" d="M32.5,36.6"/>
<path class="st1" d="M32.5,29.9"/>
<path class="st2" d="M26.6,28.6"/>
<path class="st2" d="M24.4,30.8"/>
<path class="st0" d="M20.6,28"/>
<path class="st0" d="M20,34.6"/>
<path class="st0" d="M25.9,28"/>
<path class="st0" d="M25.8,28"/>
<path class="st0" d="M25.8,28"/>
<path class="st0" d="M19.9,33.8"/>
<path class="st0" d="M26.5,34.4"/>
<path class="st0" d="M26.5,28.1"/>
<path class="st0" d="M19.9,28.3"/>
<path class="st3" d="M18.1,39.2"/>
<path class="st3" d="M28.7,30.3"/>
<path class="st3" d="M18.9,31.5"/>
<path class="st3" d="M17.5,29.3"/>
<path class="st4" d="M31.7,39.5"/>
<path class="st4" d="M31.8,28"/>
<path class="st4" d="M25.9,37.5"/>
<path class="st4" d="M28.6,39.2"/>
<path class="st4" d="M30,39.3"/>
<path class="st0" d="M17.5,36.6"/>
<path class="st0" d="M11.4,25"/>
<path class="st0" d="M11.4,37.4"/>
<path class="st0" d="M27.7,36.9"/>
<path class="st0" d="M24.7,36.9"/>
<path class="st0" d="M25.4,36.9"/>
<path class="st0" d="M13.5,40.8"/>
<path class="st0" d="M13.2,40.4"/>
<path class="st0" d="M18.1,36.6"/>
<path class="st0" d="M26.5,39.8"/>
<path class="st0" d="M24.7,36.9"/>
<path class="st0" d="M26.6,39.3"/>
<path class="st0" d="M28.3,36.9"/>
<line class="st0" x1="25.9" y1="39" x2="25.9" y2="39"/>
<path class="st0" d="M26.1,39.3"/>
<path class="st0" d="M18.9,32.7"/>
<path class="st0" d="M18.9,28"/>
<path class="st0" d="M29.2,32.9"/>
<path class="st0" d="M29.2,28.2"/>
<path class="st0" d="M18.3,25.3"/>
<path class="st0" d="M11,24.2"/>
<path class="st0" d="M25.6,37"/>
<path class="st0" d="M27,32.6"/>
<path class="st0" d="M33.1,36.6"/>
<path class="st0" d="M27.2,32.1"/>
<path class="st3" d="M29.4,39.8"/>
<path class="st3" d="M21.5,39.8"/>
<path class="st3" d="M37.2,29.3"/>
<line class="st0" x1="40.5" y1="29.4" x2="40.5" y2="29.4"/>
<path class="st0" d="M28.7,26"/>
<path class="st5" d="M0.8,25"/>
<path class="st0" d="M28.7,38.1"/>
<path class="st5" d="M1.2,39.2"/>
<path class="st5" d="M3.4,39.6"/>
<path class="st5" d="M3.4,25"/>
<path class="st5" d="M6.4,39.3"/>
<path class="st5" d="M6.4,24.9"/>
<path class="st0" d="M9,39.2"/>
<path class="st0" d="M9,25.1"/>
<path class="st0" d="M11.8,39.2"/>
<path class="st0" d="M11.8,25.1"/>
<path class="st0" d="M17.5,38"/>
<path class="st0" d="M17.5,26"/>
<path class="st0" d="M20,38.1"/>
<path class="st0" d="M20,26.1"/>
<path class="st0" d="M21.8,38.2"/>
<path class="st0" d="M21.8,25.8"/>
<path class="st0" d="M24.4,38.2"/>
<path class="st0" d="M24.4,26.3"/>
<path class="st0" d="M30,38"/>
<path class="st0" d="M30,25.9"/>
<path class="st0" d="M27.2,38"/>
<path class="st0" d="M27.2,25.9"/>
<path class="st0" d="M44.6,26.9"/>
<path class="st0" d="M20.5,26.8"/>
<path class="st0" d="M32.6,38"/>
<path class="st0" d="M32.6,25.9"/>
<path class="st0" d="M32.6,38"/>
<path class="st0" d="M32.6,25.9"/>
<path class="st0" d="M35.2,38.4"/>
<path class="st0" d="M35.2,26.4"/>
<path class="st0" d="M45.2,37.5"/>
<path class="st0" d="M19.9,37.3"/>
<path class="st0" d="M29.7,37.4"/>
<path class="st0" d="M29.7,27"/>
<path class="st0" d="M32.1,37.1"/>
<path class="st0" d="M32,26.8"/>
<path class="st0" d="M34.4,37.3"/>
<path class="st0" d="M34.3,26.9"/>
<path class="st0" d="M37,37.2"/>
<path class="st0" d="M36.9,26.9"/>
<path class="st0" d="M39.2,37.4"/>
<path class="st0" d="M39.2,27"/>
<path class="st0" d="M41.6,37.4"/>
<path class="st0" d="M41.6,27"/>
<path class="st0" d="M43.9,37.6"/>
<path class="st0" d="M43.8,27.3"/>
<path class="st0" d="M46.3,37.3"/>
<path class="st0" d="M46.3,26.9"/>
<path class="st5" d="M61.7,27.2"/>
<path class="st0" d="M38.8,27.6"/>
<path class="st0" d="M38.7,39"/>
<path class="st0" d="M38.6,28.7"/>
<path class="st5" d="M62,38.1"/>
<path class="st0" d="M39.1,36.9"/>
<path class="st0" d="M46.3,36.9"/>
<path class="st0" d="M46.3,28"/>
<path class="st0" d="M51.9,37.8"/>
<path class="st0" d="M51.9,27.3"/>
<path class="st0" d="M54.8,37.9"/>
<path class="st0" d="M55,27.1"/>
<path class="st5" d="M57.8,37.9"/>
<path class="st5" d="M57.8,27.5"/>
<path class="st0" d="M43.3,29"/>
<path class="st0" d="M37,35.3"/>
<line class="st0" x1="44.1" y1="30.8" x2="44.1" y2="30.8"/>
<path class="st0" d="M21.3,48.8"/>
<path class="st0" d="M32.9,29.4"/>
<path class="st0" d="M45.1,49.8"/>
<path class="st0" d="M32.9,29.5"/>
<path class="st0" d="M32.9,43.6"/>
<path class="st0" d="M32.9,29.4"/>
<line class="st0" x1="24.7" y1="31.2" x2="24.7" y2="31.2"/>
<line class="st0" x1="37.2" y1="25.5" x2="37.2" y2="25.5"/>
<line class="st0" x1="23.1" y1="32.6" x2="23.1" y2="32.6"/>
<path class="st6" d="M32.2,36.8"/>
<path class="st6" d="M32.2,27.3"/>
<path class="st6" d="M36,36.9"/>
<path class="st6" d="M36,27.4"/>
<path class="st6" d="M37.9,36.9"/>
<path class="st6" d="M37.9,27.4"/>
<path class="st6" d="M40,36.8"/>
<path class="st6" d="M40,27.3"/>
<path class="st6" d="M41.9,36.9"/>
<path class="st6" d="M41.9,27.4"/>
<path class="st6" d="M43.9,36.8"/>
<path class="st6" d="M43.9,27.3"/>
<path class="st0" d="M28.2,32"/>
<path class="st0" d="M32.9,26.2"/>
<path class="st0" d="M25.4,29"/>
<path class="st0" d="M29.7,29"/>
<path class="st0" d="M51.4,24.9"/>
<path class="st0" d="M44.4,30.2"/>
<path class="st0" d="M22.3,18.4"/>
<path class="st0" d="M18.7,35.5"/>
<rect x="12.5" y="18.6" class="st0" width="40.2" height="26.9"/>
<polyline class="st0" points="46.8,35.4 46.8,40.9 41.4,40.9 "/>
<polyline class="st0" points="17.7,27.6 17.7,22.3 23.2,22.3 "/>
<polyline class="st0" points="41.6,22.8 47,22.8 47,28.2 "/>
<polyline class="st0" points="22.9,40.4 17.5,40.4 17.5,34.9 "/>
<circle class="st0" cx="32.9" cy="32.1" r="2.7"/>
</svg>
