<?xml version="1.0" encoding="utf-8"?>
<!-- Generator: Adobe Illustrator 23.0.0, SVG Export Plug-In . SVG Version: 6.00 Build 0)  -->
<svg version="1.1" id="图层_1" xmlns="http://www.w3.org/2000/svg" xmlns:xlink="http://www.w3.org/1999/xlink" x="0px" y="0px"
	 viewBox="0 0 64 64" style="enable-background:new 0 0 64 64;" xml:space="preserve">
<style type="text/css">
	.st0{fill:none;stroke:#E60012;stroke-width:3;stroke-miterlimit:10;}
	.st1{fill:none;stroke:#FF33FF;stroke-width:3;stroke-miterlimit:10;}
	.st2{fill:none;stroke:#FF0000;stroke-width:3;stroke-miterlimit:10;}
	.st3{fill:#FFFFFF;stroke:#E60012;stroke-width:3;stroke-miterlimit:10;}
	.st4{fill:none;stroke:#231815;stroke-width:3;stroke-miterlimit:10;}
</style>
<path class="st0" d="M40.3,45.7"/>
<path class="st0" d="M40.3,19.9"/>
<g>
	<path class="st0" d="M37.3,45.7"/>
</g>
<path class="st0" d="M24.2,34.4"/>
<path class="st0" d="M25.3,34.4"/>
<path class="st0" d="M24.2,34.4"/>
<path class="st0" d="M30.2,29.6"/>
<path class="st0" d="M25.3,29.6"/>
<path class="st0" d="M30.2,31.4"/>
<path class="st0" d="M25.3,31.4"/>
<path class="st0" d="M30.2,31.4"/>
<path class="st0" d="M30.2,29.6"/>
<path class="st1" d="M16.3,39.6"/>
<path class="st1" d="M16.3,26.4"/>
<path class="st1" d="M21.3,37.4"/>
<path class="st1" d="M11.1,30"/>
<path class="st1" d="M12.6,38.5"/>
<path class="st1" d="M20.7,28"/>
<path class="st1" d="M25.3,37.4"/>
<path class="st1" d="M25.4,35.4"/>
<path class="st1" d="M29.2,37.4"/>
<path class="st1" d="M29.2,29.6"/>
<path class="st1" d="M32.5,37.4"/>
<path class="st1" d="M32.5,29.6"/>
<path class="st2" d="M25.6,28"/>
<path class="st2" d="M23,30.6"/>
<path class="st0" d="M18.6,27.3"/>
<path class="st0" d="M17.8,35.1"/>
<path class="st0" d="M24.8,27.3"/>
<path class="st0" d="M24.6,27.3"/>
<path class="st0" d="M24.6,27.3"/>
<path class="st0" d="M17.7,34.1"/>
<path class="st0" d="M25.5,34.8"/>
<path class="st0" d="M25.5,27.4"/>
<path class="st0" d="M17.7,27.7"/>
<path class="st3" d="M15.6,40.5"/>
<path class="st3" d="M28,30"/>
<path class="st3" d="M16.5,31.4"/>
<path class="st3" d="M14.9,28.8"/>
<path class="st4" d="M31.6,40.8"/>
<path class="st4" d="M31.7,27.3"/>
<path class="st4" d="M24.8,38.5"/>
<path class="st4" d="M27.9,40.4"/>
<path class="st4" d="M29.6,40.6"/>
<path class="st0" d="M14.9,37.4"/>
<path class="st0" d="M11.4,25"/>
<path class="st0" d="M11.4,37.4"/>
<path class="st0" d="M26.9,37.8"/>
<path class="st0" d="M23.4,37.8"/>
<path class="st0" d="M24.2,37.8"/>
<path class="st0" d="M13.5,40.8"/>
<path class="st0" d="M13.2,40.4"/>
<path class="st0" d="M15.6,37.4"/>
<path class="st0" d="M25.5,41.2"/>
<path class="st0" d="M23.4,37.8"/>
<path class="st0" d="M25.6,40.6"/>
<path class="st0" d="M27.6,37.8"/>
<line class="st0" x1="24.8" y1="40.2" x2="24.8" y2="40.2"/>
<path class="st0" d="M25,40.6"/>
<path class="st0" d="M16.5,32.8"/>
<path class="st0" d="M16.5,27.3"/>
<path class="st0" d="M28.6,33.1"/>
<path class="st0" d="M28.6,27.6"/>
<path class="st0" d="M15.9,24.2"/>
<path class="st0" d="M11,24.2"/>
<path class="st0" d="M24.4,37.9"/>
<path class="st0" d="M26.1,32.7"/>
<path class="st0" d="M33.2,37.4"/>
<path class="st0" d="M26.3,32.1"/>
<path class="st3" d="M28.9,41.2"/>
<path class="st3" d="M19.6,41.2"/>
<path class="st3" d="M38,28.9"/>
<path class="st3" d="M38,28.3c10.6,0,19.1,1.6,19.1,3.6s-8.6,3.6-19.1,3.6"/>
<line class="st0" x1="38" y1="24.5" x2="38" y2="39.6"/>
<line class="st0" x1="41.8" y1="29" x2="41.8" y2="29"/>
<line class="st0" x1="40.1" y1="23.4" x2="37.7" y2="25.2"/>
<line class="st0" x1="37.7" y1="39" x2="40.5" y2="40.2"/>
<rect x="35.5" y="30.6" class="st0" width="2.5" height="2.9"/>
<path class="st0" d="M32.9,35.8L32.9,35.8c-1.4,0-2.5-1.1-2.5-2.5v-2.7c0-1.4,1.1-2.5,2.5-2.5l0,0c1.4,0,2.5,1.1,2.5,2.5v2.7
	C35.4,34.7,34.2,35.8,32.9,35.8z"/>
<path class="st0" d="M30.2,31.4C25.6,29.1,8,40,9.5,45"/>
</svg>
