<?xml version="1.0" encoding="utf-8"?>
<!-- Generator: Adobe Illustrator 23.0.0, SVG Export Plug-In . SVG Version: 6.00 Build 0)  -->
<svg version="1.1" id="图层_1" xmlns="http://www.w3.org/2000/svg" xmlns:xlink="http://www.w3.org/1999/xlink" x="0px" y="0px"
	 viewBox="0 0 64 64" style="enable-background:new 0 0 64 64;" xml:space="preserve">
<style type="text/css">
	.st0{fill:none;stroke:#E60012;stroke-miterlimit:10;}
	.st1{fill:none;stroke:#E60012;stroke-width:3;stroke-miterlimit:10;}
	.st2{fill:none;stroke:#FF33FF;stroke-width:3;stroke-miterlimit:10;}
	.st3{fill:none;stroke:#FF0000;stroke-width:3;stroke-miterlimit:10;}
	.st4{fill:#FFFFFF;stroke:#E60012;stroke-width:3;stroke-miterlimit:10;}
	.st5{fill:none;stroke:#231815;stroke-width:3;stroke-miterlimit:10;}
	.st6{fill:none;stroke:#FF00FF;stroke-width:3;stroke-miterlimit:10;}
	.st7{fill:none;stroke:#E60012;stroke-width:4;stroke-miterlimit:10;}
</style>
<path class="st0" d="M40.3,45.7"/>
<path class="st1" d="M35.2,9.6"/>
<g>
	<path class="st0" d="M37.3,45.7"/>
</g>
<path class="st1" d="M12.1,30.4"/>
<path class="st1" d="M13.7,30.4"/>
<path class="st1" d="M12.1,30.4"/>
<path class="st1" d="M20.8,23.5"/>
<path class="st1" d="M13.7,23.5"/>
<path class="st1" d="M20.8,26.1"/>
<path class="st1" d="M13.7,26.1"/>
<path class="st1" d="M20.8,23.5"/>
<path class="st2" d="M16.3,39.6"/>
<path class="st2" d="M16.3,26.4"/>
<path class="st2" d="M11.1,30"/>
<path class="st2" d="M12.6,38.5"/>
<path class="st2" d="M20.7,28"/>
<path class="st2" d="M13.7,34.7"/>
<path class="st2" d="M13.9,31.8"/>
<path class="st2" d="M19.3,34.7"/>
<path class="st2" d="M19.3,23.5"/>
<path class="st2" d="M24.1,34.7"/>
<path class="st2" d="M24.1,23.5"/>
<path class="st3" d="M14.1,21.2"/>
<path class="st3" d="M23,30.6"/>
<path class="st1" d="M18.6,27.3"/>
<path class="st1" d="M17.8,35.1"/>
<path class="st1" d="M13,20.2"/>
<path class="st1" d="M12.7,20.2"/>
<path class="st1" d="M12.7,20.2"/>
<path class="st1" d="M17.7,34.1"/>
<path class="st1" d="M14,31"/>
<path class="st1" d="M14,20.3"/>
<path class="st1" d="M17.7,27.7"/>
<path class="st4" d="M15.6,40.5"/>
<path class="st4" d="M17.6,24.1"/>
<path class="st4" d="M16.5,31.4"/>
<path class="st4" d="M14.9,28.8"/>
<path class="st5" d="M22.8,39.6"/>
<path class="st5" d="M22.9,20.2"/>
<path class="st5" d="M13,36.3"/>
<path class="st5" d="M17.4,39"/>
<path class="st5" d="M19.9,39.3"/>
<path class="st1" d="M14.9,37.4"/>
<path class="st1" d="M11.4,25"/>
<path class="st1" d="M11.4,37.4"/>
<path class="st1" d="M16,35.3"/>
<path class="st1" d="M23.4,37.8"/>
<path class="st1" d="M12.1,35.3"/>
<path class="st1" d="M13.5,40.8"/>
<path class="st1" d="M13.2,40.4"/>
<path class="st1" d="M15.6,37.4"/>
<path class="st1" d="M14,40.2"/>
<path class="st1" d="M23.4,37.8"/>
<path class="st1" d="M14.1,39.3"/>
<path class="st1" d="M17,35.3"/>
<line class="st1" x1="13" y1="38.7" x2="13" y2="38.7"/>
<path class="st1" d="M13.3,39.3"/>
<path class="st1" d="M16.5,32.8"/>
<path class="st1" d="M16.5,27.3"/>
<path class="st1" d="M18.5,28.5"/>
<path class="st1" d="M18.5,20.6"/>
<path class="st1" d="M15.9,24.2"/>
<path class="st1" d="M11,24.2"/>
<path class="st1" d="M12.4,35.4"/>
<path class="st1" d="M14.9,28"/>
<path class="st1" d="M25.1,34.7"/>
<path class="st1" d="M15.2,27.1"/>
<path class="st4" d="M18.9,40.2"/>
<path class="st4" d="M19.6,41.2"/>
<path class="st4" d="M31.9,22.5"/>
<line class="st1" x1="37.4" y1="22.6" x2="37.4" y2="22.6"/>
<path class="st1" d="M17.6,16.9"/>
<path class="st0" d="M0.8,25"/>
<path class="st1" d="M17.6,37.3"/>
<path class="st0" d="M1.2,39.2"/>
<path class="st0" d="M3.4,39.6"/>
<path class="st0" d="M3.4,25"/>
<path class="st0" d="M6.4,39.3"/>
<path class="st0" d="M6.4,24.9"/>
<path class="st1" d="M9,39.2"/>
<path class="st1" d="M9,25.1"/>
<path class="st1" d="M11.8,39.2"/>
<path class="st1" d="M11.8,25.1"/>
<path class="st1" d="M14.9,39.1"/>
<path class="st1" d="M14.9,25"/>
<path class="st1" d="M17.8,39.2"/>
<path class="st1" d="M17.8,25.1"/>
<path class="st1" d="M20,39.3"/>
<path class="st1" d="M20,24.8"/>
<path class="st1" d="M23,39.3"/>
<path class="st1" d="M23,25.3"/>
<path class="st1" d="M19.9,37"/>
<path class="st1" d="M19.9,16.8"/>
<path class="st1" d="M15.2,37"/>
<path class="st1" d="M15.2,16.8"/>
<path class="st1" d="M44.4,18.5"/>
<path class="st1" d="M18.4,25.9"/>
<path class="st1" d="M24.2,37"/>
<path class="st1" d="M24.2,16.8"/>
<path class="st1" d="M24.2,37"/>
<path class="st1" d="M24.2,16.8"/>
<path class="st1" d="M28.5,37.7"/>
<path class="st1" d="M28.5,17.5"/>
<path class="st1" d="M45.4,36.3"/>
<path class="st1" d="M17.7,38.2"/>
<path class="st1" d="M19.3,36"/>
<path class="st1" d="M19.3,18.6"/>
<path class="st1" d="M23.3,35.6"/>
<path class="st1" d="M23.2,18.2"/>
<path class="st1" d="M27.2,35.8"/>
<path class="st1" d="M27.1,18.5"/>
<path class="st1" d="M31.5,35.7"/>
<path class="st1" d="M31.4,18.3"/>
<path class="st1" d="M35.2,36"/>
<path class="st1" d="M35.2,18.6"/>
<path class="st1" d="M39.4,36"/>
<path class="st1" d="M39.3,18.6"/>
<path class="st1" d="M43.1,36.4"/>
<path class="st1" d="M43,19.1"/>
<path class="st1" d="M47.3,35.8"/>
<path class="st1" d="M47.2,18.5"/>
<path class="st0" d="M61.7,27.2"/>
<path class="st1" d="M34.7,19.6"/>
<path class="st1" d="M34.4,38.7"/>
<path class="st1" d="M34.2,21.4"/>
<path class="st0" d="M62,38.1"/>
<path class="st1" d="M35.1,35.3"/>
<path class="st1" d="M47.3,35.3"/>
<path class="st1" d="M47.3,20.2"/>
<path class="st1" d="M51.9,35.3"/>
<path class="st1" d="M51.9,20.2"/>
<path class="st1" d="M54.8,37.9"/>
<path class="st1" d="M55,27.1"/>
<path class="st1" d="M57.8,37.9"/>
<path class="st1" d="M57.8,27.5"/>
<path class="st1" d="M42.1,21.9"/>
<path class="st1" d="M31.5,32.5"/>
<line class="st1" x1="43.6" y1="24.9" x2="43.6" y2="24.9"/>
<path class="st0" d="M21.3,48.8"/>
<path class="st1" d="M24.6,22.6"/>
<path class="st0" d="M45.1,49.8"/>
<path class="st1" d="M24.6,22.8"/>
<path class="st1" d="M24.6,43.6"/>
<path class="st1" d="M24.6,22.6"/>
<line class="st1" x1="23.4" y1="31.1" x2="23.4" y2="31.1"/>
<line class="st1" x1="31.9" y1="16" x2="31.9" y2="16"/>
<line class="st1" x1="21.5" y1="32.7" x2="21.5" y2="32.7"/>
<path class="st6" d="M23.5,35"/>
<path class="st6" d="M23.5,19.1"/>
<path class="st6" d="M29.9,35.1"/>
<path class="st6" d="M29.9,19.2"/>
<path class="st6" d="M33.1,35.1"/>
<path class="st6" d="M33.1,19.2"/>
<path class="st6" d="M36.7,35"/>
<path class="st6" d="M36.7,19.1"/>
<path class="st6" d="M39.8,35.1"/>
<path class="st6" d="M39.8,19.2"/>
<path class="st6" d="M43.1,35"/>
<path class="st6" d="M43.1,19.1"/>
<path class="st1" d="M16.7,26.9"/>
<rect x="21.9" y="39.6" class="st1" width="5.5" height="1"/>
<path class="st1" d="M28.4,28.5c0,6-1.7,10.8-3.7,10.8s-3.7-4.9-3.7-10.8"/>
<path class="st1" d="M24.6,17.2"/>
<path class="st1" d="M12.1,21.9"/>
<path class="st1" d="M19.3,21.9"/>
<polyline class="st1" points="20.9,28.7 20.9,7.7 28.5,7.7 28.5,28.7 "/>
<path class="st7" d="M26.2,38.3c8.6,0.9,16.7-9.9,18.2-24.1"/>
<circle class="st1" cx="44.9" cy="11.6" r="2.7"/>
</svg>
