<?xml version="1.0" encoding="utf-8"?>
<!-- Generator: Adobe Illustrator 23.0.0, SVG Export Plug-In . SVG Version: 6.00 Build 0)  -->
<svg version="1.1" id="图层_1" xmlns="http://www.w3.org/2000/svg" xmlns:xlink="http://www.w3.org/1999/xlink" x="0px" y="0px"
	 viewBox="0 0 64 64" style="enable-background:new 0 0 64 64;" xml:space="preserve">
<style type="text/css">
	.st0{fill:none;stroke:#E60012;stroke-miterlimit:10;}
	.st1{fill:none;stroke:#E60012;stroke-width:3;stroke-miterlimit:10;}
	.st2{fill:none;stroke:#FF33FF;stroke-miterlimit:10;}
	.st3{fill:none;stroke:#FF33FF;stroke-width:3;stroke-miterlimit:10;}
	.st4{fill:none;stroke:#FF0000;stroke-width:3;stroke-miterlimit:10;}
	.st5{fill:#FFFFFF;stroke:#E60012;stroke-miterlimit:10;}
	.st6{fill:#FFFFFF;stroke:#E60012;stroke-width:3;stroke-miterlimit:10;}
	.st7{fill:none;stroke:#231815;stroke-miterlimit:10;}
	.st8{fill:none;stroke:#231815;stroke-width:3;stroke-miterlimit:10;}
	.st9{fill:#FFFFFF;stroke:#E60012;stroke-width:0.5;stroke-miterlimit:10;}
	.st10{fill:none;stroke:#E60012;stroke-width:0.5;stroke-miterlimit:10;}
	.st11{fill:none;stroke:#FF00FF;stroke-width:0.5;stroke-miterlimit:10;}
	.st12{fill:none;stroke:#E60012;stroke-width:4;stroke-miterlimit:10;}
</style>
<path class="st0" d="M40.3,45.7"/>
<path class="st0" d="M40.3,19.9"/>
<g>
	<path class="st0" d="M37.3,45.7"/>
</g>
<path class="st1" d="M23.3,33.2"/>
<path class="st1" d="M24.1,33.2"/>
<path class="st1" d="M23.3,33.2"/>
<path class="st1" d="M28,29.5"/>
<path class="st1" d="M24.1,29.5"/>
<path class="st1" d="M28,30.9"/>
<path class="st1" d="M24.1,30.9"/>
<path class="st1" d="M28,29.5"/>
<path class="st2" d="M8.8,37.4"/>
<path class="st2" d="M8.8,24.2"/>
<path class="st2" d="M21,35.6"/>
<path class="st2" d="M11.1,30"/>
<path class="st2" d="M12.6,38.5"/>
<path class="st3" d="M20.5,28.2"/>
<path class="st2" d="M24.1,35.6"/>
<path class="st3" d="M24.2,34"/>
<path class="st2" d="M27.2,35.6"/>
<path class="st3" d="M27.2,29.5"/>
<path class="st2" d="M29.8,35.6"/>
<path class="st3" d="M29.8,29.5"/>
<path class="st4" d="M24.4,28.2"/>
<path class="st4" d="M22.3,30.2"/>
<path class="st0" d="M18.8,27.7"/>
<path class="st0" d="M18.2,33.8"/>
<path class="st1" d="M23.7,27.7"/>
<path class="st1" d="M23.6,27.7"/>
<path class="st1" d="M23.6,27.7"/>
<path class="st0" d="M18.1,33"/>
<path class="st1" d="M24.3,33.6"/>
<path class="st1" d="M24.3,27.7"/>
<path class="st0" d="M18.1,28"/>
<path class="st5" d="M15.6,40.5"/>
<path class="st6" d="M26.2,29.8"/>
<path class="st5" d="M9,29.2"/>
<path class="st5" d="M14.9,28.8"/>
<path class="st7" d="M24.1,38.6"/>
<path class="st8" d="M29.2,27.7"/>
<path class="st7" d="M23.7,36.5"/>
<path class="st7" d="M20.4,38.2"/>
<path class="st7" d="M22.1,38.4"/>
<path class="st0" d="M14.9,37.4"/>
<path class="st0" d="M11.4,25"/>
<path class="st0" d="M11.4,37.4"/>
<path class="st0" d="M25.4,35.9"/>
<path class="st0" d="M22.6,35.9"/>
<path class="st0" d="M23.3,35.9"/>
<path class="st0" d="M13.5,40.8"/>
<path class="st0" d="M13.2,40.4"/>
<path class="st0" d="M15.6,37.4"/>
<path class="st0" d="M18,39"/>
<path class="st0" d="M22.6,35.9"/>
<path class="st0" d="M18.1,38.4"/>
<path class="st0" d="M25.9,35.9"/>
<line class="st0" x1="17.3" y1="38" x2="17.3" y2="38"/>
<path class="st0" d="M17.5,38.4"/>
<path class="st0" d="M9,30.6"/>
<path class="st0" d="M9,25.1"/>
<path class="st1" d="M26.7,32.2"/>
<path class="st1" d="M26.7,27.9"/>
<path class="st0" d="M15.9,24.2"/>
<path class="st0" d="M11,24.2"/>
<path class="st0" d="M23.4,36"/>
<path class="st1" d="M24.7,31.9"/>
<path class="st0" d="M30.3,35.6"/>
<path class="st1" d="M24.9,31.4"/>
<path class="st9" d="M21.4,39"/>
<path class="st9" d="M12.1,39"/>
<path class="st6" d="M34.1,28.9"/>
<line class="st1" x1="37.1" y1="29" x2="37.1" y2="29"/>
<path class="st0" d="M20.5,22.8"/>
<path class="st0" d="M0.8,25"/>
<path class="st0" d="M26.2,37"/>
<path class="st0" d="M1.2,39.2"/>
<path class="st0" d="M3.4,39.6"/>
<path class="st0" d="M3.4,25"/>
<path class="st0" d="M6.4,39.3"/>
<path class="st0" d="M6.4,24.9"/>
<path class="st0" d="M9,39.2"/>
<path class="st0" d="M9,25.1"/>
<path class="st0" d="M11.8,39.2"/>
<path class="st0" d="M11.8,25.1"/>
<path class="st0" d="M14.9,39.1"/>
<path class="st0" d="M14.9,25"/>
<path class="st0" d="M18.2,37"/>
<path class="st0" d="M10.3,22.9"/>
<path class="st0" d="M19.9,37.1"/>
<path class="st0" d="M12.5,22.6"/>
<path class="st0" d="M22.3,37.1"/>
<path class="st0" d="M15.5,23.1"/>
<path class="st0" d="M27.5,36.9"/>
<path class="st0" d="M22.1,22.7"/>
<path class="st0" d="M24.9,36.9"/>
<path class="st0" d="M18.8,22.7"/>
<path class="st0" d="M41,26.7"/>
<path class="st0" d="M18.7,26.6"/>
<path class="st0" d="M29.9,36.9"/>
<path class="st0" d="M25.1,22.7"/>
<path class="st0" d="M29.9,36.9"/>
<path class="st0" d="M25.1,22.7"/>
<path class="st0" d="M32.2,37.3"/>
<path class="st0" d="M28.1,23.2"/>
<path class="st0" d="M41.5,36.5"/>
<path class="st0" d="M18.1,36.2"/>
<path class="st0" d="M27.2,36.3"/>
<path class="st0" d="M27.2,26.8"/>
<path class="st0" d="M29.4,36.1"/>
<path class="st0" d="M29.3,26.6"/>
<path class="st0" d="M31.5,36.2"/>
<path class="st0" d="M31.4,26.7"/>
<path class="st0" d="M33.9,36.1"/>
<path class="st0" d="M33.8,26.6"/>
<path class="st0" d="M35.9,36.3"/>
<path class="st0" d="M35.9,26.8"/>
<path class="st0" d="M38.2,36.3"/>
<path class="st0" d="M38.1,26.8"/>
<path class="st0" d="M40.2,36.5"/>
<path class="st0" d="M40.2,27"/>
<path class="st0" d="M42.5,36.2"/>
<path class="st0" d="M42.4,26.7"/>
<path class="st0" d="M54.2,25"/>
<path class="st1" d="M35.6,27.3"/>
<path class="st0" d="M32.2,38"/>
<path class="st1" d="M35.4,28.3"/>
<path class="st0" d="M54.5,35.9"/>
<path class="st0" d="M35.8,35.9"/>
<path class="st0" d="M42.5,35.9"/>
<path class="st1" d="M42.5,27.7"/>
<path class="st0" d="M45,35.9"/>
<path class="st1" d="M45,27.7"/>
<path class="st0" d="M47.3,36"/>
<path class="st1" d="M47.5,27.5"/>
<path class="st0" d="M50.3,35.7"/>
<path class="st0" d="M50.3,25.3"/>
<path class="st1" d="M39.7,28.6"/>
<path class="st1" d="M33.9,34.4"/>
<line class="st1" x1="40.5" y1="30.2" x2="40.5" y2="30.2"/>
<path class="st0" d="M21.3,48.8"/>
<path class="st1" d="M30.1,29"/>
<path class="st0" d="M45.1,49.8"/>
<path class="st1" d="M30.1,29.1"/>
<path class="st0" d="M25.4,41.4"/>
<path class="st1" d="M30.1,29"/>
<line class="st1" x1="22.6" y1="30.6" x2="22.6" y2="30.6"/>
<line class="st10" x1="30.5" y1="22.2" x2="30.5" y2="22.2"/>
<line class="st1" x1="21.1" y1="31.9" x2="21.1" y2="31.9"/>
<path class="st11" d="M29.5,35.8"/>
<path class="st11" d="M29.5,27"/>
<path class="st11" d="M33,35.8"/>
<path class="st11" d="M33,27.1"/>
<path class="st11" d="M34.7,35.8"/>
<path class="st11" d="M34.7,27.1"/>
<path class="st11" d="M36.7,35.8"/>
<path class="st11" d="M36.7,27"/>
<path class="st11" d="M38.4,35.8"/>
<path class="st11" d="M38.4,27.1"/>
<path class="st11" d="M40.2,35.8"/>
<path class="st11" d="M40.2,27"/>
<rect x="17.1" y="25.9" class="st1" width="8.7" height="8.7"/>
<path class="st1" d="M25.8,31.3"/>
<path class="st1" d="M26.1,27.7h21.8c2.8,0,3.7,1.1,3.7,2.5l0,0c0,1.4-0.9,2.5-2,2.5H25.9"/>
<path class="st12" d="M15.8,32.6c-2,0-3.6-1-3.6-2.4c0-1.3,1.6-2.4,3.6-2.4"/>
</svg>
