<?xml version="1.0" encoding="utf-8"?>
<!-- Generator: Adobe Illustrator 23.0.0, SVG Export Plug-In . SVG Version: 6.00 Build 0)  -->
<svg version="1.1" id="图层_1" xmlns="http://www.w3.org/2000/svg" xmlns:xlink="http://www.w3.org/1999/xlink" x="0px" y="0px"
	 viewBox="0 0 64 64" style="enable-background:new 0 0 64 64;" xml:space="preserve">
<style type="text/css">
	.st0{fill:none;stroke:#E60012;stroke-width:3;stroke-miterlimit:10;}
	.st1{fill:none;stroke:#E60012;stroke-miterlimit:10;}
	.st2{fill:#E60012;stroke:#E60012;stroke-miterlimit:10;}
	.st3{fill:#FFFFFF;stroke:#00FFFF;stroke-miterlimit:10;stroke-dasharray:1;}
	.st4{fill:#E60012;stroke:#E60012;stroke-width:3;stroke-miterlimit:10;}
	.st5{fill:#E60012;}
	.st6{font-family:'AdobeSongStd-Light-GBpc-EUC-H';}
	.st7{font-size:12px;}
	.st8{fill:#E60012;stroke:#FFFFFF;stroke-miterlimit:10;}
</style>
<polygon class="st0" points="5.9,19.9 58.2,19.9 58.2,26.1 58.2,45.7 31.7,45.7 5.9,45.7 "/>
<line class="st1" x1="40.3" y1="19.9" x2="40.3" y2="45.7"/>
<g>
	<rect x="37.3" y="19.9" class="st0" width="20.8" height="25.8"/>
</g>
<g>
	<polygon class="st2" points="40.3,45.4 58.1,41.6 58.1,24 55.7,23.5 40.3,20.2 	"/>
</g>
<path class="st1" d="M24.2,34.4"/>
<path class="st1" d="M25.3,34.4"/>
<path class="st1" d="M25.3,34.4"/>
<path class="st1" d="M24.2,34.4"/>
<path class="st1" d="M30.2,29.6"/>
<path class="st1" d="M25.3,29.6"/>
<path class="st1" d="M30.2,31.4"/>
<path class="st1" d="M25.3,31.4"/>
<path class="st1" d="M30.2,31.4"/>
<path class="st1" d="M30.2,29.6"/>
<path class="st1" d="M21.4,39"/>
<path class="st1" d="M21.4,25.2"/>
<line class="st1" x1="-622" y1="369.3" x2="-619.9" y2="367.2"/>
<line class="st1" x1="-651.1" y1="412.3" x2="-649" y2="410.2"/>
<path class="st1" d="M30.6,39"/>
<path class="st1" d="M30.6,25.2"/>
<path class="st3" d="M18.2,28.7"/>
<ellipse class="st4" cx="30.6" cy="32.1" rx="4" ry="4.1"/>
<text transform="matrix(1 0 0 1 7.8984 35.6215)" class="st5 st6 st7">A</text>
<text transform="matrix(1 0 0 1 7.8984 35.6215)" class="st1 st6 st7">A</text>
<text transform="matrix(1 0 0 1 16.8002 35.5756)" class="st5 st6 st7">B</text>
<text transform="matrix(1 0 0 1 16.8002 35.5756)" class="st1 st6 st7">B</text>
<circle class="st8" cx="30.6" cy="32.1" r="3.2"/>
</svg>
