<?xml version="1.0" encoding="utf-8"?>
<!-- Generator: Adobe Illustrator 23.0.0, SVG Export Plug-In . SVG Version: 6.00 Build 0)  -->
<svg version="1.1" id="图层_1" xmlns="http://www.w3.org/2000/svg" xmlns:xlink="http://www.w3.org/1999/xlink" x="0px" y="0px"
	 viewBox="0 0 64 64" style="enable-background:new 0 0 64 64;" xml:space="preserve">
<style type="text/css">
	.st0{fill:none;stroke:#E60012;stroke-width:2;stroke-miterlimit:10;}
	.st1{font-family:'SimSun';}
	.st2{font-size:14px;glyph-orientation-vertical:0;writing-mode:tb;}
	.st3{fill:none;stroke:#E60012;stroke-width:0.75;stroke-miterlimit:10;}
	.st4{fill:none;stroke:#FFFFFF;stroke-width:2;stroke-miterlimit:10;}
</style>
<rect x="19.1" y="24.7" class="st0" width="42.7" height="21.3"/>
<path class="st0" d="M39.6,46"/>
<line class="st0" x1="42.7" y1="24.7" x2="42.7" y2="32"/>
<g>
	<line class="st0" x1="47.2" y1="30.7" x2="47.2" y2="32.2"/>
	<polyline class="st0" points="47.2,37.5 47.2,45 61.8,42 61.8,28.4 47.2,25.4 47.2,30.7 	"/>
	<path class="st0" d="M43.8,34.9"/>
	<path class="st0" d="M43.8,30.6"/>
	<line class="st0" x1="43.8" y1="30.4" x2="43.8" y2="30.6"/>
	<path class="st0" d="M43.8,30.4"/>
</g>
<path class="st0" d="M23.5,34.7"/>
<path class="st0" d="M24.6,34.7"/>
<path class="st0" d="M24.6,34.7"/>
<path class="st0" d="M23.8,35.1"/>
<path class="st0" d="M29.5,29.9"/>
<path class="st0" d="M24.6,29.9"/>
<path class="st0" d="M29.5,31.7"/>
<path class="st0" d="M24.6,31.7"/>
<path class="st0" d="M29.5,31.7"/>
<path class="st0" d="M29.5,29.9"/>
<polyline class="st0" points="24.5,33.7 24.5,30 30.8,30 30.8,39.8 24.5,39.8 24.5,35 "/>
<rect x="27.5" y="32.5" class="st0" width="0.2" height="4.5"/>
<polyline class="st0" points="24.9,33.6 26.2,33.6 26.2,34.9 22.3,34.9 22.3,33.6 24.9,33.6 "/>
<polyline class="st0" points="47.6,33.1 30.8,33.1 30.8,32 47.3,32 "/>
<path class="st0" d="M39.7,30.3"/>
<polyline class="st0" points="47.3,32 56.6,32 56.6,33.1 47.3,33.1 "/>
<polyline class="st0" points="44.8,38.2 30.8,38.2 30.8,37.1 44.8,37.1 "/>
<polyline class="st0" points="44.8,37.1 56.6,37.1 56.6,38.2 44.8,38.2 "/>
<line class="st0" x1="56" y1="33.5" x2="56" y2="36.7"/>
<text transform="matrix(1 0 0 1 8.8333 20.3588)" class="st1 st2">三相</text>
<text transform="matrix(1 0 0 1 8.8333 20.3588)" class="st3 st1 st2">三相</text>
<line class="st0" x1="42.7" y1="38.2" x2="42.7" y2="46"/>
<line class="st4" x1="44.7" y1="29.7" x2="44.7" y2="30.8"/>
</svg>
