<?xml version="1.0" encoding="utf-8"?>
<!-- Generator: Adobe Illustrator 23.0.0, SVG Export Plug-In . SVG Version: 6.00 Build 0)  -->
<svg version="1.1" id="图层_1" xmlns="http://www.w3.org/2000/svg" xmlns:xlink="http://www.w3.org/1999/xlink" x="0px" y="0px"
	 viewBox="0 0 64 64" style="enable-background:new 0 0 64 64;" xml:space="preserve">
<style type="text/css">
	.st0{fill:none;stroke:#E60012;stroke-width:3;stroke-miterlimit:10;}
	.st1{fill:#E60012;stroke:#E60012;stroke-width:3;stroke-miterlimit:10;}
	.st2{fill:#E60012;stroke:#FFFFFF;stroke-width:3;stroke-miterlimit:10;}
</style>
<rect x="5.9" y="19.9" class="st0" width="52.3" height="25.8"/>
<path class="st0" d="M40.3,45.7"/>
<line class="st0" x1="40.3" y1="19.9" x2="40.3" y2="28.7"/>
<g>
	<path class="st0" d="M35.7,28.9"/>
	<line class="st0" x1="35.7" y1="30.3" x2="35.7" y2="29.7"/>
	<path class="st0" d="M35.7,30.3"/>
	<path class="st0" d="M35.7,34.5"/>
	<polyline class="st0" points="35.7,28.9 35.7,19.9 58.1,19.9 58.1,45.7 35.7,45.7 35.7,36.5 	"/>
</g>
<g>
	<line class="st0" x1="40.3" y1="27.5" x2="40.3" y2="29.2"/>
	<polyline class="st0" points="40.3,35.4 40.3,44.2 58.1,40.7 58.1,24.8 40.3,21.4 40.3,27.5 	"/>
	<path class="st0" d="M40.3,34.5"/>
	<path class="st0" d="M40.3,30.4"/>
	<line class="st0" x1="40.3" y1="30.2" x2="40.3" y2="30.4"/>
	<path class="st0" d="M40.3,30.2"/>
</g>
<path class="st0" d="M24.2,34.4"/>
<path class="st0" d="M25.3,34.4"/>
<path class="st0" d="M25.3,34.4"/>
<path class="st0" d="M24.2,34.4"/>
<path class="st0" d="M30.2,29.6"/>
<path class="st0" d="M25.3,29.6"/>
<path class="st0" d="M30.2,31.4"/>
<path class="st0" d="M25.3,31.4"/>
<path class="st0" d="M30.2,31.4"/>
<path class="st0" d="M30.2,29.6"/>
<line class="st0" x1="12.5" y1="32.3" x2="12.5" y2="32"/>
<polyline class="st0" points="11.5,30.8 11.5,26.3 20.2,26.3 20.2,38.2 11.5,38.2 11.5,32.3 "/>
<line class="st0" x1="12.5" y1="31" x2="12.5" y2="30.8"/>
<line class="st0" x1="12.5" y1="31.2" x2="12.5" y2="31"/>
<line class="st0" x1="12.5" y1="32" x2="12.5" y2="31.7"/>
<rect x="15.9" y="30" class="st1" width="0.3" height="4.1"/>
<polyline class="st1" points="12.8,31.1 14.6,31.1 14.6,32.6 9.3,32.6 9.3,31.1 12.8,31.1 "/>
<polyline class="st0" points="40.8,30 20.2,30 20.2,28.7 40.4,28.7 "/>
<path class="st0" d="M40.4,30"/>
<polyline class="st0" points="40.4,28.7 51.8,28.7 51.8,30 40.4,30 "/>
<polyline class="st0" points="37.3,36.2 20.2,36.2 20.2,34.9 37.3,34.9 "/>
<polyline class="st0" points="37.3,34.9 51.8,34.9 51.8,36.2 37.3,36.2 "/>
<line class="st0" x1="51" y1="30.5" x2="51.1" y2="34.4"/>
<line class="st2" x1="11.1" y1="31.9" x2="13.4" y2="31.9"/>
<rect x="10.8" y="31.2" class="st1" width="2.8" height="1.1"/>
</svg>
