<?xml version="1.0" encoding="utf-8"?>
<!-- Generator: Adobe Illustrator 23.0.0, SVG Export Plug-In . SVG Version: 6.00 Build 0)  -->
<svg version="1.1" id="图层_1" xmlns="http://www.w3.org/2000/svg" xmlns:xlink="http://www.w3.org/1999/xlink" x="0px" y="0px"
	 viewBox="0 0 64 64" style="enable-background:new 0 0 64 64;" xml:space="preserve">
<style type="text/css">
	.st0{fill:none;stroke:#E60012;stroke-width:3;stroke-miterlimit:10;}
	.st1{fill:#E60012;stroke:#E60012;stroke-width:3;stroke-miterlimit:10;}
	.st2{fill:none;stroke:#E60012;stroke-miterlimit:10;}
	.st3{fill:#FFFFFF;stroke:#00FFFF;stroke-miterlimit:10;stroke-dasharray:1;}
	.st4{fill:#E60012;}
	.st5{font-family:'AdobeSongStd-Light-GBpc-EUC-H';}
	.st6{font-size:12px;}
	.st7{font-size:7px;}
</style>
<rect x="5.9" y="19.9" class="st0" width="52.3" height="25.8"/>
<line class="st0" x1="40.3" y1="19.9" x2="40.3" y2="45.7"/>
<g>
	<rect x="34.9" y="19.9" class="st0" width="23.2" height="25.8"/>
</g>
<g>
	<polygon class="st1" points="40.3,43.2 58.1,40.1 58.1,25.7 40.3,22.7 	"/>
</g>
<path class="st2" d="M24.2,34.4"/>
<path class="st2" d="M25.3,34.4"/>
<path class="st2" d="M25.3,34.4"/>
<path class="st2" d="M24.2,34.4"/>
<path class="st2" d="M30.2,29.6"/>
<path class="st2" d="M25.3,29.6"/>
<path class="st2" d="M30.2,31.4"/>
<path class="st2" d="M25.3,31.4"/>
<path class="st2" d="M30.2,31.4"/>
<path class="st2" d="M30.2,29.6"/>
<path class="st0" d="M21.4,39"/>
<path class="st0" d="M21.4,25.2"/>
<line class="st2" x1="-622" y1="369.3" x2="-619.9" y2="367.2"/>
<line class="st2" x1="-651.1" y1="412.3" x2="-649" y2="410.2"/>
<path class="st0" d="M30.6,39"/>
<path class="st0" d="M30.6,25.2"/>
<path class="st3" d="M18.2,28.7"/>
<text transform="matrix(1 0 0 1 9.5984 35.3758)" class="st4 st5 st6">CO</text>
<text transform="matrix(1 0 0 1 9.5984 35.3758)" class="st2 st5 st6">CO</text>
<text transform="matrix(1 0 0 1 27.1984 35.3758)" class="st4 st5 st7">2</text>
<text transform="matrix(1 0 0 1 27.1984 35.3758)" class="st2 st5 st7">2</text>
</svg>
