<?xml version="1.0" encoding="utf-8"?>
<!-- Generator: Adobe Illustrator 23.0.0, SVG Export Plug-In . SVG Version: 6.00 Build 0)  -->
<svg version="1.1" id="图层_1" xmlns="http://www.w3.org/2000/svg" xmlns:xlink="http://www.w3.org/1999/xlink" x="0px" y="0px"
	 viewBox="0 0 64 64" style="enable-background:new 0 0 64 64;" xml:space="preserve">
<style type="text/css">
	.st0{fill:none;stroke:#E60012;stroke-width:3;stroke-miterlimit:10;}
	.st1{fill:none;stroke:#E60012;stroke-miterlimit:10;}
	.st2{fill:#E60012;stroke:#E60012;stroke-miterlimit:10;}
	.st3{fill:none;stroke:#FF33FF;stroke-miterlimit:10;}
	.st4{fill:none;stroke:#FF0000;stroke-miterlimit:10;}
	.st5{fill:#FFFFFF;stroke:#E60012;stroke-miterlimit:10;}
</style>
<rect x="5.9" y="19.9" class="st0" width="52.3" height="25.8"/>
<line class="st1" x1="40.3" y1="19.9" x2="40.3" y2="45.7"/>
<g>
	<rect x="37.3" y="19.9" class="st0" width="20.8" height="25.8"/>
</g>
<g>
	<polygon class="st2" points="40.3,43.6 56.8,40.3 56.8,25.1 40.3,21.8 	"/>
</g>
<path class="st1" d="M24.2,34.4"/>
<path class="st1" d="M25.3,34.4"/>
<path class="st1" d="M24.2,34.4"/>
<path class="st1" d="M30.2,29.6"/>
<path class="st1" d="M25.3,29.6"/>
<path class="st1" d="M30.2,31.4"/>
<path class="st1" d="M25.3,31.4"/>
<path class="st1" d="M30.2,31.4"/>
<path class="st1" d="M30.2,29.6"/>
<path class="st3" d="M16.3,39.6"/>
<path class="st3" d="M16.3,26.4"/>
<path class="st3" d="M21.3,37.4"/>
<path class="st3" d="M11.1,30"/>
<path class="st3" d="M12.6,38.5"/>
<path class="st3" d="M20.7,28"/>
<path class="st3" d="M25.3,37.4"/>
<path class="st3" d="M25.3,29.6"/>
<path class="st3" d="M29.2,37.4"/>
<path class="st3" d="M29.2,29.6"/>
<path class="st3" d="M32.5,37.4"/>
<path class="st3" d="M32.5,29.6"/>
<path class="st4" d="M25.6,28"/>
<path class="st4" d="M23,30.6"/>
<path class="st1" d="M18.6,27.3"/>
<path class="st1" d="M17.8,35.1"/>
<path class="st1" d="M24.8,27.3"/>
<path class="st1" d="M24.6,27.3"/>
<path class="st1" d="M24.6,27.3"/>
<path class="st1" d="M17.7,34.1"/>
<path class="st1" d="M25.5,34.8"/>
<path class="st1" d="M25.5,27.4"/>
<path class="st1" d="M17.7,27.7"/>
<path class="st5" d="M15.6,40.5"/>
<path class="st5" d="M28,30"/>
<path class="st5" d="M16.5,31.4"/>
<path class="st5" d="M14.9,28.8"/>
<rect x="9" y="22.7" class="st2" width="24.6" height="20.1"/>
</svg>
