<?xml version="1.0" encoding="utf-8"?>
<!-- Generator: Adobe Illustrator 23.0.0, SVG Export Plug-In . SVG Version: 6.00 Build 0)  -->
<svg version="1.1" id="图层_1" xmlns="http://www.w3.org/2000/svg" xmlns:xlink="http://www.w3.org/1999/xlink" x="0px" y="0px"
	 viewBox="0 0 64 64" style="enable-background:new 0 0 64 64;" xml:space="preserve">
<style type="text/css">
	.st0{fill:none;stroke:#E60012;stroke-width:3;stroke-miterlimit:10;}
	.st1{fill:#E60012;stroke:#E60012;stroke-width:3;stroke-miterlimit:10;}
	.st2{fill:none;stroke:#FF33FF;stroke-width:3;stroke-miterlimit:10;}
	.st3{fill:none;stroke:#FF0000;stroke-width:3;stroke-miterlimit:10;}
	.st4{fill:#FFFFFF;stroke:#E60012;stroke-width:3;stroke-miterlimit:10;}
	.st5{fill:#231815;stroke:#231815;stroke-width:3;stroke-miterlimit:10;}
	.st6{fill:#FFFFFF;stroke:#231815;stroke-width:3;stroke-miterlimit:10;}
	.st7{fill:none;stroke:#231815;stroke-width:3;stroke-miterlimit:10;}
</style>
<rect x="5.9" y="19.9" class="st0" width="52.3" height="25.8"/>
<line class="st0" x1="40.3" y1="19.9" x2="40.3" y2="45.7"/>
<g>
	<rect x="35.9" y="19.9" class="st0" width="22.2" height="25.8"/>
</g>
<g>
	<polygon class="st1" points="40.3,44.4 58.1,40.9 58.1,24.8 40.3,21.4 	"/>
</g>
<path class="st0" d="M20.4,32.8"/>
<path class="st0" d="M21.3,32.8"/>
<path class="st0" d="M20.4,32.8"/>
<path class="st0" d="M25.4,28.7"/>
<path class="st0" d="M21.3,28.7"/>
<path class="st0" d="M25.4,30.2"/>
<path class="st0" d="M21.3,30.2"/>
<path class="st0" d="M25.4,30.2"/>
<path class="st0" d="M25.4,28.7"/>
<path class="st2" d="M13.7,37.2"/>
<path class="st2" d="M13.7,26"/>
<path class="st2" d="M17.9,35.3"/>
<path class="st2" d="M10.8,29.3"/>
<path class="st2" d="M10.5,36.2"/>
<path class="st2" d="M17.4,27.3"/>
<path class="st2" d="M21.3,35.3"/>
<path class="st2" d="M21.3,28.7"/>
<path class="st2" d="M24.6,35.3"/>
<path class="st2" d="M24.6,28.7"/>
<path class="st2" d="M27.4,35.3"/>
<path class="st2" d="M27.4,28.7"/>
<path class="st3" d="M21.5,27.3"/>
<path class="st3" d="M19.3,29.5"/>
<path class="st0" d="M15.6,26.7"/>
<path class="st0" d="M14.9,33.3"/>
<path class="st0" d="M20.9,26.7"/>
<path class="st0" d="M20.7,26.7"/>
<path class="st0" d="M20.7,26.7"/>
<path class="st0" d="M14.8,32.5"/>
<path class="st0" d="M21.5,33.1"/>
<path class="st0" d="M21.5,26.8"/>
<path class="st0" d="M14.8,27.1"/>
<path class="st4" d="M13.1,37.9"/>
<path class="st4" d="M23.6,29"/>
<path class="st4" d="M13.8,30.2"/>
<path class="st4" d="M12.5,28"/>
<rect x="12.8" y="24.3" class="st5" width="10.4" height="15.8"/>
<rect x="15" y="25.6" class="st6" width="6.4" height="4.9"/>
<line class="st7" x1="27" y1="25.6" x2="26.9" y2="39"/>
<line class="st7" x1="23.5" y1="37.8" x2="26.4" y2="37.8"/>
<line class="st7" x1="24.9" y1="37.8" x2="24.9" y2="38"/>
<line class="st7" x1="26.5" y1="26.9" x2="29.8" y2="26.9"/>
</svg>
