<?xml version="1.0" encoding="utf-8"?>
<!-- Generator: Adobe Illustrator 23.0.0, SVG Export Plug-In . SVG Version: 6.00 Build 0)  -->
<svg version="1.1" id="图层_1" xmlns="http://www.w3.org/2000/svg" xmlns:xlink="http://www.w3.org/1999/xlink" x="0px" y="0px"
	 viewBox="0 0 64 64" style="enable-background:new 0 0 64 64;" xml:space="preserve">
<style type="text/css">
	.st0{fill:none;stroke:#E60012;stroke-width:3;stroke-miterlimit:10;}
	.st1{fill:none;stroke:#231815;stroke-width:3;stroke-miterlimit:10;}
	.st2{fill:#231815;stroke:#231815;stroke-width:3;stroke-miterlimit:10;}
</style>
<rect x="5.9" y="19.9" class="st0" width="52.3" height="25.8"/>
<line class="st0" x1="40.3" y1="19.9" x2="40.3" y2="45.7"/>
<g>
	<rect x="35.8" y="19.9" class="st0" width="22.3" height="25.8"/>
</g>
<g>
	<polygon class="st0" points="40.3,45.4 58.1,41.6 58.1,24 40.3,20.2 	"/>
</g>
<path class="st0" d="M24.2,34.4"/>
<path class="st0" d="M25.3,34.4"/>
<path class="st0" d="M25.3,34.4"/>
<path class="st0" d="M24.2,34.4"/>
<path class="st0" d="M30.2,29.6"/>
<path class="st0" d="M25.3,29.6"/>
<path class="st0" d="M30.2,31.4"/>
<path class="st0" d="M25.3,31.4"/>
<path class="st0" d="M30.2,31.4"/>
<path class="st0" d="M30.2,29.6"/>
<path class="st0" d="M20.3,28.2"/>
<path class="st0" d="M16.3,26.6"/>
<line class="st1" x1="15.5" y1="30.9" x2="29.4" y2="39.8"/>
<line class="st1" x1="28.6" y1="31.4" x2="15.1" y2="39.4"/>
<line class="st1" x1="19.9" y1="31.4" x2="24.8" y2="31.4"/>
<path class="st2" d="M25.3,29.9h-6.2c-0.7,0-1.3-0.6-1.3-1.3l0,0c0-0.7,0.6-1.3,1.3-1.3h6.2c0.7,0,1.3,0.6,1.3,1.3l0,0
	C26.6,29.4,26,29.9,25.3,29.9z"/>
</svg>
