<?xml version="1.0" encoding="utf-8"?>
<!-- Generator: Adobe Illustrator 23.0.0, SVG Export Plug-In . SVG Version: 6.00 Build 0)  -->
<svg version="1.1" id="图层_1" xmlns="http://www.w3.org/2000/svg" xmlns:xlink="http://www.w3.org/1999/xlink" x="0px" y="0px"
	 viewBox="0 0 64 64" style="enable-background:new 0 0 64 64;" xml:space="preserve">
<style type="text/css">
	.st0{fill:none;stroke:#E60012;stroke-miterlimit:10;}
	.st1{fill:#E60012;stroke:#E60012;stroke-miterlimit:10;}
	.st2{fill:none;stroke:#FF33FF;stroke-miterlimit:10;}
	.st3{fill:none;stroke:#FF0000;stroke-miterlimit:10;}
	.st4{fill:#FFFFFF;stroke:#E60012;stroke-miterlimit:10;}
	.st5{fill:none;stroke:#231815;stroke-miterlimit:10;}
</style>
<rect x="6.4" y="19.9" class="st0" width="51.8" height="25.8"/>
<line class="st0" x1="40.3" y1="19.9" x2="40.3" y2="45.7"/>
<g>
	<rect x="37.3" y="19.9" class="st0" width="20.8" height="25.8"/>
</g>
<g>
	<polygon class="st1" points="40.3,45.4 58.1,41.6 58.1,24 40.3,20.2 	"/>
</g>
<path class="st0" d="M24.2,34.4"/>
<path class="st0" d="M25.3,34.4"/>
<path class="st0" d="M24.2,34.4"/>
<path class="st0" d="M30.2,29.6"/>
<path class="st0" d="M25.3,29.6"/>
<path class="st0" d="M30.2,31.4"/>
<path class="st0" d="M25.3,31.4"/>
<path class="st0" d="M30.2,31.4"/>
<path class="st0" d="M30.2,29.6"/>
<path class="st2" d="M16.3,39.6"/>
<path class="st2" d="M16.3,26.4"/>
<path class="st2" d="M21.3,37.4"/>
<path class="st2" d="M11.1,30"/>
<path class="st2" d="M20.7,28"/>
<path class="st2" d="M25.3,37.4"/>
<path class="st2" d="M25.3,29.6"/>
<path class="st2" d="M29.2,37.4"/>
<path class="st2" d="M29.2,29.6"/>
<path class="st2" d="M32.5,37.4"/>
<path class="st2" d="M32.5,29.6"/>
<path class="st3" d="M25.6,28"/>
<path class="st3" d="M23,30.6"/>
<path class="st0" d="M18.6,27.3"/>
<path class="st0" d="M17.8,35.1"/>
<path class="st0" d="M24.8,27.3"/>
<path class="st0" d="M24.6,27.3"/>
<path class="st0" d="M24.6,27.3"/>
<path class="st0" d="M17.7,34.1"/>
<path class="st0" d="M25.5,34.8"/>
<path class="st0" d="M25.5,27.4"/>
<path class="st0" d="M17.7,27.7"/>
<path class="st4" d="M15.6,40.5"/>
<path class="st4" d="M28,30"/>
<path class="st4" d="M16.5,31.4"/>
<path class="st4" d="M14.9,28.8"/>
<path class="st5" d="M31.6,40.8"/>
<path class="st5" d="M31.7,27.3"/>
<path class="st5" d="M31.3,40.3"/>
<path class="st5" d="M27.9,40.4"/>
<path class="st5" d="M29.6,40.6"/>
<path class="st0" d="M14.9,37.4"/>
<polyline class="st1" points="11.9,37.4 11.4,37.4 11.4,25 15.6,25 15.6,37.4 14.9,37.4 "/>
<path class="st0" d="M26.9,37.8"/>
<polyline class="st1" points="23.9,37.8 23.4,37.8 23.4,25.5 27.6,25.5 27.6,37.8 27.1,37.8 "/>
<line class="st0" x1="24.2" y1="37.8" x2="23.9" y2="37.8"/>
<line class="st0" x1="11.4" y1="37.4" x2="13.5" y2="40.8"/>
<line class="st1" x1="15.6" y1="37.4" x2="13.2" y2="40.4"/>
<line class="st0" x1="23.4" y1="37.8" x2="25.5" y2="41.2"/>
<line class="st0" x1="27.6" y1="37.8" x2="25.6" y2="40.6"/>
<line class="st0" x1="24.8" y1="40.2" x2="24.8" y2="40.2"/>
<line class="st0" x1="25" y1="40.6" x2="25.3" y2="40.8"/>
<line class="st0" x1="16.5" y1="27.3" x2="16.5" y2="32.8"/>
<line class="st0" x1="28.6" y1="27.6" x2="28.6" y2="33.1"/>
<line class="st0" x1="11" y1="24.2" x2="15.9" y2="24.2"/>
<line class="st0" x1="22.9" y1="24.6" x2="27.7" y2="24.6"/>
</svg>
