<?xml version="1.0" encoding="utf-8"?>
<!-- Generator: Adobe Illustrator 23.0.0, SVG Export Plug-In . SVG Version: 6.00 Build 0)  -->
<svg version="1.1" id="图层_1" xmlns="http://www.w3.org/2000/svg" xmlns:xlink="http://www.w3.org/1999/xlink" x="0px" y="0px"
	 viewBox="0 0 64 64" style="enable-background:new 0 0 64 64;" xml:space="preserve">
<style type="text/css">
	.st0{fill:none;stroke:#E60012;stroke-miterlimit:10;}
	.st1{fill:none;stroke:#E60012;stroke-width:3;stroke-miterlimit:10;}
	.st2{fill:#E60012;stroke:#E60012;stroke-miterlimit:10;}
	.st3{fill:#FFFFFF;stroke:#00FFFF;stroke-miterlimit:10;stroke-dasharray:1;}
	.st4{fill:#E60012;stroke:#E60012;stroke-width:3;stroke-miterlimit:10;}
</style>
<path class="st0" d="M53.9,37.2"/>
<polyline class="st1" points="53.9,45.4 5.9,45.7 5.9,19.9 53.9,19.8 53.9,27.5 "/>
<line class="st0" x1="40.3" y1="37.2" x2="40.3" y2="45.7"/>
<path class="st0" d="M40.3,37.2"/>
<line class="st0" x1="40.3" y1="35" x2="40.3" y2="35.3"/>
<path class="st0" d="M40.3,35"/>
<line class="st0" x1="40.3" y1="30" x2="40.3" y2="30.1"/>
<path class="st0" d="M40.3,30"/>
<line class="st0" x1="40.3" y1="19.9" x2="40.3" y2="27.5"/>
<g>
	<path class="st0" d="M36.1,27.1"/>
	<path class="st0" d="M36.1,29.6"/>
	<line class="st0" x1="36.1" y1="35.3" x2="36.1" y2="35"/>
	<path class="st0" d="M36.1,35.3"/>
	<polyline class="st1" points="53.9,37.6 53.9,45.4 36.1,45.4 36.1,37.4 	"/>
	<path class="st0" d="M53.9,37.6"/>
	<path class="st0" d="M53.9,30.6"/>
	<path class="st0" d="M53.9,27.7"/>
	<polyline class="st1" points="36.1,27.1 36.1,19.9 53.9,19.6 53.9,27.7 	"/>
</g>
<g>
	<polyline class="st2" points="53.9,27.4 53.9,23.4 40.3,20.2 40.3,27.1 	"/>
	<path class="st2" d="M53.9,27.9"/>
	<path class="st2" d="M53.9,27.3"/>
	<polyline class="st2" points="40.3,45.4 53.9,41 53.9,37.6 	"/>
	<path class="st2" d="M40.3,29.8"/>
	<line class="st0" x1="40.3" y1="27.1" x2="40.3" y2="27.3"/>
</g>
<path class="st0" d="M24.2,34.4"/>
<path class="st0" d="M25.3,34.4"/>
<path class="st0" d="M25.3,34.4"/>
<path class="st0" d="M24.2,34.4"/>
<path class="st0" d="M30.2,29.6"/>
<path class="st0" d="M25.3,29.6"/>
<path class="st0" d="M30.2,31.4"/>
<path class="st0" d="M25.3,31.4"/>
<path class="st0" d="M30.2,31.4"/>
<path class="st0" d="M30.2,29.6"/>
<path class="st0" d="M21.4,39"/>
<path class="st0" d="M21.4,25.2"/>
<path class="st0" d="M30.6,39"/>
<path class="st0" d="M30.6,25.2"/>
<path class="st3" d="M18.2,28.7"/>
<polyline class="st2" points="51.4,29.9 53.3,29.9 53.3,35.3 40.3,35.2 "/>
<line class="st0" x1="37.3" y1="29.8" x2="53.9" y2="29.9"/>
<polyline class="st2" points="40.3,35.2 18.2,35 18.2,29.6 37.6,29.8 "/>
<line class="st0" x1="53.9" y1="37.5" x2="40.3" y2="37.3"/>
<path class="st0" d="M53.9,37.5"/>
<polyline class="st1" points="54.1,27.5 58,27.5 58,37.5 54.1,37.5 "/>
<line class="st0" x1="53.9" y1="27.5" x2="54.1" y2="27.5"/>
<polyline class="st1" points="40.3,37.6 13.4,37.4 13.4,27.1 53.9,27.5 "/>
<path class="st2" d="M12.9,34.8c-1.7,0-3-1.2-3-2.7c0-1.5,1.4-2.7,3-2.7"/>
<rect x="58" y="30.2" class="st2" width="3.2" height="5.1"/>
<line class="st0" x1="54" y1="37.6" x2="54" y2="37"/>
<rect x="41.5" y="37.5" class="st4" width="11.8" height="3.3"/>
<rect x="41" y="41" class="st2" width="6.9" height="1.5"/>
<polygon class="st2" points="42.1,41.4 43.4,41.4 43.4,41.4 "/>
<rect x="40.3" y="42.1" class="st2" width="3.8" height="1.6"/>
<rect x="40.7" y="44.1" class="st2" width="1.6" height="0.6"/>
<rect x="36.1" y="30.1" class="st2" width="17.2" height="4.7"/>
</svg>
