<?xml version="1.0" encoding="utf-8"?>
<!-- Generator: Adobe Illustrator 23.0.0, SVG Export Plug-In . SVG Version: 6.00 Build 0)  -->
<svg version="1.1" id="图层_1" xmlns="http://www.w3.org/2000/svg" xmlns:xlink="http://www.w3.org/1999/xlink" x="0px" y="0px"
	 viewBox="0 0 64 64" style="enable-background:new 0 0 64 64;" xml:space="preserve">
<style type="text/css">
	.st0{fill:none;stroke:#E60012;stroke-miterlimit:10;}
	.st1{fill:#FFFFFF;stroke:#00FFFF;stroke-miterlimit:10;stroke-dasharray:1;}
	.st2{fill:#E60012;stroke:#E60012;stroke-miterlimit:10;}
</style>
<rect x="5.9" y="19.9" class="st0" width="52.3" height="25.8"/>
<line class="st0" x1="40.3" y1="19.9" x2="40.3" y2="45.7"/>
<g>
	<rect x="37.3" y="19.9" class="st0" width="20.8" height="25.8"/>
</g>
<g>
	<polygon class="st0" points="40.3,45.4 58.1,41.6 58.1,24 40.3,20.2 	"/>
</g>
<path class="st0" d="M24.2,34.4"/>
<path class="st0" d="M25.3,34.4"/>
<path class="st0" d="M25.3,34.4"/>
<path class="st0" d="M24.2,34.4"/>
<path class="st0" d="M30.2,29.6"/>
<path class="st0" d="M25.3,29.6"/>
<path class="st0" d="M30.2,31.4"/>
<path class="st0" d="M25.3,31.4"/>
<path class="st0" d="M30.2,31.4"/>
<path class="st0" d="M30.2,29.6"/>
<path class="st0" d="M21.4,39"/>
<path class="st0" d="M21.4,25.2"/>
<line class="st0" x1="-622" y1="369.3" x2="-619.9" y2="367.2"/>
<line class="st0" x1="-651.1" y1="412.3" x2="-649" y2="410.2"/>
<path class="st0" d="M30.6,39"/>
<path class="st0" d="M30.6,25.2"/>
<path class="st1" d="M18.2,28.7"/>
<rect x="27.5" y="24.7" class="st2" width="5" height="14.6"/>
<rect x="32.6" y="30.3" class="st2" width="12.6" height="3"/>
<rect x="10.4" y="26" class="st2" width="3.6" height="12.2"/>
<rect x="14.1" y="30.4" class="st2" width="7.3" height="2.8"/>
</svg>
