<?xml version="1.0" encoding="utf-8"?>
<!-- Generator: Adobe Illustrator 23.0.0, SVG Export Plug-In . SVG Version: 6.00 Build 0)  -->
<svg version="1.1" id="图层_1" xmlns="http://www.w3.org/2000/svg" xmlns:xlink="http://www.w3.org/1999/xlink" x="0px" y="0px"
	 viewBox="0 0 64 64" style="enable-background:new 0 0 64 64;" xml:space="preserve">
<style type="text/css">
	.st0{fill:none;stroke:#E60012;stroke-width:3;stroke-miterlimit:10;}
	.st1{fill:#E60012;stroke:#E60012;stroke-width:3;stroke-miterlimit:10;}
	.st2{fill:none;stroke:#E60012;stroke-miterlimit:10;}
	.st3{fill:#FFFFFF;stroke:#00FFFF;stroke-width:3;stroke-miterlimit:10;stroke-dasharray:1;}
	.st4{fill:#FFFFFF;stroke:#E60012;stroke-width:3;stroke-miterlimit:10;}
</style>
<rect x="9.1" y="19.9" class="st0" width="49" height="25.8"/>
<line class="st0" x1="40.3" y1="19.9" x2="40.3" y2="45.7"/>
<g>
	<rect x="36.4" y="19.9" class="st0" width="21.7" height="25.8"/>
</g>
<g>
	<polygon class="st1" points="40.3,44.5 56.8,41 56.8,24.7 40.3,21.2 	"/>
</g>
<path class="st0" d="M24.2,34.4"/>
<path class="st0" d="M25.3,34.4"/>
<path class="st0" d="M25.3,34.4"/>
<path class="st0" d="M24.2,34.4"/>
<path class="st0" d="M30.2,29.6"/>
<path class="st0" d="M25.3,29.6"/>
<path class="st0" d="M30.2,31.4"/>
<path class="st0" d="M25.3,31.4"/>
<path class="st0" d="M30.2,31.4"/>
<path class="st0" d="M30.2,29.6"/>
<path class="st0" d="M21.4,39"/>
<path class="st0" d="M21.4,25.2"/>
<line class="st2" x1="-622" y1="369.3" x2="-619.9" y2="367.2"/>
<line class="st2" x1="-651.1" y1="412.3" x2="-649" y2="410.2"/>
<path class="st0" d="M30.6,39"/>
<path class="st0" d="M30.6,25.2"/>
<path class="st3" d="M18.2,28.7"/>
<rect x="5.6" y="30.2" class="st4" width="27.6" height="3.8"/>
<line class="st0" x1="5.6" y1="38.6" x2="5.6" y2="25.2"/>
<line class="st0" x1="9.1" y1="30.2" x2="9.1" y2="34.4"/>
<line class="st0" x1="12.9" y1="30.2" x2="12.9" y2="34"/>
<line class="st0" x1="17.1" y1="30.2" x2="17.1" y2="34"/>
<line class="st0" x1="21.4" y1="30.5" x2="21.4" y2="34"/>
<line class="st0" x1="25.3" y1="30.5" x2="25.3" y2="34.4"/>
<line class="st0" x1="29.5" y1="30.5" x2="29.5" y2="34"/>
</svg>
