<?xml version="1.0" encoding="utf-8"?>
<!-- Generator: Adobe Illustrator 23.0.0, SVG Export Plug-In . SVG Version: 6.00 Build 0)  -->
<svg version="1.1" id="图层_1" xmlns="http://www.w3.org/2000/svg" xmlns:xlink="http://www.w3.org/1999/xlink" x="0px" y="0px"
	 viewBox="0 0 64 64" style="enable-background:new 0 0 64 64;" xml:space="preserve">
<style type="text/css">
	.st0{fill:none;stroke:#E60012;stroke-width:3;stroke-miterlimit:10;}
	.st1{fill:none;stroke:#E60012;stroke-miterlimit:10;}
	.st2{fill:#FFFFFF;stroke:#231815;stroke-width:3;stroke-miterlimit:10;}
	.st3{fill:#FFFFFF;stroke:#231815;stroke-miterlimit:10;}
	.st4{fill:none;stroke:#231815;stroke-width:3;stroke-miterlimit:10;}
	.st5{fill:none;stroke:#231815;stroke-miterlimit:10;}
	.st6{fill:#601986;stroke:#E4007F;stroke-miterlimit:10;}
	.st7{fill:#601986;stroke:#E4007F;stroke-width:3;stroke-miterlimit:10;}
	.st8{fill:#FFFFFF;stroke:#E60012;stroke-miterlimit:10;}
	.st9{fill:none;stroke:#E4007F;stroke-width:2;stroke-miterlimit:10;}
	.st10{fill:none;stroke:#E4007F;stroke-width:3;stroke-miterlimit:10;}
</style>
<rect x="10.4" y="21.1" class="st0" width="40.7" height="24.6"/>
<line class="st0" x1="40.8" y1="21.2" x2="40.8" y2="45.7"/>
<g>
	<rect x="36.5" y="21.2" class="st0" width="14.6" height="24.6"/>
</g>
<g>
	<polygon class="st0" points="40.8,44.3 51.1,40.9 51.1,25.5 40.8,22.1 	"/>
</g>
<path class="st1" d="M25.5,35"/>
<path class="st1" d="M26.5,35"/>
<path class="st1" d="M26.5,35"/>
<path class="st1" d="M25.5,35"/>
<path class="st1" d="M31.2,30.4"/>
<path class="st1" d="M26.5,30.4"/>
<path class="st1" d="M31.2,32.1"/>
<path class="st1" d="M26.5,32.1"/>
<path class="st1" d="M31.2,32.1"/>
<path class="st1" d="M31.2,30.4"/>
<path class="st1" d="M21.8,29.1"/>
<path class="st1" d="M18,27.6"/>
<path class="st2" d="M30.5,40.1"/>
<path class="st3" d="M17.2,31.6"/>
<path class="st4" d="M16.8,39.7"/>
<path class="st5" d="M29.7,32.1"/>
<path class="st6" d="M33.9,25.9"/>
<path class="st7" d="M12.6,25.8"/>
<path class="st7" d="M23.2,41.5"/>
<path class="st6" d="M23.2,25.9"/>
<path class="st7" d="M16.1,39.7"/>
<path class="st6" d="M23.2,25.9"/>
<path class="st7" d="M11.8,36.2"/>
<path class="st6" d="M23.2,25.9"/>
<path class="st7" d="M8.1,31.1"/>
<path class="st6" d="M23.2,25.9"/>
<path class="st7" d="M28.5,39.7"/>
<path class="st6" d="M23.2,25.9"/>
<path class="st6" d="M33.4,37.3"/>
<path class="st6" d="M23.2,25.9"/>
<path class="st7" d="M38,31.4"/>
<path class="st6" d="M23.2,25.9"/>
<circle class="st8" cx="19.2" cy="32.5" r="3.9"/>
<circle class="st8" cx="18" cy="32.5" r="2.8"/>
<line class="st1" x1="21.9" y1="29.6" x2="32.8" y2="33.5"/>
<line class="st1" x1="32.8" y1="33.5" x2="22" y2="35.3"/>
<polygon class="st9" points="4.2,29.6 14,29.6 14,35.3 4.2,35.3 4.2,32.5 "/>
<polyline class="st9" points="54.4,35.3 44.8,35.3 44.8,29.7 54.4,29.7 54.4,30.1 "/>
<line class="st10" x1="54.9" y1="30.1" x2="54.9" y2="30.1"/>
<circle class="st9" cx="58.1" cy="32.5" r="4.3"/>
</svg>
