<?xml version="1.0" encoding="utf-8"?>
<!-- Generator: Adobe Illustrator 23.0.0, SVG Export Plug-In . SVG Version: 6.00 Build 0)  -->
<svg version="1.1" id="图层_1" xmlns="http://www.w3.org/2000/svg" xmlns:xlink="http://www.w3.org/1999/xlink" x="0px" y="0px"
	 viewBox="0 0 64 64" style="enable-background:new 0 0 64 64;" xml:space="preserve">
<style type="text/css">
	.st0{fill:none;stroke:#E60012;stroke-width:3;stroke-miterlimit:10;}
	.st1{fill:none;stroke:#E60012;stroke-miterlimit:10;}
	.st2{fill:#E60012;stroke:#E60012;stroke-width:3;stroke-miterlimit:10;}
	.st3{fill:#FF33FF;stroke:#FF33FF;stroke-miterlimit:10;}
	.st4{fill:#FFFFFF;stroke:#FF33FF;stroke-miterlimit:10;}
	.st5{fill:none;stroke:#FF33FF;stroke-miterlimit:10;}
</style>
<rect x="5.9" y="19.9" class="st0" width="52.3" height="25.8"/>
<line class="st1" x1="40.3" y1="19.9" x2="40.3" y2="45.7"/>
<g>
	<rect x="35.9" y="19.9" class="st0" width="22.2" height="25.8"/>
</g>
<g>
	<polygon class="st2" points="40.3,44.4 58.1,40.9 58.1,24.4 40.3,20.9 	"/>
</g>
<path class="st1" d="M22.6,34.7"/>
<path class="st1" d="M23.6,34.7"/>
<path class="st1" d="M23.6,34.7"/>
<path class="st1" d="M22.6,34.7"/>
<path class="st1" d="M28,30.1"/>
<path class="st1" d="M23.6,30.1"/>
<path class="st1" d="M28,31.8"/>
<path class="st1" d="M23.6,31.8"/>
<path class="st1" d="M28,31.8"/>
<path class="st1" d="M28,30.1"/>
<rect x="9.8" y="27.1" class="st3" width="11.8" height="12.5"/>
<ellipse class="st4" cx="15.6" cy="33.4" rx="5.9" ry="6.2"/>
<line class="st5" x1="15.6" y1="27.1" x2="15.6" y2="39.6"/>
<line class="st5" x1="10.9" y1="30.5" x2="20.1" y2="37.5"/>
<line class="st5" x1="19.5" y1="28.6" x2="12.3" y2="38.6"/>
<rect x="21.6" y="30.1" class="st5" width="11.1" height="7.4"/>
<line class="st5" x1="23.6" y1="30.1" x2="23.6" y2="37.5"/>
<line class="st5" x1="27.1" y1="30.1" x2="27.1" y2="37.5"/>
<line class="st5" x1="30.1" y1="30.1" x2="30.1" y2="37.5"/>
</svg>
