<?xml version="1.0" encoding="utf-8"?>
<!-- Generator: Adobe Illustrator 23.0.0, SVG Export Plug-In . SVG Version: 6.00 Build 0)  -->
<svg version="1.1" id="图层_1" xmlns="http://www.w3.org/2000/svg" xmlns:xlink="http://www.w3.org/1999/xlink" x="0px" y="0px"
	 viewBox="0 0 64 64" style="enable-background:new 0 0 64 64;" xml:space="preserve">
<style type="text/css">
	.st0{fill:none;stroke:#E60012;stroke-width:3;stroke-miterlimit:10;}
	.st1{fill:#E60012;stroke:#E60012;stroke-width:3;stroke-miterlimit:10;}
	.st2{fill:none;stroke:#FF33FF;stroke-width:3;stroke-miterlimit:10;}
	.st3{fill:none;stroke:#FF0000;stroke-width:3;stroke-miterlimit:10;}
</style>
<rect x="5.9" y="19.9" class="st0" width="52.3" height="25.8"/>
<line class="st0" x1="40.3" y1="19.9" x2="40.3" y2="45.7"/>
<g>
	<rect x="34.6" y="19.9" class="st0" width="23.5" height="25.8"/>
</g>
<g>
	<polygon class="st1" points="40.3,44.3 58.1,40.8 58.1,24.5 40.3,20.9 	"/>
</g>
<path class="st0" d="M22,35.2"/>
<path class="st0" d="M23,35.2"/>
<path class="st0" d="M22,35.2"/>
<path class="st0" d="M27.1,31.1"/>
<path class="st0" d="M23,31.1"/>
<path class="st0" d="M27.1,32.6"/>
<path class="st0" d="M23,32.6"/>
<path class="st0" d="M27.1,32.6"/>
<path class="st0" d="M27.1,31.1"/>
<path class="st2" d="M15.3,39.6"/>
<path class="st2" d="M15.3,28.4"/>
<path class="st2" d="M19.6,37.7"/>
<path class="st2" d="M10.9,31.4"/>
<path class="st2" d="M12.2,38.7"/>
<path class="st2" d="M19.1,29.7"/>
<path class="st2" d="M23,37.7"/>
<path class="st2" d="M23,31.1"/>
<path class="st2" d="M26.3,37.7"/>
<path class="st2" d="M26.3,31.1"/>
<path class="st2" d="M32.5,37.4"/>
<path class="st2" d="M32.5,29.6"/>
<path class="st3" d="M23.2,29.7"/>
<path class="st3" d="M21,32"/>
<path class="st0" d="M17.3,29.2"/>
<polyline class="st1" points="16.6,35.8 13.4,35.8 13.4,29.2 16.8,29.2 "/>
<path class="st0" d="M16.6,35.8"/>
<polyline class="st1" points="22.8,29.2 26.3,29.2 26.3,35.8 22.7,35.8 "/>
<path class="st0" d="M22.5,29.2"/>
<path class="st0" d="M22.4,29.2"/>
<path class="st0" d="M22.4,29.2"/>
<path class="st0" d="M16.5,34.9"/>
<polyline class="st1" points="23.1,35.5 23.1,38.9 16.5,38.9 16.5,35.4 "/>
<path class="st0" d="M23.1,35.5"/>
<path class="st0" d="M23.1,29.2"/>
<polyline class="st1" points="16.5,29.5 16.5,26 23.1,26 23.1,29.2 "/>
<path class="st0" d="M16.5,29.5"/>
<line class="st0" x1="22.8" y1="28.7" x2="22.8" y2="29.6"/>
<rect x="16.5" y="28.7" class="st1" width="7.3" height="7.3"/>
</svg>
