<?xml version="1.0" encoding="utf-8"?>
<!-- Generator: Adobe Illustrator 23.0.0, SVG Export Plug-In . SVG Version: 6.00 Build 0)  -->
<svg version="1.1" id="图层_1" xmlns="http://www.w3.org/2000/svg" xmlns:xlink="http://www.w3.org/1999/xlink" x="0px" y="0px"
	 viewBox="0 0 64 64" style="enable-background:new 0 0 64 64;" xml:space="preserve">
<style type="text/css">
	.st0{fill:none;stroke:#E60012;stroke-width:3;stroke-miterlimit:10;}
	.st1{fill:#E60012;stroke:#E60012;stroke-width:3;stroke-miterlimit:10;}
</style>
<rect x="5.9" y="19.9" class="st0" width="52.3" height="25.8"/>
<line class="st0" x1="40.3" y1="19.9" x2="40.3" y2="45.7"/>
<g>
	<rect x="34.4" y="19.9" class="st0" width="23.7" height="25.8"/>
</g>
<g>
	<polygon class="st1" points="40.3,45.4 58.1,41.6 58.1,24 40.3,20.2 	"/>
</g>
<path class="st0" d="M24.2,34.4"/>
<path class="st0" d="M25.3,34.4"/>
<path class="st0" d="M25.3,34.4"/>
<path class="st0" d="M24.2,34.4"/>
<path class="st0" d="M30.2,29.6"/>
<path class="st0" d="M25.3,29.6"/>
<path class="st0" d="M30.2,31.4"/>
<path class="st0" d="M25.3,31.4"/>
<path class="st0" d="M30.2,31.4"/>
<path class="st0" d="M30.2,29.6"/>
<path class="st0" d="M26.6,32c0,4.1-3.4,7.3-7.4,7.3S12.1,36,11.8,32c-0.2-3.9,3.2-7.3,7.4-7.3C23.5,24.6,26.6,27.9,26.6,32z"/>
<line class="st0" x1="14.7" y1="32" x2="23.7" y2="32"/>
<line class="st0" x1="15.3" y1="28.9" x2="15.3" y2="32"/>
<line class="st0" x1="23.7" y1="28.8" x2="23.7" y2="32.5"/>
<line class="st0" x1="19.2" y1="27.8" x2="19.2" y2="35.7"/>
<line class="st0" x1="16.9" y1="36.2" x2="21.9" y2="36.2"/>
</svg>
