<?xml version="1.0" encoding="utf-8"?>
<!-- Generator: Adobe Illustrator 23.0.0, SVG Export Plug-In . SVG Version: 6.00 Build 0)  -->
<svg version="1.1" id="图层_1" xmlns="http://www.w3.org/2000/svg" xmlns:xlink="http://www.w3.org/1999/xlink" x="0px" y="0px"
	 viewBox="0 0 64 64" style="enable-background:new 0 0 64 64;" xml:space="preserve">
<style type="text/css">
	.st0{fill:none;stroke:#E60012;stroke-width:3;stroke-miterlimit:10;}
	.st1{fill:none;stroke:#E60012;stroke-miterlimit:10;}
	.st2{fill:#E60012;stroke:#E60012;stroke-miterlimit:10;}
	.st3{fill:#FFFFFF;stroke:#231815;stroke-miterlimit:10;}
	.st4{fill:none;stroke:#231815;stroke-miterlimit:10;}
	.st5{font-family:'AdobeSongStd-Light-GBpc-EUC-H';}
	.st6{font-size:10.3332px;}
</style>
<rect x="5.9" y="19.9" class="st0" width="52.3" height="25.8"/>
<line class="st1" x1="40.3" y1="19.9" x2="40.3" y2="45.7"/>
<g>
	<rect x="36.4" y="19.9" class="st0" width="21.7" height="25.8"/>
</g>
<g>
	<polygon class="st2" points="40.3,44.5 56.6,41 56.6,24.5 40.3,21 	"/>
</g>
<path class="st1" d="M24.2,34.4"/>
<path class="st1" d="M25.3,34.4"/>
<path class="st1" d="M25.3,34.4"/>
<path class="st1" d="M24.2,34.4"/>
<path class="st1" d="M30.2,29.6"/>
<path class="st1" d="M25.3,29.6"/>
<path class="st1" d="M30.2,31.4"/>
<path class="st1" d="M25.3,31.4"/>
<path class="st1" d="M30.2,31.4"/>
<path class="st1" d="M30.2,29.6"/>
<path class="st1" d="M20.3,28.2"/>
<path class="st1" d="M16.3,26.6"/>
<path class="st3" d="M29.4,39.8"/>
<path class="st3" d="M15.5,30.9"/>
<path class="st4" d="M15.1,39.4"/>
<path class="st4" d="M28.6,31.4"/>
<text transform="matrix(1 0 0 1 11.543 35.6193)" class="st2 st5 st6">NBC</text>
</svg>
