<?xml version="1.0" encoding="utf-8"?>
<!-- Generator: Adobe Illustrator 23.0.0, SVG Export Plug-In . SVG Version: 6.00 Build 0)  -->
<svg version="1.1" id="图层_1" xmlns="http://www.w3.org/2000/svg" xmlns:xlink="http://www.w3.org/1999/xlink" x="0px" y="0px"
	 viewBox="0 0 64 64" style="enable-background:new 0 0 64 64;" xml:space="preserve">
<style type="text/css">
	.st0{fill:none;stroke:#E60012;stroke-width:3;stroke-miterlimit:10;}
	.st1{fill:#E60012;stroke:#E60012;stroke-width:3;stroke-miterlimit:10;}
	.st2{fill:none;stroke:#E60012;stroke-miterlimit:10;}
	.st3{fill:#FFFFFF;stroke:#00FFFF;stroke-width:3;stroke-miterlimit:10;stroke-dasharray:1;}
	.st4{fill:#FFFFFF;}
	.st5{fill:#FFFFFF;stroke:#E60012;stroke-width:3;stroke-miterlimit:10;}
</style>
<rect x="5.9" y="19.9" class="st0" width="52.3" height="25.8"/>
<line class="st0" x1="40.3" y1="19.9" x2="40.3" y2="45.7"/>
<g>
	<rect x="35.6" y="19.9" class="st0" width="22.5" height="25.8"/>
</g>
<g>
	<polygon class="st1" points="40.3,44.3 58.1,40.7 58.1,24.4 45.4,21.9 40.3,20.9 	"/>
</g>
<path class="st0" d="M24.6,35"/>
<path class="st0" d="M25.4,35"/>
<path class="st0" d="M25.4,35"/>
<path class="st0" d="M24.6,35"/>
<path class="st0" d="M29,31.5"/>
<path class="st0" d="M25.4,31.5"/>
<path class="st0" d="M29,32.8"/>
<path class="st0" d="M25.4,32.8"/>
<path class="st0" d="M29,32.8"/>
<path class="st0" d="M29,31.5"/>
<path class="st0" d="M22.5,38.4"/>
<path class="st0" d="M22.5,28.3"/>
<line class="st2" x1="-622" y1="369.3" x2="-619.9" y2="367.2"/>
<line class="st2" x1="-651.1" y1="412.3" x2="-649" y2="410.2"/>
<path class="st0" d="M29.3,38.4"/>
<path class="st0" d="M29.3,28.3"/>
<path class="st3" d="M20.2,30.9"/>
<ellipse class="st4" cx="17.9" cy="33.2" rx="4.8" ry="4.3"/>
<ellipse class="st5" cx="16.4" cy="33.2" rx="5.1" ry="4.6"/>
<ellipse class="st5" cx="28.3" cy="33.2" rx="2.9" ry="2.6"/>
</svg>
