<?xml version="1.0" encoding="utf-8"?>
<!-- Generator: Adobe Illustrator 23.0.0, SVG Export Plug-In . SVG Version: 6.00 Build 0)  -->
<svg version="1.1" id="图层_1" xmlns="http://www.w3.org/2000/svg" xmlns:xlink="http://www.w3.org/1999/xlink" x="0px" y="0px"
	 viewBox="0 0 64 64" style="enable-background:new 0 0 64 64;" xml:space="preserve">
<style type="text/css">
	.st0{fill:none;stroke:#E60012;stroke-width:3;stroke-miterlimit:10;}
	.st1{fill:#E60012;stroke:#E60012;stroke-width:3;stroke-miterlimit:10;}
	.st2{fill:#FFFFFF;stroke:#231815;stroke-width:3;stroke-miterlimit:10;}
	.st3{fill:none;stroke:#231815;stroke-width:3;stroke-miterlimit:10;}
	.st4{fill:none;stroke:#E4007F;stroke-width:3;stroke-miterlimit:10;}
</style>
<rect x="5.9" y="19.9" class="st0" width="52.3" height="25.8"/>
<line class="st0" x1="40.3" y1="19.9" x2="40.3" y2="45.7"/>
<g>
	<rect x="36.2" y="19.9" class="st0" width="21.9" height="25.8"/>
</g>
<g>
	<polygon class="st1" points="40.3,44.5 56.7,41 56.7,24.8 40.3,21.3 	"/>
</g>
<path class="st0" d="M23.3,34.2"/>
<path class="st0" d="M24.2,34.2"/>
<path class="st0" d="M24.2,34.2"/>
<path class="st0" d="M23.3,34.2"/>
<path class="st0" d="M28.3,30.1"/>
<path class="st0" d="M24.2,30.1"/>
<path class="st0" d="M28.3,31.7"/>
<path class="st0" d="M24.2,31.7"/>
<path class="st0" d="M28.3,31.7"/>
<path class="st0" d="M28.3,30.1"/>
<path class="st0" d="M20,29"/>
<path class="st0" d="M16.7,27.6"/>
<path class="st2" d="M29.4,39.8"/>
<path class="st2" d="M16,31.2"/>
<path class="st3" d="M15.1,39.4"/>
<path class="st3" d="M26.9,31.7"/>
<line class="st4" x1="12" y1="26.1" x2="30.6" y2="26.2"/>
<line class="st4" x1="21.3" y1="26.2" x2="21.3" y2="39.8"/>
<line class="st4" x1="21.3" y1="26.2" x2="15" y2="38.3"/>
<line class="st4" x1="21.3" y1="26.2" x2="11.2" y2="35.2"/>
<line class="st4" x1="21.3" y1="26.2" x2="8" y2="30.7"/>
<line class="st4" x1="21.3" y1="26.2" x2="25.9" y2="38.3"/>
<line class="st4" x1="21.3" y1="26.2" x2="30.2" y2="36.2"/>
<line class="st4" x1="21.3" y1="26.2" x2="34.2" y2="31"/>
</svg>
