<?xml version="1.0" encoding="utf-8"?>
<!-- Generator: Adobe Illustrator 23.0.0, SVG Export Plug-In . SVG Version: 6.00 Build 0)  -->
<svg version="1.1" id="图层_1" xmlns="http://www.w3.org/2000/svg" xmlns:xlink="http://www.w3.org/1999/xlink" x="0px" y="0px"
	 viewBox="0 0 64 64" style="enable-background:new 0 0 64 64;" xml:space="preserve">
<style type="text/css">
	.st0{fill:none;stroke:#E60012;stroke-width:3;stroke-miterlimit:10;}
	.st1{fill:#E60012;stroke:#E60012;stroke-width:3;stroke-miterlimit:10;}
	.st2{fill:none;stroke:#FF33FF;stroke-width:3;stroke-miterlimit:10;}
	.st3{fill:#FFFFFF;stroke:#FF0000;stroke-width:3;stroke-miterlimit:10;}
	.st4{fill:none;stroke:#FF0000;stroke-width:3;stroke-miterlimit:10;}
</style>
<rect x="5.9" y="19.9" class="st0" width="52.3" height="25.8"/>
<line class="st0" x1="40.3" y1="19.9" x2="40.3" y2="45.7"/>
<g>
	<rect x="35.3" y="19.9" class="st0" width="22.8" height="25.8"/>
</g>
<g>
	<polygon class="st1" points="40.3,44.2 56.8,40.7 56.8,24.6 40.3,21.1 	"/>
</g>
<path class="st0" d="M23.1,34.1"/>
<path class="st0" d="M24.1,34.1"/>
<path class="st0" d="M24.1,34.1"/>
<path class="st0" d="M23.1,34.1"/>
<path class="st0" d="M28.4,29.9"/>
<path class="st0" d="M24.1,29.9"/>
<path class="st0" d="M28.4,31.5"/>
<path class="st0" d="M24.1,31.5"/>
<path class="st0" d="M28.4,31.5"/>
<path class="st0" d="M28.4,29.9"/>
<path class="st2" d="M16.1,38.7"/>
<path class="st2" d="M16.1,27.1"/>
<path class="st2" d="M20.5,36.8"/>
<path class="st2" d="M11.5,30.2"/>
<path class="st2" d="M12.8,37.8"/>
<path class="st2" d="M20,28.5"/>
<path class="st2" d="M24.1,36.8"/>
<path class="st2" d="M24.1,29.9"/>
<path class="st2" d="M27.5,36.8"/>
<path class="st2" d="M27.5,29.9"/>
<path class="st2" d="M30.4,36.8"/>
<path class="st2" d="M30.4,29.9"/>
<rect x="9.9" y="23.3" class="st3" width="21.2" height="19.1"/>
<line class="st4" x1="14.8" y1="39.9" x2="26.2" y2="39.9"/>
<line class="st4" x1="20" y1="28.5" x2="20" y2="39.9"/>
<path class="st4" d="M24.3,28.5"/>
<path class="st4" d="M22,30.8"/>
<path class="st4" d="M20.2,28.8c1.2,0,2.3,1.1,2.3,2.3c0,1.2-1.1,2.3-2.3,2.3"/>
<line class="st4" x1="22.5" y1="31.1" x2="28" y2="31.1"/>
<line class="st4" x1="22.2" y1="29.9" x2="27.2" y2="28.5"/>
<line class="st4" x1="22" y1="32.5" x2="22" y2="32.5"/>
<line class="st4" x1="22.2" y1="32.3" x2="26.8" y2="34.1"/>
</svg>
