<?xml version="1.0" encoding="utf-8"?>
<!-- Generator: Adobe Illustrator 23.0.0, SVG Export Plug-In . SVG Version: 6.00 Build 0)  -->
<svg version="1.1" id="图层_1" xmlns="http://www.w3.org/2000/svg" xmlns:xlink="http://www.w3.org/1999/xlink" x="0px" y="0px"
	 viewBox="0 0 64 64" style="enable-background:new 0 0 64 64;" xml:space="preserve">
<style type="text/css">
	.st0{fill:none;stroke:#E60012;stroke-width:3;stroke-miterlimit:10;}
	.st1{fill:#E60012;stroke:#E60012;stroke-width:3;stroke-miterlimit:10;}
	.st2{fill:none;stroke:#FF33FF;stroke-width:3;stroke-miterlimit:10;}
	.st3{fill:none;stroke:#FF0000;stroke-width:3;stroke-miterlimit:10;}
	.st4{fill:#FFFFFF;stroke:#E60012;stroke-width:3;stroke-miterlimit:10;}
</style>
<rect x="5.9" y="19.9" class="st0" width="52.3" height="25.8"/>
<line class="st0" x1="40.3" y1="19.9" x2="40.3" y2="45.7"/>
<g>
	<rect x="35.4" y="19.9" class="st0" width="22.7" height="25.8"/>
</g>
<g>
	<polygon class="st1" points="40.3,44.4 56.8,40.9 56.8,24.7 40.3,21.2 	"/>
</g>
<path class="st0" d="M22.3,32.9"/>
<path class="st0" d="M23.3,32.9"/>
<path class="st0" d="M22.3,32.9"/>
<path class="st0" d="M27.8,28.4"/>
<path class="st0" d="M23.3,28.4"/>
<path class="st0" d="M27.8,30.1"/>
<path class="st0" d="M23.3,30.1"/>
<path class="st0" d="M27.8,30.1"/>
<path class="st0" d="M27.8,28.4"/>
<path class="st2" d="M14.9,37.7"/>
<path class="st2" d="M14.9,25.4"/>
<path class="st2" d="M19.6,35.7"/>
<path class="st2" d="M10.1,28.8"/>
<path class="st2" d="M11.5,36.7"/>
<path class="st2" d="M19,26.9"/>
<path class="st2" d="M23.3,35.7"/>
<path class="st2" d="M23.3,28.4"/>
<path class="st2" d="M26.9,35.7"/>
<path class="st2" d="M26.9,28.4"/>
<path class="st2" d="M30,35.7"/>
<path class="st2" d="M30,28.4"/>
<path class="st3" d="M23.6,26.9"/>
<path class="st3" d="M21.2,29.3"/>
<path class="st0" d="M17.1,26.3"/>
<path class="st0" d="M16.3,33.5"/>
<path class="st0" d="M22.8,26.3"/>
<path class="st0" d="M22.6,26.3"/>
<path class="st0" d="M22.6,26.3"/>
<path class="st0" d="M16.2,32.6"/>
<path class="st0" d="M23.5,33.2"/>
<path class="st0" d="M23.5,26.4"/>
<path class="st0" d="M16.2,26.7"/>
<line class="st0" x1="13.8" y1="29.7" x2="26" y2="38.1"/>
<line class="st0" x1="25.8" y1="28.8" x2="14.3" y2="38.5"/>
<path class="st1" d="M15.1,30.1c0.1,0.5,0,0.8-0.2,1c-0.6,0.6-2.1,0.1-3.4-1.2s-1.9-2.9-1.2-3.4c0.1-0.1,0.2-0.1,0.3-0.2"/>
<path class="st4" d="M15.1,30.1"/>
<path class="st4" d="M13.6,27.7"/>
<path class="st1" d="M27.8,29.8l-3.4-2.3c-0.6-0.5-0.8-1.3-0.4-1.9l0.5-0.6c0.5-0.6,1.3-0.8,1.9-0.4l3.4,2.3
	c0.6,0.5,0.8,1.3,0.4,1.9l-0.5,0.6C29.4,30.1,28.5,30.3,27.8,29.8z"/>
</svg>
