<?xml version="1.0" encoding="utf-8"?>
<!-- Generator: Adobe Illustrator 23.0.0, SVG Export Plug-In . SVG Version: 6.00 Build 0)  -->
<svg version="1.1" id="图层_1" xmlns="http://www.w3.org/2000/svg" xmlns:xlink="http://www.w3.org/1999/xlink" x="0px" y="0px"
	 viewBox="0 0 64 64" style="enable-background:new 0 0 64 64;" xml:space="preserve">
<style type="text/css">
	.st0{fill:none;stroke:#E60012;stroke-width:2;stroke-miterlimit:10;}
	.st1{fill:#E60012;stroke:#E60012;stroke-width:2;stroke-miterlimit:10;}
	.st2{fill:#FFFFFF;stroke:#00FFFF;stroke-width:2;stroke-miterlimit:10;stroke-dasharray:1;}
	.st3{fill:none;stroke:#FFFFFF;stroke-width:2;stroke-miterlimit:10;}
</style>
<path class="st0" d="M53.9,37.2"/>
<polyline class="st0" points="53.9,45.4 5.9,45.7 5.9,19.9 53.9,19.8 53.9,27.5 "/>
<line class="st0" x1="40.3" y1="37.2" x2="40.3" y2="45.7"/>
<path class="st0" d="M40.3,37.2"/>
<line class="st0" x1="40.3" y1="35" x2="40.3" y2="35.3"/>
<path class="st0" d="M40.3,35"/>
<line class="st0" x1="40.3" y1="30" x2="40.3" y2="30.1"/>
<path class="st0" d="M40.3,30"/>
<line class="st0" x1="40.3" y1="19.9" x2="40.3" y2="27.5"/>
<g>
	<path class="st0" d="M37.3,27.1"/>
	<path class="st0" d="M37.3,29.6"/>
	<line class="st0" x1="37.3" y1="35.3" x2="37.3" y2="35"/>
	<path class="st0" d="M37.3,35.3"/>
	<polyline class="st0" points="53.9,37.6 53.9,45.4 37.3,45.4 37.3,37.4 	"/>
	<path class="st0" d="M53.9,37.6"/>
	<path class="st0" d="M53.9,30.6"/>
	<path class="st0" d="M53.9,27.7"/>
	<polyline class="st0" points="37.3,27.1 37.3,19.9 53.9,19.6 53.9,27.7 	"/>
</g>
<g>
	<polyline class="st1" points="53.9,27.4 53.9,23.4 40.3,20.2 40.3,27.1 	"/>
	<path class="st1" d="M53.9,27.9"/>
	<path class="st1" d="M53.9,27.3"/>
	<polyline class="st1" points="40.3,45.4 53.9,41 53.9,37.6 	"/>
	<path class="st1" d="M40.3,29.8"/>
	<line class="st0" x1="40.3" y1="27.1" x2="40.3" y2="27.3"/>
</g>
<path class="st0" d="M24.2,34.4"/>
<path class="st0" d="M25.3,34.4"/>
<path class="st0" d="M25.3,34.4"/>
<path class="st0" d="M24.2,34.4"/>
<path class="st0" d="M30.2,29.6"/>
<path class="st0" d="M25.3,29.6"/>
<path class="st0" d="M30.2,31.4"/>
<path class="st0" d="M25.3,31.4"/>
<path class="st0" d="M30.2,31.4"/>
<path class="st0" d="M30.2,29.6"/>
<path class="st0" d="M21.4,39"/>
<path class="st0" d="M21.4,25.2"/>
<path class="st0" d="M30.6,39"/>
<path class="st0" d="M30.6,25.2"/>
<path class="st2" d="M18.2,28.7"/>
<polyline class="st0" points="53.9,29.9 56.3,29.9 56.3,35.3 40.3,35.2 "/>
<line class="st0" x1="40.4" y1="29.8" x2="53.9" y2="29.9"/>
<line class="st0" x1="40" y1="29.8" x2="40.4" y2="29.8"/>
<line class="st0" x1="39.9" y1="29.8" x2="40" y2="29.8"/>
<path class="st0" d="M39.9,29.8"/>
<line class="st0" x1="38.8" y1="29.8" x2="38.9" y2="29.8"/>
<line class="st0" x1="38.2" y1="29.8" x2="38.5" y2="29.8"/>
<line class="st0" x1="37.9" y1="29.8" x2="38.1" y2="29.8"/>
<path class="st0" d="M37.9,29.8"/>
<line class="st0" x1="37.6" y1="29.8" x2="37.8" y2="29.8"/>
<line class="st0" x1="37.3" y1="29.8" x2="37.6" y2="29.8"/>
<line class="st0" x1="36.3" y1="29.8" x2="37.3" y2="29.8"/>
<polyline class="st1" points="37.5,35.2 15.9,35 15.9,29.6 36.3,29.8 "/>
<path class="st0" d="M37.5,35.2"/>
<path class="st0" d="M39,35.2"/>
<path class="st0" d="M39.7,35.2"/>
<line class="st0" x1="40" y1="35.2" x2="39.9" y2="35.2"/>
<line class="st0" x1="40.3" y1="35.2" x2="40" y2="35.2"/>
<line class="st0" x1="53.9" y1="37.5" x2="40.3" y2="37.3"/>
<path class="st0" d="M53.9,37.5"/>
<polyline class="st0" points="54.1,27.5 58,27.5 58,37.5 54.1,37.5 "/>
<line class="st0" x1="53.9" y1="27.5" x2="54.1" y2="27.5"/>
<line class="st0" x1="40.4" y1="27.3" x2="53.9" y2="27.5"/>
<path class="st0" d="M40.4,27.3"/>
<polyline class="st0" points="37.5,37.3 13.4,37.1 13.4,27.1 37.7,27.3 "/>
<line class="st0" x1="37.6" y1="37.3" x2="37.5" y2="37.3"/>
<path class="st0" d="M37.6,37.3"/>
<line class="st0" x1="39.4" y1="37.3" x2="39.2" y2="37.3"/>
<line class="st0" x1="40.3" y1="37.3" x2="40.2" y2="37.3"/>
<path class="st1" d="M12.9,34.8c-1.7,0-3-1.2-3-2.7c0-1.5,1.4-2.7,3-2.7"/>
<rect x="58" y="30.2" class="st1" width="3.2" height="5.1"/>
<line class="st0" x1="54" y1="37.6" x2="54" y2="37"/>
<polyline class="st0" points="37.3,29.8 37.3,19.9 40.3,19.9 40.3,27.1 "/>
<line class="st0" x1="37.3" y1="35.2" x2="37.3" y2="29.8"/>
<line class="st0" x1="37.3" y1="45.4" x2="37.3" y2="35.2"/>
<line class="st0" x1="40.3" y1="45.4" x2="37.3" y2="45.4"/>
<line class="st0" x1="40.3" y1="35.3" x2="40.3" y2="37.3"/>
<line class="st0" x1="40.3" y1="35.2" x2="40.3" y2="35.3"/>
<line class="st0" x1="40.3" y1="30" x2="40.3" y2="35.2"/>
<line class="st0" x1="40.3" y1="29.8" x2="40.3" y2="30"/>
<line class="st0" x1="40.3" y1="27.1" x2="40.3" y2="29.8"/>
<polyline class="st0" points="37.3,30 37.3,41.4 8.2,41.4 8.2,22.6 37.3,22.6 37.3,27.3 "/>
<line class="st0" x1="37.3" y1="29.8" x2="37.3" y2="30"/>
<line class="st0" x1="37.3" y1="27.3" x2="37.3" y2="29.8"/>
<rect x="38.4" y="29" class="st3" width="0.7" height="1.7"/>
<rect x="38.7" y="36.5" class="st3" width="0.3" height="1.7"/>
<rect x="40.9" y="29.9" class="st1" width="15.4" height="5.4"/>
<rect x="40.9" y="37.6" class="st1" width="12.4" height="3.3"/>
<rect x="40.4" y="41.4" class="st1" width="2.7" height="3.3"/>
<rect x="42.9" y="40.3" class="st1" width="3.9" height="2.7"/>
<rect x="35.5" y="29.9" class="st1" width="1.3" height="2.1"/>
</svg>
