<?xml version="1.0" encoding="utf-8"?>
<!-- Generator: Adobe Illustrator 23.0.0, SVG Export Plug-In . SVG Version: 6.00 Build 0)  -->
<svg version="1.1" id="图层_1" xmlns="http://www.w3.org/2000/svg" xmlns:xlink="http://www.w3.org/1999/xlink" x="0px" y="0px"
	 viewBox="0 0 64 64" style="enable-background:new 0 0 64 64;" xml:space="preserve">
<style type="text/css">
	.st0{fill:none;stroke:#E60012;stroke-width:3;stroke-miterlimit:10;}
	.st1{fill:#E60012;stroke:#E60012;stroke-width:3;stroke-miterlimit:10;}
	.st2{fill:none;stroke:#E60012;stroke-miterlimit:10;}
	.st3{fill:#FFFFFF;}
	.st4{fill:none;stroke:#00FFFF;stroke-width:3;stroke-miterlimit:10;}
	.st5{fill:none;stroke:#00FFFF;stroke-width:3;stroke-miterlimit:10;stroke-dasharray:0.9464,0.9464;}
	.st6{fill:none;stroke:#00FFFF;stroke-width:3;stroke-miterlimit:10;stroke-dasharray:1;}
</style>
<rect x="5.9" y="19.9" class="st0" width="52.3" height="25.8"/>
<line class="st0" x1="40.3" y1="19.9" x2="40.3" y2="45.7"/>
<g>
	<rect x="35" y="19.9" class="st0" width="23.1" height="25.8"/>
</g>
<g>
	<polygon class="st1" points="40.3,44.2 56.7,40.7 56.7,24.8 40.3,21.4 	"/>
</g>
<path class="st0" d="M24.2,34.4"/>
<path class="st0" d="M25.3,34.4"/>
<path class="st0" d="M25.3,34.4"/>
<path class="st0" d="M24.2,34.4"/>
<path class="st0" d="M30.2,29.6"/>
<path class="st0" d="M25.3,29.6"/>
<path class="st0" d="M30.2,31.4"/>
<path class="st0" d="M25.3,31.4"/>
<path class="st0" d="M30.2,31.4"/>
<path class="st0" d="M30.2,29.6"/>
<path class="st0" d="M21.4,39"/>
<path class="st0" d="M21.4,25.2"/>
<line class="st2" x1="-622" y1="369.3" x2="-619.9" y2="367.2"/>
<line class="st2" x1="-651.1" y1="412.3" x2="-649" y2="410.2"/>
<path class="st0" d="M30.6,39"/>
<path class="st0" d="M30.6,25.2"/>
<g>
	<polyline class="st3" points="27.2,23.5 12.4,32.1 27.2,40.6 	"/>
	<g>
		<line class="st4" x1="27.2" y1="23.5" x2="26.8" y2="23.8"/>
		<line class="st5" x1="25.9" y1="24.3" x2="13.2" y2="31.6"/>
		<polyline class="st4" points="12.8,31.8 12.4,32.1 12.8,32.3 		"/>
		<line class="st5" x1="13.7" y1="32.8" x2="26.4" y2="40.1"/>
		<line class="st4" x1="26.8" y1="40.4" x2="27.2" y2="40.6"/>
	</g>
</g>
<line class="st6" x1="12.4" y1="32.1" x2="27.2" y2="32.1"/>
</svg>
