<?xml version="1.0" encoding="utf-8"?>
<!-- Generator: Adobe Illustrator 23.0.0, SVG Export Plug-In . SVG Version: 6.00 Build 0)  -->
<svg version="1.1" id="图层_1" xmlns="http://www.w3.org/2000/svg" xmlns:xlink="http://www.w3.org/1999/xlink" x="0px" y="0px"
	 viewBox="0 0 64 64" style="enable-background:new 0 0 64 64;" xml:space="preserve">
<style type="text/css">
	.st0{fill:none;stroke:#E60012;stroke-width:3;stroke-miterlimit:10;}
	.st1{fill:#E60012;stroke:#E60012;stroke-width:3;stroke-miterlimit:10;}
	.st2{fill:none;stroke:#FF33FF;stroke-width:3;stroke-miterlimit:10;}
	.st3{fill:none;stroke:#FF0000;stroke-width:3;stroke-miterlimit:10;}
	.st4{fill:#FFFFFF;stroke:#E60012;stroke-width:3;stroke-miterlimit:10;}
	.st5{fill:none;stroke:#231815;stroke-width:3;stroke-miterlimit:10;}
</style>
<rect x="5.9" y="19.9" class="st0" width="52.3" height="25.8"/>
<line class="st0" x1="40.3" y1="19.9" x2="40.3" y2="45.7"/>
<g>
	<rect x="34.6" y="19.9" class="st0" width="23.5" height="25.8"/>
</g>
<g>
	<polygon class="st1" points="40.3,44.4 56.9,40.9 56.9,24.8 40.3,21.3 	"/>
</g>
<path class="st0" d="M20.7,35.2"/>
<path class="st0" d="M21.8,35.2"/>
<path class="st0" d="M20.7,35.2"/>
<path class="st0" d="M26.7,30.4"/>
<path class="st0" d="M21.8,30.4"/>
<path class="st0" d="M26.7,32.2"/>
<path class="st0" d="M21.8,32.2"/>
<path class="st0" d="M26.7,32.2"/>
<path class="st0" d="M26.7,30.4"/>
<path class="st2" d="M12.8,40.4"/>
<path class="st2" d="M12.8,27.2"/>
<path class="st2" d="M17.8,38.2"/>
<path class="st2" d="M11.1,30"/>
<path class="st2" d="M12.6,38.5"/>
<path class="st2" d="M17.2,28.8"/>
<path class="st2" d="M21.8,38.2"/>
<path class="st2" d="M21.8,30.4"/>
<path class="st2" d="M25.7,38.2"/>
<path class="st2" d="M25.7,30.4"/>
<path class="st2" d="M29,38.2"/>
<path class="st2" d="M29,30.4"/>
<path class="st3" d="M22.1,28.8"/>
<path class="st3" d="M19.5,31.4"/>
<path class="st0" d="M15.1,28.1"/>
<path class="st0" d="M14.3,35.9"/>
<path class="st0" d="M21.3,28.1"/>
<path class="st0" d="M21.1,28.1"/>
<path class="st0" d="M21.1,28.1"/>
<path class="st0" d="M14.2,34.9"/>
<path class="st0" d="M22,35.6"/>
<path class="st0" d="M22,28.2"/>
<path class="st0" d="M14.2,28.5"/>
<path class="st4" d="M12.1,41.3"/>
<path class="st4" d="M24.5,30.8"/>
<path class="st4" d="M13,32.2"/>
<path class="st4" d="M11.4,29.6"/>
<path class="st5" d="M28.1,41.6"/>
<path class="st5" d="M28.2,28.1"/>
<path class="st5" d="M27.8,41.1"/>
<path class="st5" d="M24.4,41.2"/>
<path class="st4" d="M26.1,41.4"/>
<line class="st0" x1="28.2" y1="26.6" x2="28.1" y2="41.6"/>
<line class="st0" x1="27.8" y1="32.8" x2="14.3" y2="32.8"/>
<line class="st0" x1="14.7" y1="32.8" x2="28.1" y2="27.2"/>
</svg>
