<?xml version="1.0" encoding="utf-8"?>
<!-- Generator: Adobe Illustrator 23.0.0, SVG Export Plug-In . SVG Version: 6.00 Build 0)  -->
<svg version="1.1" id="图层_1" xmlns="http://www.w3.org/2000/svg" xmlns:xlink="http://www.w3.org/1999/xlink" x="0px" y="0px"
	 viewBox="0 0 64 64" style="enable-background:new 0 0 64 64;" xml:space="preserve">
<style type="text/css">
	.st0{fill:none;stroke:#E60012;stroke-miterlimit:10;}
	.st1{fill:#E60012;stroke:#E60012;stroke-miterlimit:10;}
	.st2{fill:#FFFFFF;stroke:#E60012;stroke-miterlimit:10;}
</style>
<rect x="5.9" y="19.9" class="st0" width="52.3" height="25.8"/>
<line class="st0" x1="40.3" y1="19.9" x2="40.3" y2="45.7"/>
<g>
	<rect x="37.3" y="19.9" class="st0" width="20.8" height="25.8"/>
</g>
<g>
	<polygon class="st1" points="40.3,45.4 58.1,41.6 58.1,24 40.3,20.2 	"/>
</g>
<path class="st0" d="M24.2,34.4"/>
<path class="st0" d="M25.3,34.4"/>
<path class="st0" d="M25.3,34.4"/>
<path class="st0" d="M24.2,34.4"/>
<path class="st0" d="M30.2,29.6"/>
<path class="st0" d="M25.3,29.6"/>
<path class="st0" d="M30.2,31.4"/>
<path class="st0" d="M25.3,31.4"/>
<path class="st0" d="M30.2,31.4"/>
<path class="st0" d="M30.2,29.6"/>
<circle class="st2" cx="21.4" cy="32.1" r="6.9"/>
<path class="st0" d="M21.4,39"/>
<path class="st0" d="M21.4,25.2"/>
<line class="st0" x1="-622" y1="369.3" x2="-619.9" y2="367.2"/>
<line class="st0" x1="-651.1" y1="412.3" x2="-649" y2="410.2"/>
<line class="st0" x1="16.8" y1="27" x2="16.8" y2="37.2"/>
<path class="st0" d="M30.6,39"/>
<path class="st0" d="M30.6,25.2"/>
<line class="st0" x1="25.8" y1="26.7" x2="25.8" y2="37.4"/>
</svg>
