<?xml version="1.0" encoding="utf-8"?>
<!-- Generator: Adobe Illustrator 23.0.0, SVG Export Plug-In . SVG Version: 6.00 Build 0)  -->
<svg version="1.1" id="图层_1" xmlns="http://www.w3.org/2000/svg" xmlns:xlink="http://www.w3.org/1999/xlink" x="0px" y="0px"
	 viewBox="0 0 64 64" style="enable-background:new 0 0 64 64;" xml:space="preserve">
<style type="text/css">
	.st0{fill:none;stroke:#E60012;stroke-miterlimit:10;}
	.st1{fill:none;stroke:#FF33FF;stroke-miterlimit:10;}
	.st2{fill:none;stroke:#FF0000;stroke-miterlimit:10;}
	.st3{fill:#FFFFFF;stroke:#E60012;stroke-miterlimit:10;}
	.st4{fill:none;stroke:#231815;stroke-miterlimit:10;}
	.st5{fill:#FFFFFF;stroke:#E60012;stroke-width:0.5;stroke-miterlimit:10;}
	.st6{fill:none;stroke:#E60012;stroke-width:0.5;stroke-miterlimit:10;}
	.st7{fill:none;stroke:#FF00FF;stroke-width:0.5;stroke-miterlimit:10;}
	.st8{fill:#231815;}
</style>
<path class="st0" d="M40.3,45.7"/>
<path class="st0" d="M40.3,19.9"/>
<g>
	<path class="st0" d="M37.3,45.7"/>
</g>
<path class="st0" d="M24.2,34.4"/>
<path class="st0" d="M25.3,34.4"/>
<path class="st0" d="M24.2,34.4"/>
<path class="st0" d="M30.2,29.6"/>
<path class="st0" d="M25.3,29.6"/>
<path class="st0" d="M30.2,31.4"/>
<path class="st0" d="M25.3,31.4"/>
<path class="st0" d="M30.2,29.6"/>
<path class="st1" d="M16.3,39.6"/>
<path class="st1" d="M16.3,26.4"/>
<path class="st1" d="M11.1,30"/>
<path class="st1" d="M12.6,38.5"/>
<path class="st1" d="M20.7,28"/>
<path class="st1" d="M25.3,37.4"/>
<path class="st1" d="M25.4,35.4"/>
<path class="st1" d="M29.2,37.4"/>
<path class="st1" d="M29.2,29.6"/>
<path class="st1" d="M32.5,37.4"/>
<path class="st1" d="M32.5,29.6"/>
<path class="st2" d="M25.6,28"/>
<path class="st2" d="M23,30.6"/>
<path class="st0" d="M18.6,27.3"/>
<path class="st0" d="M17.8,35.1"/>
<path class="st0" d="M24.8,27.3"/>
<path class="st0" d="M24.6,27.3"/>
<path class="st0" d="M24.6,27.3"/>
<path class="st0" d="M17.7,34.1"/>
<path class="st0" d="M25.5,34.8"/>
<path class="st0" d="M25.5,27.4"/>
<path class="st0" d="M17.7,27.7"/>
<path class="st3" d="M15.6,40.5"/>
<path class="st3" d="M28,30"/>
<path class="st3" d="M16.5,31.4"/>
<path class="st3" d="M14.9,28.8"/>
<path class="st4" d="M31.6,40.8"/>
<path class="st4" d="M31.7,27.3"/>
<path class="st4" d="M24.8,38.5"/>
<path class="st4" d="M27.9,40.4"/>
<path class="st4" d="M29.6,40.6"/>
<path class="st0" d="M14.9,37.4"/>
<path class="st0" d="M11.4,25"/>
<path class="st0" d="M11.4,37.4"/>
<path class="st0" d="M26.9,37.8"/>
<path class="st0" d="M23.4,37.8"/>
<path class="st0" d="M24.2,37.8"/>
<path class="st0" d="M13.5,40.8"/>
<path class="st0" d="M13.2,40.4"/>
<path class="st0" d="M15.6,37.4"/>
<path class="st0" d="M25.5,41.2"/>
<path class="st0" d="M23.4,37.8"/>
<path class="st0" d="M25.6,40.6"/>
<path class="st0" d="M27.6,37.8"/>
<line class="st0" x1="24.8" y1="40.2" x2="24.8" y2="40.2"/>
<path class="st0" d="M25,40.6"/>
<path class="st0" d="M16.5,32.8"/>
<path class="st0" d="M16.5,27.3"/>
<path class="st0" d="M28.6,33.1"/>
<path class="st0" d="M28.6,27.6"/>
<path class="st0" d="M15.9,24.2"/>
<path class="st0" d="M11,24.2"/>
<path class="st0" d="M24.4,37.9"/>
<path class="st0" d="M26.1,32.7"/>
<path class="st0" d="M33.2,37.4"/>
<path class="st0" d="M26.3,32.1"/>
<path class="st5" d="M28.9,41.2"/>
<path class="st5" d="M19.6,41.2"/>
<path class="st5" d="M38,28.9"/>
<line class="st0" x1="41.8" y1="29" x2="41.8" y2="29"/>
<path class="st0" d="M28,25"/>
<path class="st0" d="M0.8,25"/>
<path class="st0" d="M28,39.2"/>
<path class="st0" d="M1.2,39.2"/>
<path class="st0" d="M3.4,39.6"/>
<path class="st0" d="M3.4,25"/>
<path class="st0" d="M6.4,39.3"/>
<path class="st0" d="M6.4,24.9"/>
<path class="st0" d="M9,39.2"/>
<path class="st0" d="M9,25.1"/>
<path class="st0" d="M11.8,39.2"/>
<path class="st0" d="M11.8,25.1"/>
<path class="st0" d="M14.9,39.1"/>
<path class="st0" d="M14.9,25"/>
<path class="st0" d="M17.8,39.2"/>
<path class="st0" d="M17.8,25.1"/>
<path class="st0" d="M20,39.3"/>
<path class="st0" d="M20,24.8"/>
<path class="st0" d="M23,39.3"/>
<path class="st0" d="M23,25.3"/>
<path class="st0" d="M29.6,39"/>
<path class="st0" d="M29.6,24.9"/>
<path class="st0" d="M26.3,39"/>
<path class="st0" d="M46.7,26.1"/>
<path class="st0" d="M18.4,25.9"/>
<path class="st0" d="M32.6,39"/>
<path class="st0" d="M32.6,24.9"/>
<path class="st0" d="M32.6,39"/>
<path class="st0" d="M32.6,24.9"/>
<path class="st0" d="M35.6,39.5"/>
<path class="st0" d="M35.6,25.4"/>
<path class="st0" d="M47.4,38.5"/>
<path class="st0" d="M17.7,38.2"/>
<path class="st0" d="M29.2,38.3"/>
<path class="st0" d="M29.2,26.2"/>
<path class="st0" d="M32,38"/>
<path class="st0" d="M31.9,25.9"/>
<path class="st0" d="M34.7,38.2"/>
<path class="st0" d="M34.6,26.1"/>
<path class="st0" d="M37.7,38.1"/>
<path class="st0" d="M37.6,26"/>
<path class="st0" d="M40.3,38.3"/>
<path class="st0" d="M40.3,26.2"/>
<path class="st0" d="M43.2,38.3"/>
<path class="st0" d="M43.1,26.2"/>
<path class="st0" d="M45.8,38.6"/>
<path class="st0" d="M45.7,26.5"/>
<path class="st0" d="M48.7,38.2"/>
<path class="st0" d="M48.6,26.1"/>
<path class="st0" d="M61.7,27.2"/>
<path class="st0" d="M39.9,26.9"/>
<path class="st0" d="M39.7,40.2"/>
<path class="st0" d="M39.6,28.1"/>
<path class="st0" d="M62,38.1"/>
<path class="st0" d="M40.2,37.8"/>
<path class="st0" d="M48.7,37.8"/>
<path class="st0" d="M48.7,27.3"/>
<path class="st0" d="M51.9,37.8"/>
<path class="st0" d="M51.9,27.3"/>
<path class="st0" d="M54.8,37.9"/>
<path class="st0" d="M55,27.1"/>
<path class="st0" d="M57.8,37.9"/>
<path class="st0" d="M57.8,27.5"/>
<path class="st0" d="M45.1,28.5"/>
<path class="st0" d="M37.7,35.9"/>
<line class="st0" x1="46.1" y1="30.6" x2="46.1" y2="30.6"/>
<path class="st0" d="M21.3,48.8"/>
<path class="st0" d="M32.9,29"/>
<path class="st0" d="M45.1,49.8"/>
<path class="st0" d="M32.9,29.1"/>
<path class="st0" d="M32.9,43.6"/>
<path class="st0" d="M32.9,29"/>
<line class="st6" x1="23.4" y1="31.1" x2="23.4" y2="31.1"/>
<line class="st6" x1="38" y1="24.4" x2="38" y2="24.4"/>
<line class="st6" x1="21.5" y1="32.7" x2="21.5" y2="32.7"/>
<path class="st7" d="M32.1,37.6"/>
<path class="st7" d="M32.1,26.5"/>
<path class="st7" d="M36.6,37.7"/>
<path class="st7" d="M36.6,26.6"/>
<path class="st7" d="M38.8,37.7"/>
<path class="st7" d="M38.8,26.6"/>
<path class="st7" d="M41.3,37.6"/>
<path class="st7" d="M41.3,26.5"/>
<path class="st7" d="M43.5,37.7"/>
<path class="st7" d="M43.5,26.6"/>
<path class="st7" d="M45.8,37.6"/>
<path class="st7" d="M45.8,26.5"/>
<path class="st6" d="M27.4,32"/>
<path class="st6" d="M32.9,25.2"/>
<path class="st6" d="M24.2,28.5"/>
<path class="st6" d="M29.2,28.5"/>
<path class="st6" d="M51.4,24.9"/>
<path class="st6" d="M46.4,29.9"/>
<line class="st6" x1="45.2" y1="27.6" x2="45.2" y2="27.6"/>
<path class="st0" d="M41.9,32"/>
<path class="st0" d="M22.1,32"/>
<path class="st0" d="M12.6,24.2"/>
<path class="st0" d="M16.8,20.5"/>
<path class="st0" d="M12.6,28.1"/>
<path class="st0" d="M21.7,20.5"/>
<path class="st0" d="M12.6,32.1"/>
<path class="st0" d="M26.3,20.5"/>
<path class="st0" d="M12.6,35.9"/>
<path class="st0" d="M30.6,20.5"/>
<path class="st0" d="M12.9,39.6"/>
<path class="st0" d="M35.3,20.5"/>
<path class="st0" d="M13.2,43.6"/>
<path class="st0" d="M39.5,20.5"/>
<path class="st0" d="M17.7,43.6"/>
<path class="st0" d="M43.5,20.5"/>
<path class="st0" d="M22.6,43.6"/>
<path class="st0" d="M47.4,20.5"/>
<path class="st0" d="M28,43.6"/>
<path class="st0" d="M50.9,21"/>
<path class="st0" d="M32.7,43.1"/>
<path class="st0" d="M51.4,24.9"/>
<path class="st0" d="M37.7,43.6"/>
<path class="st0" d="M51.4,30"/>
<path class="st0" d="M42.8,43.6"/>
<path class="st0" d="M51.4,34.3"/>
<line class="st0" x1="42.7" y1="34.4" x2="42.7" y2="34.4"/>
<path class="st0" d="M48,43.4"/>
<path class="st0" d="M51.6,39.1"/>
<line class="st0" x1="49.1" y1="27.1" x2="49.1" y2="27.1"/>
<path class="st0" d="M12.3,37.1"/>
<path class="st0" d="M32.2,51.9"/>
<path class="st4" d="M49.4,44.3"/>
<circle class="st4" cx="31.9" cy="32" r="6.9"/>
<circle class="st4" cx="32" cy="32" r="10.3"/>
<g>
	<path class="st4" d="M25.3,18.3c1.7,0,1.7,2,3.4,2c1.7,0,1.7-2,3.4-2c1.7,0,1.7,2,3.4,2c1.7,0,1.7-2,3.4-2"/>
</g>
<g>
	<g>
		<line class="st4" x1="31.9" y1="8.7" x2="31.9" y2="14.4"/>
		<g>
			<path class="st8" d="M31.9,14c1-1,3.1-1.5,4.5-1.6c-1.9,1.4-3.6,3.3-4.5,5.5c-0.9-2.3-2.7-4-4.5-5.5C28.9,12.6,30.8,12.9,31.9,14
				z"/>
		</g>
	</g>
</g>
<g>
	<path class="st4" d="M25.4,44.1c1.7,0,1.7,2,3.4,2c1.7,0,1.7-2,3.4-2c1.7,0,1.7,2,3.4,2s1.7-2,3.4-2"/>
</g>
<g>
	<g>
		<line class="st4" x1="32.1" y1="55.6" x2="32.1" y2="49.9"/>
		<g>
			<path class="st8" d="M32.1,50.3c-1,1-3.1,1.5-4.5,1.6c1.9-1.4,3.6-3.3,4.5-5.5c0.9,2.3,2.7,4,4.5,5.5
				C35.1,51.8,33.2,51.4,32.1,50.3z"/>
		</g>
	</g>
</g>
<g>
	<path class="st4" d="M45.6,25.5c0,1.7-2,1.7-2,3.4c0,1.7,2,1.7,2,3.4c0,1.7-2,1.7-2,3.4c0,1.7,2,1.7,2,3.4"/>
</g>
<g>
	<g>
		<line class="st4" x1="55.2" y1="32.1" x2="49.5" y2="32.1"/>
		<g>
			<path class="st8" d="M49.9,32.1c1,1,1.5,3.1,1.6,4.5c-1.4-1.9-3.3-3.6-5.5-4.5c2.3-0.9,4-2.7,5.5-4.5
				C51.3,29.1,51,30.9,49.9,32.1z"/>
		</g>
	</g>
</g>
<g>
	<path class="st4" d="M17.7,38.5c0-1.7,2-1.7,2-3.4c0-1.7-2-1.7-2-3.4c0-1.7,2-1.7,2-3.4c0-1.7-2-1.7-2-3.4"/>
</g>
<g>
	<g>
		<line class="st4" x1="8.1" y1="31.9" x2="13.8" y2="31.9"/>
		<g>
			<path class="st8" d="M13.4,31.9c-1-1-1.5-3.1-1.6-4.5c1.4,1.9,3.3,3.6,5.5,4.5c-2.3,0.9-4,2.7-5.5,4.5C12,34.9,12.3,33,13.4,31.9
				z"/>
		</g>
	</g>
</g>
</svg>
