<?xml version="1.0" encoding="utf-8"?>
<!-- Generator: Adobe Illustrator 23.0.0, SVG Export Plug-In . SVG Version: 6.00 Build 0)  -->
<svg version="1.1" id="图层_1" xmlns="http://www.w3.org/2000/svg" xmlns:xlink="http://www.w3.org/1999/xlink" x="0px" y="0px"
	 viewBox="0 0 64 64" style="enable-background:new 0 0 64 64;" xml:space="preserve">
<style type="text/css">
	.st0{fill:none;stroke:#E60012;stroke-miterlimit:10;}
	.st1{fill:none;stroke:#FF33FF;stroke-miterlimit:10;}
	.st2{fill:none;stroke:#FF0000;stroke-miterlimit:10;}
	.st3{fill:#FFFFFF;stroke:#E60012;stroke-miterlimit:10;}
	.st4{fill:none;stroke:#231815;stroke-miterlimit:10;}
	.st5{fill:#FFFFFF;stroke:#E60012;stroke-width:0.5;stroke-miterlimit:10;}
	.st6{fill:none;stroke:#E60012;stroke-width:0.5;stroke-miterlimit:10;}
	.st7{fill:none;stroke:#FF00FF;stroke-width:0.5;stroke-miterlimit:10;}
	.st8{fill:none;stroke:#231815;stroke-width:0.5;stroke-miterlimit:10;}
	.st9{fill:none;stroke:#231815;stroke-width:0.5;stroke-miterlimit:10;stroke-dasharray:0.453,0.453;}
	.st10{fill:none;stroke:#231815;stroke-width:0.5;stroke-miterlimit:10;stroke-dasharray:0.5251,0.5251;}
	.st11{fill:none;stroke:#231815;stroke-width:0.5;stroke-miterlimit:10;stroke-dasharray:0.4878,0.4878;}
	.st12{fill:none;stroke:#231815;stroke-width:0.5;stroke-miterlimit:10;stroke-dasharray:0.498,0.498;}
	.st13{fill:none;stroke:#231815;stroke-width:0.5;stroke-miterlimit:10;stroke-dasharray:0.5099,0.5099;}
	.st14{fill:none;stroke:#231815;stroke-width:0.5;stroke-miterlimit:10;stroke-dasharray:0.4899,0.4899;}
	.st15{fill:none;stroke:#231815;stroke-width:0.5;stroke-miterlimit:10;stroke-dasharray:0.5036,0.5036;}
	.st16{fill:none;stroke:#231815;stroke-width:0.5;stroke-miterlimit:10;stroke-dasharray:0.4997,0.4997;}
	.st17{fill:none;stroke:#231815;stroke-width:0.5;stroke-miterlimit:10;stroke-dasharray:0.4965,0.4965;}
	.st18{fill:none;stroke:#231815;stroke-width:0.5;stroke-miterlimit:10;stroke-dasharray:0.493,0.493;}
	.st19{fill:none;stroke:#231815;stroke-width:0.5;stroke-miterlimit:10;stroke-dasharray:0.5043,0.5043;}
	.st20{fill:none;stroke:#231815;stroke-width:0.5;stroke-miterlimit:10;stroke-dasharray:0.4936,0.4936;}
	.st21{fill:none;stroke:#231815;stroke-width:0.5;stroke-miterlimit:10;stroke-dasharray:0.4909,0.4909;}
	.st22{fill:none;stroke:#231815;stroke-width:0.5;stroke-miterlimit:10;stroke-dasharray:0.4954,0.4954;}
	.st23{fill:none;stroke:#231815;stroke-width:0.5;stroke-miterlimit:10;stroke-dasharray:0.5009,0.5009;}
	.st24{fill:none;stroke:#231815;stroke-width:0.5;stroke-miterlimit:10;stroke-dasharray:0.5029,0.5029;}
	.st25{fill:none;stroke:#231815;stroke-width:0.5;stroke-miterlimit:10;stroke-dasharray:0.5;}
	.st26{fill:#231815;}
</style>
<path class="st0" d="M40.3,45.7"/>
<path class="st0" d="M40.3,19.9"/>
<g>
	<path class="st0" d="M37.3,45.7"/>
</g>
<path class="st0" d="M24.2,34.4"/>
<path class="st0" d="M25.3,34.4"/>
<path class="st0" d="M24.2,34.4"/>
<path class="st0" d="M30.2,29.6"/>
<path class="st0" d="M25.3,29.6"/>
<path class="st0" d="M30.2,31.4"/>
<path class="st0" d="M25.3,31.4"/>
<path class="st0" d="M30.2,29.6"/>
<path class="st1" d="M16.3,39.6"/>
<path class="st1" d="M16.3,26.4"/>
<path class="st1" d="M11.1,30"/>
<path class="st1" d="M12.6,38.5"/>
<path class="st1" d="M20.7,28"/>
<path class="st1" d="M25.3,37.4"/>
<path class="st1" d="M25.4,35.4"/>
<path class="st1" d="M29.2,37.4"/>
<path class="st1" d="M29.2,29.6"/>
<path class="st1" d="M32.5,37.4"/>
<path class="st1" d="M32.5,29.6"/>
<path class="st2" d="M25.6,28"/>
<path class="st2" d="M23,30.6"/>
<path class="st0" d="M18.6,27.3"/>
<path class="st0" d="M17.8,35.1"/>
<path class="st0" d="M24.8,27.3"/>
<path class="st0" d="M24.6,27.3"/>
<path class="st0" d="M24.6,27.3"/>
<path class="st0" d="M17.7,34.1"/>
<path class="st0" d="M25.5,34.8"/>
<path class="st0" d="M25.5,27.4"/>
<path class="st0" d="M17.7,27.7"/>
<path class="st3" d="M15.6,40.5"/>
<path class="st3" d="M28,30"/>
<path class="st3" d="M16.5,31.4"/>
<path class="st3" d="M14.9,28.8"/>
<path class="st4" d="M31.6,40.8"/>
<path class="st4" d="M31.7,27.3"/>
<path class="st4" d="M24.8,38.5"/>
<path class="st4" d="M27.9,40.4"/>
<path class="st4" d="M29.6,40.6"/>
<path class="st0" d="M14.9,37.4"/>
<path class="st0" d="M11.4,25"/>
<path class="st0" d="M11.4,37.4"/>
<path class="st0" d="M26.9,37.8"/>
<path class="st0" d="M23.4,37.8"/>
<path class="st0" d="M24.2,37.8"/>
<path class="st0" d="M13.5,40.8"/>
<path class="st0" d="M13.2,40.4"/>
<path class="st0" d="M15.6,37.4"/>
<path class="st0" d="M25.5,41.2"/>
<path class="st0" d="M23.4,37.8"/>
<path class="st0" d="M25.6,40.6"/>
<path class="st0" d="M27.6,37.8"/>
<line class="st0" x1="24.8" y1="40.2" x2="24.8" y2="40.2"/>
<path class="st0" d="M25,40.6"/>
<path class="st0" d="M16.5,32.8"/>
<path class="st0" d="M16.5,27.3"/>
<path class="st0" d="M28.6,33.1"/>
<path class="st0" d="M28.6,27.6"/>
<path class="st0" d="M15.9,24.2"/>
<path class="st0" d="M11,24.2"/>
<path class="st0" d="M24.4,37.9"/>
<path class="st0" d="M26.1,32.7"/>
<path class="st0" d="M33.2,37.4"/>
<path class="st0" d="M26.3,32.1"/>
<path class="st5" d="M28.9,41.2"/>
<path class="st5" d="M19.6,41.2"/>
<path class="st5" d="M51.4,30.3"/>
<line class="st0" x1="41.8" y1="29" x2="41.8" y2="29"/>
<path class="st0" d="M28,25"/>
<path class="st0" d="M0.8,25"/>
<path class="st0" d="M28,39.2"/>
<path class="st0" d="M1.2,39.2"/>
<path class="st0" d="M3.4,39.6"/>
<path class="st0" d="M3.4,25"/>
<path class="st0" d="M6.4,39.3"/>
<path class="st0" d="M6.4,24.9"/>
<path class="st0" d="M9,39.2"/>
<path class="st0" d="M9,25.1"/>
<path class="st0" d="M11.8,39.2"/>
<path class="st0" d="M11.8,25.1"/>
<path class="st0" d="M14.9,39.1"/>
<path class="st0" d="M14.9,25"/>
<path class="st0" d="M17.8,39.2"/>
<path class="st0" d="M17.8,25.1"/>
<path class="st0" d="M20,39.3"/>
<path class="st0" d="M20,24.8"/>
<path class="st0" d="M23,39.3"/>
<path class="st0" d="M23,25.3"/>
<path class="st0" d="M29.6,39"/>
<path class="st0" d="M29.6,24.9"/>
<path class="st0" d="M26.3,39"/>
<path class="st0" d="M46.7,26.1"/>
<path class="st0" d="M18.4,25.9"/>
<path class="st0" d="M32.6,39"/>
<path class="st0" d="M32.6,24.9"/>
<path class="st0" d="M32.6,39"/>
<path class="st0" d="M32.6,24.9"/>
<path class="st0" d="M35.6,39.5"/>
<path class="st0" d="M35.6,25.4"/>
<path class="st0" d="M47.4,38.5"/>
<path class="st0" d="M17.7,38.2"/>
<path class="st0" d="M29.2,38.3"/>
<path class="st0" d="M29.2,26.2"/>
<path class="st0" d="M32,38"/>
<path class="st0" d="M31.9,25.9"/>
<path class="st0" d="M34.7,38.2"/>
<path class="st0" d="M34.6,26.1"/>
<path class="st0" d="M37.7,38.1"/>
<path class="st0" d="M37.6,26"/>
<path class="st0" d="M40.3,38.3"/>
<path class="st0" d="M40.3,26.2"/>
<path class="st0" d="M43.2,38.3"/>
<path class="st0" d="M43.1,26.2"/>
<path class="st0" d="M45.8,38.6"/>
<path class="st0" d="M45.7,26.5"/>
<path class="st4" d="M48.7,38.2"/>
<path class="st0" d="M48.6,26.1"/>
<path class="st0" d="M61.7,27.2"/>
<path class="st0" d="M39.9,26.9"/>
<path class="st0" d="M39.7,40.2"/>
<path class="st0" d="M39.6,28.1"/>
<path class="st0" d="M62,38.1"/>
<path class="st0" d="M40.2,37.8"/>
<path class="st0" d="M48.7,37.8"/>
<path class="st0" d="M48.7,27.3"/>
<path class="st0" d="M51.9,37.8"/>
<path class="st0" d="M51.9,27.3"/>
<path class="st0" d="M54.8,37.9"/>
<path class="st0" d="M55,27.1"/>
<path class="st0" d="M57.8,37.9"/>
<path class="st0" d="M57.8,27.5"/>
<path class="st0" d="M45.1,28.5"/>
<path class="st0" d="M37.7,35.9"/>
<line class="st0" x1="46.1" y1="30.6" x2="46.1" y2="30.6"/>
<path class="st0" d="M21.3,48.8"/>
<path class="st0" d="M32.9,29"/>
<path class="st0" d="M45.1,49.8"/>
<path class="st0" d="M32.9,29.1"/>
<path class="st0" d="M32.9,43.6"/>
<path class="st0" d="M32.9,29"/>
<line class="st6" x1="23.4" y1="31.1" x2="23.4" y2="31.1"/>
<line class="st6" x1="38" y1="24.4" x2="38" y2="24.4"/>
<line class="st6" x1="21.5" y1="32.7" x2="21.5" y2="32.7"/>
<path class="st7" d="M32.1,37.6"/>
<path class="st7" d="M32.1,26.5"/>
<path class="st7" d="M36.6,37.7"/>
<path class="st7" d="M36.6,26.6"/>
<path class="st7" d="M38.8,37.7"/>
<path class="st7" d="M38.8,26.6"/>
<path class="st7" d="M41.3,37.6"/>
<path class="st7" d="M41.3,26.5"/>
<path class="st7" d="M43.5,37.7"/>
<path class="st7" d="M43.5,26.6"/>
<path class="st7" d="M45.8,37.6"/>
<path class="st7" d="M45.8,26.5"/>
<path class="st6" d="M27.4,32"/>
<path class="st6" d="M32.9,25.2"/>
<path class="st6" d="M24.2,28.5"/>
<path class="st6" d="M29.2,28.5"/>
<path class="st6" d="M51.4,24.9"/>
<path class="st6" d="M46.4,29.9"/>
<line class="st6" x1="45.2" y1="27.6" x2="45.2" y2="27.6"/>
<path class="st6" d="M32,42"/>
<path class="st6" d="M31.9,32"/>
<path class="st6" d="M31.9,32"/>
<path class="st6" d="M25,25"/>
<path class="st6" d="M31.9,32"/>
<path class="st6" d="M38.8,24.9"/>
<rect x="10.9" y="22.1" class="st8" width="42.2" height="19.7"/>
<g>
	<g>
		<line class="st8" x1="11.1" y1="38.3" x2="11.3" y2="38.5"/>
		<line class="st9" x1="11.6" y1="38.8" x2="13.8" y2="41.4"/>
		<line class="st8" x1="13.9" y1="41.6" x2="14.1" y2="41.8"/>
	</g>
</g>
<g>
	<g>
		<line class="st8" x1="10.9" y1="35.4" x2="11" y2="35.6"/>
		<line class="st10" x1="11.4" y1="36" x2="16" y2="41.4"/>
		<line class="st8" x1="16.1" y1="41.6" x2="16.3" y2="41.8"/>
	</g>
</g>
<g>
	<g>
		<line class="st8" x1="11" y1="32.7" x2="11.2" y2="32.9"/>
		<line class="st11" x1="11.5" y1="33.3" x2="18.1" y2="41.4"/>
		<line class="st8" x1="18.2" y1="41.6" x2="18.4" y2="41.8"/>
	</g>
</g>
<g>
	<g>
		<line class="st8" x1="11.1" y1="30.3" x2="11.3" y2="30.5"/>
		<line class="st12" x1="11.6" y1="30.9" x2="20.4" y2="41.4"/>
		<line class="st8" x1="20.5" y1="41.6" x2="20.7" y2="41.8"/>
	</g>
</g>
<g>
	<g>
		<line class="st8" x1="11" y1="27.7" x2="11.2" y2="27.9"/>
		<line class="st13" x1="11.5" y1="28.3" x2="22.4" y2="41.4"/>
		<line class="st8" x1="22.6" y1="41.6" x2="22.8" y2="41.8"/>
	</g>
</g>
<g>
	<g>
		<line class="st8" x1="11.1" y1="25.3" x2="11.3" y2="25.5"/>
		<line class="st14" x1="11.6" y1="25.9" x2="24.7" y2="41.4"/>
		<line class="st8" x1="24.8" y1="41.6" x2="25" y2="41.8"/>
	</g>
</g>
<g>
	<g>
		<line class="st8" x1="10.9" y1="23" x2="11" y2="23.2"/>
		<line class="st15" x1="11.4" y1="23.5" x2="27.3" y2="41.4"/>
		<line class="st8" x1="27.4" y1="41.6" x2="27.6" y2="41.8"/>
	</g>
</g>
<g>
	<g>
		<line class="st8" x1="13.2" y1="22.1" x2="13.4" y2="22.3"/>
		<line class="st16" x1="13.7" y1="22.7" x2="29.9" y2="41.4"/>
		<line class="st8" x1="30" y1="41.6" x2="30.2" y2="41.8"/>
	</g>
</g>
<g>
	<g>
		<line class="st8" x1="16.2" y1="22.1" x2="16.4" y2="22.3"/>
		<line class="st17" x1="16.7" y1="22.7" x2="32.7" y2="41.4"/>
		<line class="st8" x1="32.8" y1="41.6" x2="33" y2="41.8"/>
	</g>
</g>
<g>
	<g>
		<line class="st8" x1="19.6" y1="22.1" x2="19.8" y2="22.3"/>
		<line class="st17" x1="20.1" y1="22.7" x2="36.1" y2="41.4"/>
		<line class="st8" x1="36.2" y1="41.6" x2="36.4" y2="41.8"/>
	</g>
</g>
<g>
	<g>
		<line class="st8" x1="23" y1="22.2" x2="23.1" y2="22.4"/>
		<line class="st17" x1="23.4" y1="22.8" x2="39.4" y2="41.5"/>
		<line class="st8" x1="39.5" y1="41.6" x2="39.7" y2="41.8"/>
	</g>
</g>
<g>
	<g>
		<line class="st8" x1="26.6" y1="22.1" x2="26.8" y2="22.3"/>
		<line class="st18" x1="27.1" y1="22.7" x2="42.8" y2="41.4"/>
		<line class="st8" x1="42.9" y1="41.6" x2="43.1" y2="41.8"/>
	</g>
</g>
<g>
	<g>
		<line class="st8" x1="30.2" y1="22.1" x2="30.4" y2="22.3"/>
		<line class="st17" x1="30.7" y1="22.7" x2="46.4" y2="41.6"/>
		<line class="st8" x1="46.5" y1="41.8" x2="46.7" y2="42"/>
	</g>
</g>
<g>
	<g>
		<line class="st8" x1="33.5" y1="22.1" x2="33.7" y2="22.3"/>
		<line class="st19" x1="34" y1="22.7" x2="49.4" y2="41.1"/>
		<line class="st8" x1="49.5" y1="41.3" x2="49.7" y2="41.5"/>
	</g>
</g>
<g>
	<g>
		<line class="st8" x1="36.6" y1="22.1" x2="36.8" y2="22.3"/>
		<line class="st20" x1="37.1" y1="22.7" x2="52.8" y2="41.4"/>
		<line class="st8" x1="53" y1="41.6" x2="53.1" y2="41.8"/>
	</g>
</g>
<line class="st6" x1="49.7" y1="41.5" x2="49.7" y2="41.5"/>
<g>
	<g>
		<line class="st8" x1="40.3" y1="22.1" x2="40.5" y2="22.3"/>
		<line class="st21" x1="40.8" y1="22.7" x2="52.8" y2="37.9"/>
		<line class="st8" x1="53" y1="38.1" x2="53.1" y2="38.3"/>
	</g>
</g>
<g>
	<g>
		<line class="st8" x1="43.5" y1="22.1" x2="43.7" y2="22.3"/>
		<line class="st22" x1="44" y1="22.7" x2="52.8" y2="34.3"/>
		<line class="st8" x1="53" y1="34.5" x2="53.1" y2="34.7"/>
	</g>
</g>
<g>
	<g>
		<line class="st8" x1="46.7" y1="22.1" x2="46.9" y2="22.3"/>
		<line class="st23" x1="47.1" y1="22.7" x2="52.8" y2="30.7"/>
		<line class="st8" x1="53" y1="30.9" x2="53.1" y2="31.1"/>
	</g>
</g>
<g>
	<g>
		<line class="st8" x1="49.1" y1="22.1" x2="49.3" y2="22.3"/>
		<line class="st24" x1="49.6" y1="22.7" x2="53.1" y2="27.3"/>
		<line class="st8" x1="53.3" y1="27.5" x2="53.4" y2="27.7"/>
	</g>
</g>
<line class="st25" x1="11.1" y1="24.9" x2="13.2" y2="22.5"/>
<line class="st25" x1="11.1" y1="27.4" x2="16.2" y2="22.1"/>
<line class="st25" x1="11.1" y1="30.3" x2="19.6" y2="22.1"/>
<line class="st25" x1="11" y1="32.7" x2="23" y2="22.2"/>
<line class="st25" x1="10.9" y1="35.4" x2="26.6" y2="22.1"/>
<line class="st25" x1="11.1" y1="38.3" x2="30.2" y2="22.4"/>
<line class="st25" x1="12.1" y1="41.5" x2="33.9" y2="22.6"/>
<line class="st25" x1="15.6" y1="41.5" x2="37.1" y2="22.7"/>
<line class="st25" x1="20.7" y1="41.8" x2="40.8" y2="22.1"/>
<line class="st25" x1="25.4" y1="41.8" x2="43.7" y2="22.4"/>
<line class="st25" x1="30.2" y1="41.5" x2="46.9" y2="22.4"/>
<line class="st25" x1="34.1" y1="41.5" x2="49.9" y2="22.4"/>
<line class="st25" x1="38.5" y1="41.5" x2="53.1" y2="22.8"/>
<line class="st25" x1="42" y1="41.5" x2="53.4" y2="26"/>
<line class="st25" x1="46.4" y1="42" x2="53.5" y2="31.1"/>
<line class="st25" x1="49.7" y1="41.5" x2="52.9" y2="35.9"/>
<circle class="st8" cx="32.1" cy="11.7" r="2"/>
<g>
	<g>
		<line class="st8" x1="32.1" y1="13.7" x2="32.1" y2="19.6"/>
		<g>
			<polygon class="st26" points="31.3,18.6 32.1,19.5 32.9,18.6 32.9,19.4 32.1,20.2 31.3,19.4 			"/>
		</g>
	</g>
</g>
<circle class="st8" cx="31.6" cy="50.2" r="2"/>
<g>
	<g>
		<line class="st8" x1="31.6" y1="49.3" x2="31.6" y2="43.3"/>
		<g>
			<polygon class="st26" points="32.4,44.3 31.6,43.5 30.8,44.3 30.8,43.6 31.6,42.8 32.4,43.6 			"/>
		</g>
	</g>
</g>
<circle class="st8" cx="61.6" cy="33.3" r="2"/>
<g>
	<g>
		<line class="st8" x1="60.8" y1="33.3" x2="54.8" y2="33.3"/>
		<g>
			<polygon class="st26" points="55.8,32.5 55,33.3 55.8,34.1 55.1,34.1 54.3,33.3 55.1,32.5 			"/>
		</g>
	</g>
</g>
<circle class="st8" cx="2.8" cy="32" r="2"/>
<g>
	<g>
		<line class="st8" x1="3.7" y1="32" x2="9.6" y2="32"/>
		<g>
			<polygon class="st26" points="8.6,32.9 9.5,32 8.6,31.2 9.3,31.2 10.2,32 9.3,32.9 			"/>
		</g>
	</g>
</g>
</svg>
