<?xml version="1.0" encoding="utf-8"?>
<!-- Generator: Adobe Illustrator 23.0.0, SVG Export Plug-In . SVG Version: 6.00 Build 0)  -->
<svg version="1.1" id="图层_1" xmlns="http://www.w3.org/2000/svg" xmlns:xlink="http://www.w3.org/1999/xlink" x="0px" y="0px"
	 viewBox="0 0 64 64" style="enable-background:new 0 0 64 64;" xml:space="preserve">
<style type="text/css">
	.st0{fill:none;stroke:#E60012;stroke-miterlimit:10;}
	.st1{fill:none;stroke:#FF33FF;stroke-miterlimit:10;}
	.st2{fill:none;stroke:#FF0000;stroke-miterlimit:10;}
	.st3{fill:#FFFFFF;stroke:#E60012;stroke-miterlimit:10;}
	.st4{fill:none;stroke:#231815;stroke-miterlimit:10;}
	.st5{fill:#FFFFFF;stroke:#E60012;stroke-width:0.5;stroke-miterlimit:10;}
	.st6{fill:none;stroke:#E60012;stroke-width:0.5;stroke-miterlimit:10;}
	.st7{fill:none;stroke:#FF00FF;stroke-width:0.5;stroke-miterlimit:10;}
	.st8{fill:none;stroke:#E60012;stroke-width:0.5;stroke-miterlimit:10;stroke-dasharray:0.5116,0.5116;}
	.st9{fill:none;stroke:#E60012;stroke-width:0.5;stroke-miterlimit:10;stroke-dasharray:0.4971,0.4971;}
	.st10{fill:none;stroke:#E60012;stroke-width:0.5;stroke-miterlimit:10;stroke-dasharray:0.5101,0.5101;}
	.st11{fill:none;stroke:#E60012;stroke-width:0.5;stroke-miterlimit:10;stroke-dasharray:0.5077,0.5077;}
	.st12{fill:none;stroke:#E60012;stroke-width:0.5;stroke-miterlimit:10;stroke-dasharray:0.4947,0.4947;}
	.st13{fill:none;stroke:#E60012;stroke-width:0.5;stroke-miterlimit:10;stroke-dasharray:0.5045,0.5045;}
	.st14{fill:none;stroke:#E60012;stroke-width:0.5;stroke-miterlimit:10;stroke-dasharray:0.4963,0.4963;}
	.st15{fill:none;stroke:#E60012;stroke-width:0.5;stroke-miterlimit:10;stroke-dasharray:0.5,0.5;}
	.st16{fill:none;stroke:#E60012;stroke-width:0.5;stroke-miterlimit:10;stroke-dasharray:0.4932,0.4932;}
	.st17{fill:none;stroke:#E60012;stroke-width:0.5;stroke-miterlimit:10;stroke-dasharray:0.5063,0.5063;}
	.st18{fill:none;stroke:#E60012;stroke-width:0.5;stroke-miterlimit:10;stroke-dasharray:0.5036,0.5036;}
	.st19{fill:none;stroke:#E60012;stroke-width:0.5;stroke-miterlimit:10;stroke-dasharray:0.5021,0.5021;}
	.st20{fill:none;stroke:#E60012;stroke-width:0.5;stroke-miterlimit:10;stroke-dasharray:0.5016,0.5016;}
	.st21{fill:none;stroke:#E60012;stroke-width:0.5;stroke-miterlimit:10;stroke-dasharray:0.5048,0.5048;}
	.st22{fill:none;stroke:#E60012;stroke-width:0.5;stroke-miterlimit:10;stroke-dasharray:0.5051,0.5051;}
	.st23{fill:none;stroke:#E60012;stroke-width:0.5;stroke-miterlimit:10;stroke-dasharray:0.494,0.494;}
	.st24{fill:none;stroke:#E60012;stroke-width:0.5;stroke-miterlimit:10;stroke-dasharray:0.4939,0.4939;}
	.st25{fill:none;stroke:#E60012;stroke-width:0.5;stroke-miterlimit:10;stroke-dasharray:0.5035,0.5035;}
	.st26{fill:none;stroke:#E60012;stroke-width:0.5;stroke-miterlimit:10;stroke-dasharray:0.5058,0.5058;}
	.st27{fill:none;stroke:#E60012;stroke-width:0.5;stroke-miterlimit:10;stroke-dasharray:0.5;}
</style>
<path class="st0" d="M40.3,45.7"/>
<path class="st0" d="M40.3,19.9"/>
<g>
	<path class="st0" d="M37.3,45.7"/>
</g>
<path class="st0" d="M24.2,34.4"/>
<path class="st0" d="M25.3,34.4"/>
<path class="st0" d="M24.2,34.4"/>
<path class="st0" d="M30.2,29.6"/>
<path class="st0" d="M25.3,29.6"/>
<path class="st0" d="M30.2,31.4"/>
<path class="st0" d="M25.3,31.4"/>
<path class="st0" d="M30.2,29.6"/>
<path class="st1" d="M16.3,39.6"/>
<path class="st1" d="M16.3,26.4"/>
<path class="st1" d="M11.1,30"/>
<path class="st1" d="M12.6,38.5"/>
<path class="st1" d="M20.7,28"/>
<path class="st1" d="M25.3,37.4"/>
<path class="st1" d="M25.4,35.4"/>
<path class="st1" d="M29.2,37.4"/>
<path class="st1" d="M29.2,29.6"/>
<path class="st1" d="M32.5,37.4"/>
<path class="st1" d="M32.5,29.6"/>
<path class="st2" d="M25.6,28"/>
<path class="st2" d="M23,30.6"/>
<path class="st0" d="M18.6,27.3"/>
<path class="st0" d="M17.8,35.1"/>
<path class="st0" d="M24.8,27.3"/>
<path class="st0" d="M24.6,27.3"/>
<path class="st0" d="M24.6,27.3"/>
<path class="st0" d="M17.7,34.1"/>
<path class="st0" d="M25.5,34.8"/>
<path class="st0" d="M25.5,27.4"/>
<path class="st0" d="M17.7,27.7"/>
<path class="st3" d="M15.6,40.5"/>
<path class="st3" d="M28,30"/>
<path class="st3" d="M16.5,31.4"/>
<path class="st3" d="M14.9,28.8"/>
<path class="st4" d="M31.6,40.8"/>
<path class="st4" d="M31.7,27.3"/>
<path class="st4" d="M24.8,38.5"/>
<path class="st4" d="M27.9,40.4"/>
<path class="st4" d="M29.6,40.6"/>
<path class="st0" d="M14.9,37.4"/>
<path class="st0" d="M11.4,25"/>
<path class="st0" d="M11.4,37.4"/>
<path class="st0" d="M26.9,37.8"/>
<path class="st0" d="M23.4,37.8"/>
<path class="st0" d="M24.2,37.8"/>
<path class="st0" d="M13.5,40.8"/>
<path class="st0" d="M13.2,40.4"/>
<path class="st0" d="M15.6,37.4"/>
<path class="st0" d="M25.5,41.2"/>
<path class="st0" d="M23.4,37.8"/>
<path class="st0" d="M25.6,40.6"/>
<path class="st0" d="M27.6,37.8"/>
<line class="st0" x1="24.8" y1="40.2" x2="24.8" y2="40.2"/>
<path class="st0" d="M25,40.6"/>
<path class="st0" d="M16.5,32.8"/>
<path class="st0" d="M16.5,27.3"/>
<path class="st0" d="M28.6,33.1"/>
<path class="st0" d="M28.6,27.6"/>
<path class="st0" d="M15.9,24.2"/>
<path class="st0" d="M11,24.2"/>
<path class="st0" d="M24.4,37.9"/>
<path class="st0" d="M26.1,32.7"/>
<path class="st0" d="M33.2,37.4"/>
<path class="st0" d="M26.3,32.1"/>
<path class="st5" d="M28.9,41.2"/>
<path class="st5" d="M19.6,41.2"/>
<path class="st5" d="M51.4,30.3"/>
<line class="st0" x1="41.8" y1="29" x2="41.8" y2="29"/>
<path class="st0" d="M28,25"/>
<path class="st0" d="M0.8,25"/>
<path class="st0" d="M28,39.2"/>
<path class="st0" d="M1.2,39.2"/>
<path class="st0" d="M3.4,39.6"/>
<path class="st0" d="M3.4,25"/>
<path class="st0" d="M6.4,39.3"/>
<path class="st0" d="M6.4,24.9"/>
<path class="st0" d="M9,39.2"/>
<path class="st0" d="M9,25.1"/>
<path class="st0" d="M11.8,39.2"/>
<path class="st0" d="M11.8,25.1"/>
<path class="st0" d="M14.9,39.1"/>
<path class="st0" d="M14.9,25"/>
<path class="st0" d="M17.8,39.2"/>
<path class="st0" d="M17.8,25.1"/>
<path class="st0" d="M20,39.3"/>
<path class="st0" d="M20,24.8"/>
<path class="st0" d="M23,39.3"/>
<path class="st0" d="M23,25.3"/>
<path class="st0" d="M29.6,39"/>
<path class="st0" d="M29.6,24.9"/>
<path class="st0" d="M26.3,39"/>
<path class="st0" d="M46.7,26.1"/>
<path class="st0" d="M18.4,25.9"/>
<path class="st0" d="M32.6,39"/>
<path class="st0" d="M32.6,24.9"/>
<path class="st0" d="M32.6,39"/>
<path class="st0" d="M32.6,24.9"/>
<path class="st0" d="M35.6,39.5"/>
<path class="st0" d="M35.6,25.4"/>
<path class="st0" d="M47.4,38.5"/>
<path class="st0" d="M17.7,38.2"/>
<path class="st0" d="M29.2,38.3"/>
<path class="st0" d="M29.2,26.2"/>
<path class="st0" d="M32,38"/>
<path class="st0" d="M31.9,25.9"/>
<path class="st0" d="M34.7,38.2"/>
<path class="st0" d="M34.6,26.1"/>
<path class="st0" d="M37.7,38.1"/>
<path class="st0" d="M37.6,26"/>
<path class="st0" d="M40.3,38.3"/>
<path class="st0" d="M40.3,26.2"/>
<path class="st0" d="M43.2,38.3"/>
<path class="st0" d="M43.1,26.2"/>
<path class="st0" d="M45.8,38.6"/>
<path class="st0" d="M45.7,26.5"/>
<path class="st0" d="M48.7,38.2"/>
<path class="st0" d="M48.6,26.1"/>
<path class="st0" d="M61.7,27.2"/>
<path class="st0" d="M39.9,26.9"/>
<path class="st0" d="M39.7,40.2"/>
<path class="st0" d="M39.6,28.1"/>
<path class="st0" d="M62,38.1"/>
<path class="st0" d="M40.2,37.8"/>
<path class="st0" d="M48.7,37.8"/>
<path class="st0" d="M48.7,27.3"/>
<path class="st0" d="M51.9,37.8"/>
<path class="st0" d="M51.9,27.3"/>
<path class="st0" d="M54.8,37.9"/>
<path class="st0" d="M55,27.1"/>
<path class="st0" d="M57.8,37.9"/>
<path class="st0" d="M57.8,27.5"/>
<path class="st0" d="M45.1,28.5"/>
<path class="st0" d="M37.7,35.9"/>
<line class="st0" x1="46.1" y1="30.6" x2="46.1" y2="30.6"/>
<path class="st0" d="M21.3,48.8"/>
<path class="st0" d="M32.9,29"/>
<path class="st0" d="M45.1,49.8"/>
<path class="st0" d="M32.9,29.1"/>
<path class="st0" d="M32.9,43.6"/>
<path class="st0" d="M32.9,29"/>
<line class="st6" x1="23.4" y1="31.1" x2="23.4" y2="31.1"/>
<line class="st6" x1="38" y1="24.4" x2="38" y2="24.4"/>
<line class="st6" x1="21.5" y1="32.7" x2="21.5" y2="32.7"/>
<path class="st7" d="M32.1,37.6"/>
<path class="st7" d="M32.1,26.5"/>
<path class="st7" d="M36.6,37.7"/>
<path class="st7" d="M36.6,26.6"/>
<path class="st7" d="M38.8,37.7"/>
<path class="st7" d="M38.8,26.6"/>
<path class="st7" d="M41.3,37.6"/>
<path class="st7" d="M41.3,26.5"/>
<path class="st7" d="M43.5,37.7"/>
<path class="st7" d="M43.5,26.6"/>
<path class="st7" d="M45.8,37.6"/>
<path class="st7" d="M45.8,26.5"/>
<path class="st6" d="M27.4,32"/>
<path class="st6" d="M32.9,25.2"/>
<path class="st6" d="M24.2,28.5"/>
<path class="st6" d="M29.2,28.5"/>
<path class="st6" d="M51.4,24.9"/>
<path class="st6" d="M46.4,29.9"/>
<line class="st6" x1="45.2" y1="27.6" x2="45.2" y2="27.6"/>
<path class="st6" d="M32,42"/>
<path class="st6" d="M31.9,32"/>
<path class="st6" d="M31.9,32"/>
<path class="st6" d="M25,25"/>
<path class="st6" d="M31.9,32"/>
<path class="st6" d="M38.8,24.9"/>
<rect x="10.9" y="22.1" class="st6" width="42.2" height="19.7"/>
<g>
	<g>
		<line class="st6" x1="6.3" y1="32.7" x2="6.5" y2="32.9"/>
		<line class="st8" x1="6.8" y1="33.3" x2="17.3" y2="45.6"/>
		<line class="st6" x1="17.4" y1="45.8" x2="17.6" y2="45.9"/>
	</g>
</g>
<g>
	<g>
		<line class="st6" x1="6.7" y1="30.4" x2="6.9" y2="30.5"/>
		<line class="st9" x1="7.2" y1="30.9" x2="19" y2="45.3"/>
		<line class="st6" x1="19.2" y1="45.5" x2="19.4" y2="45.7"/>
	</g>
</g>
<g>
	<g>
		<line class="st6" x1="11" y1="32.7" x2="11.2" y2="32.9"/>
		<line class="st10" x1="11.5" y1="33.3" x2="21" y2="45"/>
		<line class="st6" x1="21.1" y1="45.2" x2="21.3" y2="45.4"/>
	</g>
</g>
<g>
	<g>
		<line class="st6" x1="6.8" y1="25.7" x2="6.9" y2="25.8"/>
		<line class="st11" x1="7.2" y1="26.2" x2="23.7" y2="45.2"/>
		<line class="st6" x1="23.8" y1="45.4" x2="24" y2="45.6"/>
	</g>
</g>
<g>
	<g>
		<line class="st6" x1="7" y1="22.9" x2="7.2" y2="23.1"/>
		<line class="st12" x1="7.5" y1="23.5" x2="25.1" y2="44.6"/>
		<line class="st6" x1="25.2" y1="44.8" x2="25.4" y2="45"/>
	</g>
</g>
<g>
	<g>
		<line class="st6" x1="7.2" y1="20.7" x2="7.4" y2="20.9"/>
		<line class="st13" x1="7.7" y1="21.2" x2="27.7" y2="45"/>
		<line class="st6" x1="27.8" y1="45.2" x2="28" y2="45.3"/>
	</g>
</g>
<g>
	<g>
		<line class="st6" x1="8.2" y1="19.9" x2="8.3" y2="20.1"/>
		<line class="st14" x1="8.7" y1="20.5" x2="30.2" y2="44.8"/>
		<line class="st6" x1="30.4" y1="44.9" x2="30.6" y2="45.1"/>
	</g>
</g>
<g>
	<g>
		<line class="st6" x1="10" y1="18.5" x2="10.2" y2="18.7"/>
		<line class="st15" x1="10.5" y1="19" x2="33.3" y2="45.3"/>
		<line class="st6" x1="33.4" y1="45.5" x2="33.6" y2="45.7"/>
	</g>
</g>
<g>
	<g>
		<line class="st6" x1="13.2" y1="18.6" x2="13.4" y2="18.8"/>
		<line class="st16" x1="13.7" y1="19.2" x2="35.3" y2="44.5"/>
		<line class="st6" x1="35.4" y1="44.7" x2="35.6" y2="44.9"/>
	</g>
</g>
<g>
	<g>
		<line class="st6" x1="16.7" y1="18.7" x2="16.8" y2="18.8"/>
		<line class="st17" x1="17.1" y1="19.2" x2="38.7" y2="44.5"/>
		<line class="st6" x1="38.8" y1="44.7" x2="39" y2="44.9"/>
	</g>
</g>
<g>
	<g>
		<line class="st6" x1="20" y1="18.7" x2="20.2" y2="18.9"/>
		<line class="st18" x1="20.5" y1="19.3" x2="41.7" y2="44.6"/>
		<line class="st6" x1="41.8" y1="44.8" x2="42" y2="45"/>
	</g>
</g>
<g>
	<g>
		<line class="st6" x1="23.6" y1="18.5" x2="23.8" y2="18.7"/>
		<line class="st19" x1="24.1" y1="19.1" x2="44.9" y2="44.6"/>
		<line class="st6" x1="45" y1="44.8" x2="45.2" y2="45"/>
	</g>
</g>
<g>
	<g>
		<line class="st6" x1="27.1" y1="18.4" x2="27.3" y2="18.6"/>
		<line class="st20" x1="27.6" y1="19" x2="48.6" y2="44.3"/>
		<line class="st6" x1="48.7" y1="44.5" x2="48.9" y2="44.6"/>
	</g>
</g>
<g>
	<g>
		<line class="st6" x1="30.7" y1="18.3" x2="30.8" y2="18.5"/>
		<line class="st21" x1="31.2" y1="18.9" x2="51.9" y2="44.7"/>
		<line class="st6" x1="52" y1="44.9" x2="52.2" y2="45.1"/>
	</g>
</g>
<g>
	<g>
		<line class="st6" x1="33.2" y1="18.1" x2="33.4" y2="18.3"/>
		<line class="st22" x1="33.7" y1="18.7" x2="55.6" y2="44.8"/>
		<line class="st6" x1="55.8" y1="45" x2="55.9" y2="45.2"/>
	</g>
</g>
<line class="st6" x1="49.7" y1="41.5" x2="49.7" y2="41.5"/>
<g>
	<g>
		<line class="st6" x1="37.3" y1="18.4" x2="37.5" y2="18.6"/>
		<line class="st23" x1="37.8" y1="18.9" x2="56.6" y2="42.7"/>
		<line class="st6" x1="56.8" y1="42.9" x2="56.9" y2="43.1"/>
	</g>
</g>
<g>
	<g>
		<line class="st6" x1="40.5" y1="18.2" x2="40.7" y2="18.4"/>
		<line class="st24" x1="41" y1="18.8" x2="58.2" y2="41.4"/>
		<line class="st6" x1="58.3" y1="41.6" x2="58.5" y2="41.8"/>
	</g>
</g>
<g>
	<g>
		<line class="st6" x1="43.9" y1="18.1" x2="44" y2="18.3"/>
		<line class="st25" x1="44.3" y1="18.7" x2="58.6" y2="39.2"/>
		<line class="st6" x1="58.7" y1="39.4" x2="58.9" y2="39.6"/>
	</g>
</g>
<g>
	<g>
		<line class="st6" x1="46.7" y1="17.9" x2="46.8" y2="18.1"/>
		<line class="st26" x1="47.1" y1="18.5" x2="58.4" y2="35"/>
		<line class="st6" x1="58.6" y1="35.2" x2="58.7" y2="35.4"/>
	</g>
</g>
<line class="st27" x1="7.2" y1="28.8" x2="15.9" y2="18.5"/>
<line class="st27" x1="6.8" y1="31.8" x2="20" y2="18.3"/>
<line class="st27" x1="6.8" y1="34.3" x2="22.2" y2="18.9"/>
<line class="st27" x1="7.1" y1="36.2" x2="25.9" y2="19.1"/>
<line class="st27" x1="7" y1="38.7" x2="30.2" y2="19.1"/>
<line class="st27" x1="6.9" y1="41.3" x2="35.6" y2="18.7"/>
<line class="st27" x1="8.6" y1="44.5" x2="38.6" y2="18.6"/>
<line class="st27" x1="9.8" y1="45.7" x2="42" y2="18.4"/>
<line class="st27" x1="13.9" y1="45.7" x2="45.2" y2="18.7"/>
<line class="st27" x1="18.4" y1="45.7" x2="49.5" y2="18.3"/>
<line class="st27" x1="22.4" y1="45.7" x2="51.9" y2="19"/>
<line class="st27" x1="26.9" y1="45.7" x2="53.9" y2="18.4"/>
<line class="st27" x1="30.6" y1="45.7" x2="56.4" y2="18.3"/>
<line class="st27" x1="34.2" y1="45.7" x2="58.8" y2="18.6"/>
<line class="st27" x1="38.2" y1="45.7" x2="58.9" y2="21.6"/>
<line class="st27" x1="40.9" y1="46.1" x2="59.1" y2="24.9"/>
<line class="st27" x1="44.3" y1="46.1" x2="58.3" y2="28.5"/>
<line class="st27" x1="47.4" y1="46.2" x2="58.5" y2="31.1"/>
<line class="st27" x1="51.3" y1="46" x2="58.9" y2="32.8"/>
<line class="st27" x1="53.4" y1="45.7" x2="59.2" y2="36.3"/>
<line class="st27" x1="50.9" y1="18.3" x2="58.6" y2="32.3"/>
<line class="st27" x1="53.5" y1="18.2" x2="59.3" y2="32.5"/>
<line class="st27" x1="60" y1="29.6" x2="55.5" y2="17.7"/>
</svg>
